<?xml version="1.0" encoding="utf-8"?>
<!-- Generator: Adobe Illustrator 16.0.0, SVG Export Plug-In . SVG Version: 6.00 Build 0)  -->
<!DOCTYPE svg PUBLIC "-//W3C//DTD SVG 1.1//EN" "http://www.w3.org/Graphics/SVG/1.1/DTD/svg11.dtd">
<svg version="1.1" id="图层_1" xmlns="http://www.w3.org/2000/svg" xmlns:xlink="http://www.w3.org/1999/xlink" x="0px" y="0px"
	 width="200px" height="200px" viewBox="0 0 200 200" enable-background="new 0 0 200 200" xml:space="preserve">
<path fill="#FFAE00" d="M86.686,177.521c4.222,0,6.302-1.539,7-3.336c6.64-17.152,18.718-102.639,23.523-111.944
	c4.57-8.854,15.287-8.558,32.146,0.887c0.877,0.491,1.984,0.179,2.477-0.697c0.035-0.063,0.066-0.127,0.094-0.193l8.49-20.498
	c0.195-0.471-0.006-1.012-0.461-1.24c-14.432-7.256-31.182-11.409-49.046-11.409c-11.364,0-22.278,1.68-32.429,4.771
	c-11.649,3.545-19.518,9.455-24.831,17.011c-0.478,0.682-0.756,2.52,1.131,2.52c5.037,0,19.039-2.52,24.1-3.333
	c5.078-0.814,13.678-2.302,15.533,4.214c2.44,8.584-11.455,60.973-15.933,74.523c-4.489,13.575-8.184,27.604-9.997,35.271
	c-0.478,2.02,0,6.389,2.353,8.328C73.136,174.289,80.682,177.521,86.686,177.521z"/>
<path fill="#D8D8D8" d="M152.715,34.282l13.389,5.684l-11.748,27.676l-13.391-5.682L152.715,34.282z"/>
<path fill="#42434D" d="M86.686,177.521c4.222,0,6.302-1.539,7-3.336c2.989-7.729,8.652-35.652,16.987-83.778l-20.349-6.324
	c-6.226,24.758-10.175,39.664-11.844,44.715c-4.489,13.574-8.184,27.604-9.996,35.271c-0.479,2.02,0,6.389,2.353,8.328
	C73.136,174.289,80.682,177.521,86.686,177.521z"/>
<path fill="#009A61" d="M16.364,114.098v-13.927l30.476-22.14l8.549,11.768l-23.611,17.153l24.611,16.6l-8.133,12.062
	L16.364,114.098L16.364,114.098z M183.662,99.542v13.927l-30.475,22.143l-8.551-11.768l23.609-17.154l-24.609-16.601l8.135-12.058
	L183.662,99.542L183.662,99.542z"/>
</svg>
