<?xml version="1.0" encoding="utf-8"?>
<!-- Generator: Adobe Illustrator 16.0.0, SVG Export Plug-In . SVG Version: 6.00 Build 0)  -->
<!DOCTYPE svg PUBLIC "-//W3C//DTD SVG 1.1//EN" "http://www.w3.org/Graphics/SVG/1.1/DTD/svg11.dtd">
<svg version="1.1" id="图层_1" xmlns="http://www.w3.org/2000/svg" xmlns:xlink="http://www.w3.org/1999/xlink" x="0px" y="0px"
	 width="595.279px" height="841.89px" viewBox="0 0 595.279 841.89" enable-background="new 0 0 595.279 841.89"
	 xml:space="preserve">
<g>
	<path fill="#9EBBD5" d="M426.12,252.613l-0.699-2.2l-1.801-3.1l-1.5-0.8l-1.5,0.8l-0.899,1.8l-0.101,0.2h-0.199h-0.101l-2.799,0.5
		c-0.301,0.2-0.601,0.3-0.801,0.6l-0.601,0.7l-1.5,1.2l-0.399,0.2l-1.3,0.2c-0.601-0.1-1.5-0.6-2.7-1.5l-0.101-0.1c-2-2-3-3.4-3-4.2
		v-2.6v-0.1v-0.1l0.301-0.5l-2.899-1l-0.101,1c0,0.3-0.301,0.7-0.801,1l-1,0.4l-0.399-0.1v-0.1l-1.5-0.3l0.301,1.1l-2.601-1.7
		h-0.101l-0.1-0.1l0,0c-0.4-1.1-0.601-2.2-0.601-3.4c0-1,0.101-1.6,0.5-2l0.601-1.1l-0.199-0.9l-2.601,0.4
		c-1.301,0.1-2.2,0.9-2.7,2.4v0.1l0,0l-1.5,2.3l1.5-0.1h0.1l0.101-0.1l0.101,0.2l1.199,0.5h0.2l0.199,0.1v0.3l0.2,2.1l0.601,2v0.1
		v0.1v0.1l-3.301,6.5c-0.599,0.9-0.899,3.3-1.099,6.9v0.3l-1.301,2.5l0.899,1v0.2c0.101,1.5,0,2.4-0.399,2.6l-0.3,0.1
		c-0.7,0.4-3,2.8-6.7,7.3l-0.3,0.3l-0.2-0.1l-0.3-0.2c-1.301-0.9-2.5-1.7-3.2-2.5c-0.6-0.4-2.1-0.7-4.6-0.7l-0.1,4.6l-0.101,0.1
		l-1.8,8.7c-0.4,1.1-0.5,3.1-0.5,6.1l0.699,0.9l0.601-1.2h0.101l0.1-0.2l2.3-1.2l6.399,1l0.701-0.8l0.899-1.6l0.199-0.1l0,0
		l0.101-0.1l2.5-0.5l3.301-0.2c1,0.2,2.199,1.5,3.699,3.5c4,2,6.2,3.8,6.7,5.4c0.3,0.8,0.3,1.4,0,2.1c-0.301,0.7-1,1.1-2,1.2h-0.101
		c-4.899-0.2-7.7-0.2-8.7,0.1l-2.399,1.6c-3,2.2-5,3.3-6.101,3.3l-1.999,0.3l-1.2,5c-0.3,1.5-0.8,2.5-1.7,3.2
		c-0.8,0.8-2,1.3-3.6,1.6c-1.9,0.3-3.5,1-5,1.9l-1.7,3.6l-0.101,0.1h-0.1h-0.1l-4.6,1.9h-0.301l-2.3-0.5c-1.8-0.3-3.2-0.8-4.101-1.4
		c-1.199-0.6-2.5-0.7-3.899-0.3c-1.2,1.7-1.8,3.8-1.7,6.1c0.1,1.2,0.4,2,0.7,2.2l0.7-0.1l0.8-0.5l0.2,3.2c0,1.1-0.4,1.9-1.2,2.5
		c-0.5,0.4-1.399,0.8-2.7,1.2l-0.8,0.2c-1,0.4-3.101,3.1-6.2,8v0.1h-0.1l-3,1.8c0.5,0,0.8,0.2,0.699,0.6
		c-0.1,0.4-0.399,0.5-1.199,0.6l-8.5-0.2c-9.5-0.3-16.9,2.3-22.2,7.7l-0.101,0.1l-0.199,0.1h-0.1l-3.5,0.4l-0.201,0.1h-0.199l-1-2.4
		l-3.6,0.9c-1.9,0.1-4.4-0.4-7.2-1.8c-2.6-1.1-4.9-2.6-7.2-4.4c-1.5-1.2-3.4-2-5.6-2.4l-3.2-0.3l-3.6,0.5c-2.6,0.4-5.2,0.4-7.6,0.2
		c-2.9-0.2-6.4-1-10.6-2.3l-0.3,0.6h0.1h0.1l0.1,0.1v0.1l0.1,1l0.9,1.9l2.1,2.6l0.1,0.3l-0.4,1.9v0.1h-0.1l-1.2,1.6l1.3,1.3
		c0.5,0.5,0.8,0.9,0.8,1.3l0.3,1.9l1.5,1.5v0.2l0.2,1.3v1l0.9,0.7l0.6-0.2l0.1-0.3c0.3-0.8,0.8-1.2,1.5-1.3l0.8-0.3l5.3-0.5l2.1-0.8
		l0.2-0.1l0.3-0.2l1.1,2.4h0.1l0,0c0.1,0.6,0,1.1-0.3,1.6l-2.9,4.1l0.2,0.7l1.3,1.3l1.3,0.8h0.1c0.6,0.8,1.1,1.3,1.7,1.5
		c0.7,0.2,1.4,0.8,2,1.6l0.1,0.3l1,0.4l0.3,0.1h0.1l0.3,1.1l0,0l0.1,1.1l0.4,1.6l2.5,0.4h0.2l0.1,0.1v0.1l0.1,0.2l0.7,1.4l2,0.7
		l1.4-0.7l-0.2-0.8l-1.3-1.2l0.2-0.2v-0.2l1.1-2.1h2.4l0.1,0.1l3.4,1.2l1.9-0.3l1.5-1.4c1.7-2.1,2.8-3,3.5-2.5l0.8-0.1
		c0.9,0,1.4,0.1,1.7,0.2c0.1,0.2,0.2,0.4,0.2,0.6c0,0.4,0.401,1.2,1,2.3v0.1v0.1l0.3,1.4v0.3l-0.399,1.6l0,0v0.1l-0.101,0.1l-1.7,2
		l-0.1,0.1l0,0l-3.6,1.6l-0.5,1l-0.5,2.9l0.3,1.4l0.9,1.5l0.4,0.3l1.2,0.8h4.201l3.5-0.5l0.5-0.5c0.5-0.6,1-0.8,1.299-0.8l2.4,0.4
		l0.2-0.4c-0.2-0.7-0.2-1.3,0.2-1.9l1-1.7v-3.2v-0.1l1.8-5.2l0.101-0.1v-0.1h0.1v-0.1l3.1-2.5l0.2-0.2l2.7,1.2l0,0
		c1.4,1,2.1,1.8,2.1,2.3l-0.199,2.2l-0.9,1.4l-0.7,2v2.2l0.7,1l0.9-0.1l0.199-0.1l1.5,0.1c0.801,0.4,1.301,1.1,1.7,2.1l0.899,0.3
		h0.101l0,0h0.101l3.399,1.6l1.5,0.5l2.101-0.3l0.899-1.2l1.2-4.9l0.1-2.7v-0.2l0.2-0.1l0.101-0.1l1.899-1.6l1.101-1.4l0.1-0.1
		l2-0.9l1.199-0.7l1.5-0.6l-0.799-3l3.399,0.4l0,0v0.1l0,0l1.8,0.7l0,0v-0.1l0.5-1.9v-0.3l0.301,0.1h0.199l1.6,0.4h0.801l1.5-1.7
		h0.1l0.1-0.1h0.101l2-0.4l1.7-1.6l0.9-1.3v-1.6c0-0.6,0.299-1,0.899-1.3l0,0h0.2h0.1l1.9,0.2l0.8-0.5l0.3-1.4l2-0.6h0.1h0.101l0,0
		l2.5,0.3l2-0.5l1.2-1.2l0.8-1.6l-1.5-1.6v-0.1l0,0l-0.3-1.2l0,0l-0.4-1.8v-0.1l0.9-1.6c0-0.5,0.3-1.2,1.1-2l1.1-2.2v-0.1h0.101
		l1-1.6l1.5-3l1.399,2l0.101,0.1v0.1l0.5,2v0.1l0.3,2l1.4,0.6h0.1l0,0l0,0l0.4,0.2l0.1-0.1l1.2-2.1l0.7-2l0.3,0.1l0.3,0.1l2.899,1
		l1.401-1.1l0.099-0.1h0.2l1.4-0.1l1-1.7v-2.1l0.7-3.2l0.199,0.1h0.301l2.199,0.5l1-1.8h0.101h0.2l2-0.2h0.3v0.1l0.2,0.1l1,1.4v0.1
		l0.101,0.1v0.2l0.199,2l1,0.9l1.399-1.3l0.301,0.4c0.5,0.5,0.699,1,0.699,1.6v1.8l-0.699,1.8l0.5,0.8l1,1.1l4.199,0.6l0.101,0.1
		l0,0l0.2,0.1l0,0l0.3,0.3l1.2-1.7h0.101l1-1l-0.401-1.5l-1.099-6.4l2.899,1.4h0.101h0.099l1.301,1.6l0.8,0.8l1.2-0.8l4.199-4.6l0,0
		h0.101l1.5-1.1l1.7-2.4l0.101-0.2l2.299,0.6h1.101c0-0.9,0.199-1.5,0.3-1.9l1.7-2l0.5-0.3l2,0.7l2.399-0.3l1.601-1.7l0.8-1.5
		l-0.5-0.8l-1.4,0.7l-0.1-0.1l-0.101-0.1l-1.8-1.6l-0.1-0.1l0.7-2.7l0.199-2l-0.5-1.7l-1.399-0.5v-0.1l-0.101-0.1l-0.099-0.1
		l-1.201-2.4l-0.2-0.3l-1.699,2l-1.7,1.1l-0.4,0.2l-0.1-0.1l-0.101-0.2l-1.8-1.7v-0.1l-1.299-2.8v-0.1l-0.601-2v-0.1l0,0v-3
		l-0.2-1.8l-1.4-0.5h-0.1v-0.1l-3.199-2.5l0.199-0.3l1.5-1.6v-0.1v-0.1h0.2l0,0l1.699-0.2h0.101c0.5,0,1,0.3,1.399,0.8l1.401,1.1
		l1.5-1.2l1.099-1.5v-1.3l-0.399-3.2l-0.3-1.3l-2.2-0.4v-1.3l-2-2.5l-0.101-0.1l-1-1.8l-0.199-0.2v-0.2l0,0l2.199-2.9v-0.1
		l0.101-0.1v-0.1h0.2l0.899-0.1l1.101-0.9l1.3-4h0.1v-0.1l1.601-1.8v-0.1h0.101h0.099l1.801-0.5v0.2l1.199,1l0.401,0.1l0.699-3.1
		l-0.699-2.2l-0.101-0.1v-0.2l0.3-2.5v-0.2l1.2-1.3l0.8-1.4l0.1-1.2c0-0.6-0.299-1.6-0.899-3.1l0,0l0,0v-2.4v-0.1l0.5-2.1
		c-0.399-0.9-0.7-1.6-0.7-2.1L426.12,252.613z"/>
	<path fill="#95B5D1" d="M284.821,374.413h-1.6l-0.5,1.1l0.9,0.9v0.1v0.1l0.4,1.3l0.1,0.1v0.3l-0.2,0.1l-2.2,1.1l-0.1,0.1l0,0h-0.1
		h-0.1c-1.7-0.2-2.6-0.7-2.9-1.4l-0.6-1.2l-3-0.6l-0.8-3.8c-0.6-0.1-1.1-0.4-1.4-0.8l-0.1-0.2c-0.5-0.7-0.9-1.1-1.5-1.2
		c-0.8-0.3-1.5-0.9-2.1-1.8l-1.2-0.7h-0.1l0,0l0,0l-1.6-1.6l0,0l-0.4-1.4v-0.1l3.2-4.4c0.1-0.3,0.2-0.5,0.1-0.6l-0.6-1.4l-1.7,0.7
		h-0.1v0.1h-0.1l-4.4,0.3l-1.7,0.4l-0.6,0.6l-0.3,0.6c-0.4,0.5-1,0.8-1.9,0.6l0,0l-0.1-0.1l-1.5-1.1l-0.1-2.5
		c-0.8-0.6-1.3-1.2-1.5-1.7l-0.4-2.2l-1-1.2l-1.1-0.9l-0.5-0.3l1.8-2.3l0.4-1.3l-2-2.5h-0.1v-0.1l-0.9-2v-0.1l0,0l-0.2-1l-1.3-1
		v-0.1l0,0l0,0l-1.4-1.5l-1.8-0.3l-2,0.6l-0.3,0.4l-0.3,2.8v3.1l-0.3,0.1l-1.9,0.7l0,0v0.1l0,0l-1.8,0.1c-0.9,0.5-1.9,1-3,1.4
		l-0.2,0.1l0,0h-0.1l-3.4-0.8l-1.4,1.5c-0.3,0.4-1,0.8-1.9,1l-2.1,1.7l-1.1,1.7v0.1l-0.1,0.1c-0.6,0.9-1.1,1.6-1.5,1.9l-1.2,1.5v0.1
		l-0.1,0.1l-0.7,0.5c-0.5,0.2-1,0.3-1.4,0.3l-2.5-0.2l-0.6,0.9l-0.9,1.6l0.4,1.6l-0.2,3.9l0.7,1.2v0.1l0.3,0.9h1.4l2.4,0.5l3.1,0.2
		l1.4-0.2h0.2h0.1l2.7,1l0,0h0.1l1.4,1.1l3,1.1h0.1l2,1.2l4.9,4.5l2.2,1l0.9-0.4l0.9-1.7l-0.5-2.7c0-0.8,0.6-1.3,1.8-1.8l0.2-0.1
		l6.1,3.6l0.7-0.2l1.4-0.8h0.2l0.8,0.1l1.2-1l0.2-0.1l0.3,0.2l3.6,2.5l0.1,0.1l2.3,1.9c0.6,0.4,1.4,1.1,2.1,2.1l1.1,1.2l0.9-0.1
		l1-1.9l2.1,1.5h0.1h0.1l0,0l1.7,2.1l4.5,3.4l0,0l1.3,1.5l3.9-1.1l0.2,2.9l1.7,1.7l0,0v0.1l1.4,2.1v0.1v0.1v0.1l1.5,6.9l1.5,2.8
		l-2,5.1v0.3l-1.7,0.4v1.5l-0.1,0.1l-1.7,2.8h-0.2l-2.4,0.2l-2.4,2c0.3,0.3,0.7,0.5,1.4,0.8c1,0.3,1.1,1.1,0.6,2.5v0.1l-1.7,1.7
		h-0.1l-0.1,0.199h-0.1h-0.1l-4.8-0.7l-0.1,1.7l0.5,3.601l4,1.7v0.199l0,0l1.5-0.5l0.1-0.1l0.2-0.1l0.1,0.199h0.1l1.1,0.601h1.7
		l0.6-0.101l-0.6-1.899l0,0l0,0l-0.4-2v-0.101v-0.199l0.1-0.101v-0.1l0.6-0.7l0.2-0.2l0,0l0.1-0.1l1.1-1.5l0.1-0.1l1.8-1.4h0.1v-0.1
		h0.1l0,0l2.2-0.3v0.6c0,0.7,0.1,1.2,0.2,1.5l0.4,0.899l0.6,1.3l2,1.101l5.5,0.5h0.2h0.3v0.3v0.2l-0.2,1.8l1.601,1.7l1.199,0.5
		l0.2,0.1v0.101l0.101,0.199v0.7v1l-0.5,2l0.699,0.5c0.801-0.1,1.5-0.1,2.2,0.4l2.3,1.1l1.4-1.1l1.5-1.601l0.1-0.699l0.1-0.2
		l0.201-0.101l0.199-0.199v-0.2l-0.5-2.101l-0.1-1.1l-0.1-0.1v-0.101l0.1-0.1v-0.101l0.8-1.3l0.101-0.1l0,0l1.6-1.101h0.1h3.301
		l0.5-0.199l-0.101-1.7l-0.5-1.5l-1.101-1.8l-0.1-0.1v-0.1v-2.5v-0.1l0,0l0.6-1.5l0,0l0.101-0.1l0,0l2.7-3.9l0.1-0.1h0.1l0.201-0.1
		h0.6l1,0.1l2.3,1.3l1.5,0.4l0.2-0.7l-0.301-0.2v-0.3c0-0.6,0.301-1.1,0.9-1.6l1.801-1.3l0.1-0.1l0,0v-0.1c1-0.3,1.6-0.5,2-0.5
		l1.6-0.2h0.2l0,0l1,0.2l0.7-2.5v-1.7c0-1.1,0-1.8,0.3-2l0.7-1.3l-0.9-1.2l-1.199-0.8l-2.5-0.7c-0.5,0-1.4-0.5-2.9-1.8l-1.5-0.7
		h-0.1l-0.101-0.1l-1.8-2.2h-1.7l-0.101-0.1h-0.1l-1.5-0.8l-0.9,1.2l-0.199,4.7l0.3,1.8h0.7l0.1,0.1l1.4,0.4v0.1v0.1l0.699,1.7
		h0.101v0.1l0,0v0.1l-0.399,3.1v0.2v0.1l-0.101,0.1c-0.5,0.3-0.899,0.5-1.399,0.8l-0.201,0.1l-0.1-0.1h-0.1l-0.7-0.2l-1.601,0.6
		h-0.1l0.1,0.3l0.101,0.1l0.3,2.7c0,0.4-0.199,0.6-0.6,0.7h-1.2c-0.601-0.1-0.899-0.3-1.2-0.6l-1.199-0.9l-0.101-0.1h-0.101v-0.1
		l-0.699-1.7c-0.2-0.2-0.7-0.5-1.7-0.8h-0.101h-0.1l-1.4-1h-0.199v-0.2l0,0l-0.4-1.7l0.2-1.3h0.101v-0.1l0,0l0.6-0.7v-0.5l-0.6-1.8
		l-1.4-1.3v-0.2l-0.4-4.1l-1-1h-0.1l-0.1-0.1l0,0l-0.801-1.9l-3.6-0.4c-0.9-0.3-1.5-0.9-1.9-1.7h-1.6c-0.6-0.2-1.2-0.6-1.9-1.3
		l-0.2-0.2c-0.4-0.4-0.8-1-1.2-1.8l0,0l-0.1-0.1l-0.3-1.6l0,0v-0.1v-0.1l0,0l0.6-3.1v-0.1l0.6-1.3v-0.1v-0.1h0.1l3.8-1.6l1.5-1.8
		l0.3-1.5l-0.2-1.1c-0.6-1.3-1-2.1-1-2.6l-0.8,0.1l-1.4-0.1c-0.3,0.1-1.1,1-2.2,2.3l-1.7,1.6h-0.1l-0.1,0.1
		c-1.3,0.3-2.2,0.5-2.7,0.3L284.821,374.413z"/>
	<path fill="#BCD0E2" d="M311.421,375.313l-1.8,5v3.3v0.1l-1,1.7l-0.2,1.2c0.2,0.7-0.101,1.3-0.8,1.7l-0.2,0.1h-0.101l-0.1-0.1
		l-2.5-0.3l-1.3,1.2l-3.8,0.6l0,0h-1.6l1,0.7l3.6,0.4h0.199h0.201l0.1,0.1v0.1l0.9,2.2l1,0.7c0.299,0.4,0.5,1,0.5,2.1l0.1,2.7
		l1.199,1.1h0.101v0.1h0.101l0.6,2v1.1l-0.7,1l-0.2,0.9l0.301,1l1.199,0.8c1.301,0.5,2,0.8,2.301,1.3l0.699,1.5
		c0.801,0.4,1.2,0.8,1.4,1.2l0.9,0.3h0.1l-0.4-2.2c-0.1-0.5-0.1-1,0.1-1.2c0.201-0.3,0.4-0.5,0.801-0.6l1.5-0.5l0,0l0.1-0.1h0.1
		l0.101,0.1l0.7,0.2l0.9-0.5v-0.2l0.299-2.5l-0.6-1.2l-0.8-0.4l-1-0.1h-0.2l-0.199-0.1l-0.4-2.6l0.1-5.1l0.2-0.2l1.5-2.1l2.2,1.2
		h1.3l1-6.5c-0.3-0.7-0.601-1.2-1.2-1.5l-0.6-0.1v0.1h-0.301l-1.6,0.3l-0.1-0.2l-0.1-0.1l-1.101-1.4v-0.1l-0.101-0.1v-2.5l0.4-1.4
		l0.4-0.6c0-0.4,0.1-0.8,0.5-1.3l0.4-0.5l0.1-1.7l-1.5-1.4l-2-1L311.421,375.313z"/>
	<path fill="#78A3C6" d="M243.121,339.313l0.1-0.1h0.1v-0.1l-3.2-9.1l-2-1.6v-0.2l-0.5-3.7l-4.2-0.6h-0.1h-0.2v-0.1l-0.1-0.2v-0.1
		c-0.5-1.4-1.8-2.9-3.8-4.5c-1.1-0.9-2.2-1.5-3.1-1.7c-0.7-0.4-1.4-0.7-1.9-1.1c-1.3-0.9-5.8-1.6-13.7-1.8h-0.3l0,0l-0.9-1.4
		c-0.4-0.9-0.7-1.7-0.8-2.6c0-1.1,1.3-4.7,4.1-10.6l-1.4-4.4l0,0l-1.5-7c-0.2-1-1.9-1.9-4.9-2.8c-0.6-0.2-1.2-0.4-1.8-0.8
		c-1.1-0.5-1.9-1.4-2.3-2.5c-0.6-1.3-1.6-2.4-3-3l-0.1-0.1l-0.1-0.1l-1.2-6.2l-4.8,0.5l-0.5,1.3c-0.6,2.1-1.2,3.1-1.9,3.1l-3.1,1
		c-1.9,0.7-3.1,1.5-3.7,2.4c-0.3,0.4-0.6,1.6-0.8,3.2c-0.3,1.8-0.6,3.1-1,3.9c-0.6,1.3-1.5,2.3-2.9,2.8c-2.6,1-7-0.7-13.1-5
		l-8.2,10.5l1,4.3h0.1l0.1,0.2l-0.2,0.1v0.1c-0.4,0.6-1,1-1.7,1.1c-0.8,0.2-1.601-0.1-2.5-0.7c-0.8-0.6-3.101-1.1-6.8-1.3l-1.7-0.1
		l0,0l-2.5-0.2l-2.7,0.5l1.2,1.7c1,1.3,1.399,2.1,1.3,2.6l-1.1,6.5l0.5,3.5h0.1v0.1l-0.1,0.1l0,0l-2,6.5c-0.1,0.6-0.3,0.9-0.5,0.8
		h-0.2v-0.1l-0.3-0.6c-0.4-0.8-0.6-1.1-0.9-1c-0.2,0.1-0.5,0.5-0.6,1.4c-0.4,1.8-1.5,3.3-3.2,4.9l-1.8,1.4l-0.9,0.5l0,0h-0.1
		l-6.5,0.1l-2.5,2.4h-0.1h-0.2h-0.1l-6.9-1c-1.1,1.2-2.2,1.6-3.3,1.4c-1-0.3-2.7,0.1-5.1,1l-2.8,3.3l-0.1,0.2l-4.4,0.1v-3.7h-2.8
		l-0.5,1.6l-2.1,0.5h-0.2l0,0l-0.1-0.1h-0.101c-1.3-0.8-2.899-1.4-4.5-1.6c-0.899-0.1-2,0.5-3.6,1.9c-1.7,1.4-2.9,2.7-3.5,3.9
		c0.3,0.2,0.5,0.6,0.5,1.2c0.2,0.7,0.3,1.3,0.3,2.1c-0.1,0.8-0.4,1.3-0.8,1.7c-0.5,0.3-0.8,1.2-1.1,2.8l1.6,1.1l2.2-2.3l2.8,3.1v0.2
		l0.6,5.5v0.1h-0.1l-1.6,7.6h-0.4c-2.3,0-3.8,0.1-4.4,0.5c0.101,0.5,1.101,1.3,2.8,2.4l1.4-0.2h0.3l0.101,0.1l3.3,3.2
		c1.3,1.1,1.2,3-0.5,5.8l0.5,3.1l1.3,0.3h5.1l-2.6,2.4l1.5,0.8l0,0l2,1.1l5.4,2.3l0.1,0.1h0.2l0.5,8.2c0.1,1.6,1.3,2.8,3.7,3.6
		l0.399-0.2h0.101h0.1l5.6,0.8h0.4v-0.1l0.1-0.2c0.6-1.1,1-1.9,1-2.1v-0.2c-0.1-0.9,0.3-1.7,1.1-2.3c0.8-0.6,1.3-1.2,1.6-1.9
		l0.101-0.1c0.3-0.8,1.3-1,3-0.5h0.1l0,0l1.9,1.1l6.3,1.2l3.9-0.3l2.8-1.2c0.5-0.7,0.899-1,1.2-1.2c0.5-0.1,1.2,0.1,2,0.8l0.4,0.2
		c0.4,0.3,0.7,0.9,1.1,2l2,1.5h1.5h0.1h0.2h0.1l2.1,0.9l3.9-0.3l2.2-0.7l5.7,0.5l2.5-0.7l2.9-1.2c0.6-0.4,1.3-0.7,2.3-1h5.5l2-0.7
		c0.8-0.5,1.5-0.8,2.1-0.8h3.2l1.5,1.1l4.3,0.9c0.6,0,1.2,0.5,2.2,1.4l1.8,1.2l0.2,0.2l4.1,0.1l0,0h0.1l1.9,1l2.5,0.5h0.1l2.1,0.3
		l0.6-1.2l-0.9-2l-0.4-2v-0.1h-0.1l0.3-0.3l1.4-1.9v-0.1l0,0h0.1v-0.1l1.4-1l0,0l-0.3-0.6l-0.6-2c0-0.3-0.3-0.5-0.9-0.9l0,0
		l-1.5-1.6l-1.9-1.6l-0.1-0.2l-0.2-0.1l0.1-0.1v-0.2l0.3-1.9v-1.4l-0.9-2.4l2.3-0.5l1.1-1.1h2.8l2.8-0.4h0.1l1.9,0.2l2.2-0.8
		l2.5-0.3l1.6-0.7h0.1l4.3-0.8l0.7-0.7l-0.2-0.8l-0.8-1.4v-0.1l-0.1-0.1v-0.1l0.2-1.5l0.1-0.1v-2.1l-0.4-1.8l0,0v-0.1l1-2
		c0.4-0.9,0.9-1.4,1.5-1.4l2.6,0.2c0.4,0,0.9-0.2,1.4-0.6l3.9-5.3v-0.1l0.1-0.1l2.1-1.7l0.2-0.2c0.8-0.2,1.3-0.5,1.6-0.7l0.5-0.5
		c0.7-0.9,1.3-1.3,1.7-1.3l3.4,0.7l2.9-1.4l0,0h0.1l0,0h0.1l1.7-0.2l1.4-0.6v-2.3l0.4-2.9v-0.1l0,0v-0.1l0.5-0.8V339.313z"/>
	<path fill="#8EB0CE" d="M246.521,373.513l-0.9,0.7c0,0.4,0.2,1.3,0.5,2.6v0.1l0.1,0.1h-0.1l-1.1,2.5l-1.5,0.6l-0.3,0.1h-0.1
		l-2.6-1.2h-0.1v-0.1l-4.9-4.5l-1.9-1.1l-3-1.1v-0.1l0,0h-0.1l0,0l-1.4-1l-2.5-0.8l-1.4,0.1h-0.1l-3.2-0.2h-0.1l-2.3-0.5h-1.4
		l-1.1,0.8c-0.6,0.3-1.4,0.4-2.4,0.6l-2.1,0.4l-1.8,0.6l-0.1,0.1v0.1v-0.1l-2.2,0.2l-2.3,0.9l0,0h-0.3l-1.9-0.2l-2.9,0.4h-2.4l-1,1
		h-0.1l-1.2,0.3l0.5,1.2v1.9l-0.3,1.7l1.7,1.4h0.1l0,0l0,0l1.4,1.6c0.9,0.7,1.3,1.2,1.3,1.8l0.5,1.5l0.7,1.5c-0.1,0-0.1,0.1-0.2,0.1
		l-1.9,1.4l-1.3,1.7l0.3,1.5l0.9,2.1l0.1,0.2l0,0v0.1l-0.2,0.8c-0.2,0.5-0.4,0.9-0.7,1.1c-0.6,0.5-1.6,0.5-3.2,0l-2.5-0.5h-0.1l0,0
		h-0.1l-1.8-0.9l-2.9-0.1l0.1,0.1l-0.3,5c-0.1,0.7-0.6,1-1.3,1.1c-0.3,0.1-0.5,0.5-0.4,1.3v0.1h-0.1l-0.2,1.3
		c0.7,0.6,1.2,1.1,1.4,1.5l0.5,2.4v0.9c-0.1,0.5-0.2,0.9-0.4,1.3l-0.7,2l-1.3,2.5v0.5l0.2,1.2l1.3,1.7c0.4,0.5,0.6,0.8,0.7,1.1
		l1.2,1.7l1.8,2c0.7,0.699,1.2,1,1.4,1l1.9-1.2c0.4-0.3,0.7-0.5,1.2-0.5c0.4,0,1,0.3,1.9,0.899l0,0h0.1v0.101l1,1.2l0.5,1.199
		l0.4,0.5l0.3,0.2l1.3,0.9l0.7,0.1c0.4,0.101,0.8,0.4,1.1,0.8c0.2,0.301,1.3,0.7,3.2,1.2h0.1l3,1.101h0.1h0.1l2.1,1l3.6,0.899
		l0.1,0.101l4.7,0.199l2.1-0.8h1.9v0.101l0.1,0.1l1.6,2l0,0v0.1l1,1.601l0.8,0.899l1.1,0.5l0.1,0.101l0,0l0.1,0.1l0.9,2v0.101h0.1
		v0.1l0.5,2.2l1.4,0.5h0.1h0.1l0,0l1.1,0.7l1.5-0.301l0.4-1.5v-0.1l0.1-0.1l1.7-1.7l1.9,0.5v0.2l0.9,2l1.9-0.7l0.2-1.9v-0.1v-0.101
		l0.1-0.1l1.3-0.7l-0.3-2.8v-0.2v-0.1l0,0l1.5-3.101l1.5-0.6l-0.6-2.8h1.5l-0.1-1.3l-0.8-2.7l0,0v-0.2l0.2-1.9v-0.3l0.2-0.1l1-1.3
		l0.2-0.2h0.3l2.7,0.5h0.1l2.2,0.6l1.9-0.6l1.1,2.2l0.1,0.1v1.6l0.3,1.5c0.2,0.601,0.6,1,1,1.101h0.2c0.9,0.2,1.4,0.6,1.5,1.2
		c0.1,0.5,0.5,1.199,1.2,2l0.9,1.3l0,0v0.1l0.6,1.101l0.9-0.101l1.7-1.5l1.1,2.3l2.2,0.7h0.1l0.1,0.101l1.1,2l0.5,0.3l0.1-1.9v-0.1
		v-0.3l4.4-0.101l0.1-0.399c0.1-0.2,0.1-0.601-0.1-0.9c-0.3-0.6-0.4-1.1-0.5-1.8c-0.1-0.8,0-1.4,0.2-1.601
		c0.3-0.399,0.5-0.399,1-0.3l1.8,0.601l0.2-1.301l-3.3-1.5h-0.2l-0.1-0.199v-0.101v-0.1l-0.5-4l0.1-2.5v-0.3v-0.2l5.5,0.7l1.4-1.3
		c0.3-0.5,0.2-0.9,0-1c-1.4-0.5-2.1-1.1-2.1-1.7c0-0.3,0.1-0.7,0.6-0.9l2.3-2.3l2.5-0.1l1.3-2.2v-2.1l1.9-0.4c0.5-1.5,0.8-2.3,1-2.6
		l0.8-1.7l-1.4-2.5v-0.1l0,0v-0.1l-0.9-3.4v-0.1l-0.6-3.5l-1.2-2l-1.8-1.8v-0.1v-0.1l-0.1-0.1l-0.1-1.9l-3.3,1l-0.1-0.1l-1.5-1.7
		l-4.5-3.4h-0.1l-1.7-2.2l-1.1-0.7l-0.7,1.1v0.2l-0.1,0.1h-0.1h-0.2l-1.4,0.1l-0.2,0.1h-0.1l-3.3-3.6c-0.7-0.3-1.4-1-2.4-2l-1.5-1.1
		l-0.1-0.1l-1.7-1l-1,0.8l-0.1,0.2l-0.1-0.1h-0.1l-0.9-0.2l-1,0.5l-0.1,0.1l-0.1,0.1h-0.1l-1.4,0.2
		C250.421,375.813,248.521,374.713,246.521,373.513z"/>
	<path fill="#7BA5C6" d="M252.421,422.613l-2.3-0.7l-2.4-0.3l-0.8,0.899l-0.2,1.7l0.1,0.1l0.7,2.601l0.1,2v0.6h-1.2l0.5,2.4
		l-1.9,0.7l-0.8,1.5l1,0.8l0.2,0.1l0,0l3.5,2.8l0.1,0.101h0.1v0.1v0.101l0.5,2.5l1.6,2.3c0.4,0.6,0.9,1.2,1.8,2h0.1l0.1,0.1v0.101
		l-0.1,0.199v2.2c0.3,0.601,0.4,1.9,0.4,3.8c0.9,1.301,1.3,2.2,1.3,2.801c0,0.399,0.3,1.199,0.8,2.3l0,0v0.1l0,0
		c0.2,1.4,0.1,2.601-0.2,3.601c-0.3,0.699,0.1,2,1.2,3.8l0.1,0.1l0.1,0.2l-0.1,0.2l-1.6,3.5c0.3,0.8,0.4,1.399,0.4,1.8l-0.4,3.3
		c-0.2,1.101-0.2,1.7,0.3,1.9l0.6,0.399c0.9,0.4,1.2,0.9,1.2,1.4l-0.1,1.7l0.5,0.2l0.1,0.1l0.3-0.3c0.3-0.3,0.6-0.7,0.7-1.2l0.2-0.3
		l0.1-0.2c0.4-0.2,0.6-0.5,0.9-0.9c0.1-0.6,0.1-1.199-0.1-1.899l-0.2-0.5l0.5-0.101c1.6-0.399,2.5-0.3,2.8,0.4l0.8,2v0.1v0.101
		l0.4,3.3l1.3,0.7h0.1h0.1l0.8,0.7l0.8-0.9l0.9-0.7h0.3c0.7,0.2,1.1,0.7,1.3,1.4l0.4,2.6l0.1,0.4l2.7,5.8l1.1,1.1l0.1,0.101v0.1
		l0.5,2.4l0,0l0.2,2.3l0.1,0.2c0.7-1,1.3-1.5,1.7-1.3c0.4,0.1,0.5,0.3,0.5,0.699v0.601v1.8v0.5c0.5,0.1,0.9,0,1-0.3l1-1.4l1.1-1.1
		c0.7-0.5,1.4-0.9,2.2-0.9h0.1l2.1,0.5l0.6-0.3l1.1-1.4l-0.2-2.199c-0.7-1.2-1-2.2-0.8-2.9l0.3-1.8v-0.2l0.1-0.2l0,0l1.9-1.1h0.1
		l0,0l1.4-0.9l1.6-2.3l0.2-1.7l-1.8-4.2l4,1.801v-1.7l0,0v-0.101l1.5-1.3l2.9-0.8h0.2l1.7,3.7v0.2l-0.2,1.399l0.2,1.3
		c0.2,0.601,0.601,0.9,0.899,0.9c0.4,0,0.801-0.3,1.201-0.8l0.1-0.2l0,0h0.1l2.4-0.8l0,0h0.1c1.301,0,1.9,0.3,2.2,0.899l0.2,2.7
		v0.101l0.5,0.1l1,0.3l1.5-0.1l2.5-0.7l1.5-1.3l0.1-1.101l-0.699-0.8l-2.601-0.899l0,0l-0.2-0.101l0,0v-0.1l-3-3l0.301-0.2l1.5-1.3
		l0.1-0.101l0,0l1.5-0.6l0,0h0.3l2,0.4h0.101l0.1,0.1v-0.8l-0.9-1.5l-1.4-0.7l-1.899-2.8l0,0l-0.101-0.101v-0.1l-0.899-3.3v-2.5
		l1.601-1.5h2.399l5.601,0.5l2.6-3.7v-0.2h0.199l2.101-1.1l1.101-2.2l0.1-0.1l2.5-2.101l1.199-2.2v-0.1h0.101v-0.1l0,0l1-1l1.2-2
		l0.4-3.101v-0.3l0.1-0.1l1.6-1.101l0.4-0.399l-2.4-0.4l-4,0.2l-0.1-0.101l-1.5-1.199h-0.2v-0.101l0,0l-0.8-1.2l-0.2,0.101
		l-0.101,0.2c-0.199,0.3-0.699,0.399-1.299,0.399l-0.601,0.3c-0.2,0.101-0.3,0.2-0.601,0.101c-0.199,0-0.299-0.3-0.5-0.8
		c-0.1-0.5-0.299-1-0.899-1.5l-0.101-0.101v-0.1h-0.1l-0.5-1.3h-0.4l-1.5,1l-0.1,0.1h-0.1l-3.5,0.7h-0.2l-0.2-0.101l-2.3-1.6l0,0
		l-0.101-0.1v-0.101h-0.1l-0.6-1.2l-1.7,1.801c-1.2,1.399-2.101,1.8-2.7,1.399l-2.3-1.2l-1.601-0.199l-0.199,0.1l-1.5-1.1
		l-0.1-0.101l-0.301-0.1l0.7-2.7v-0.9l-0.899-0.399h-0.101l-2.1-2.3l0.1-1.7l-5.2-0.5l-2-1.101c-0.5-0.3-0.9-0.899-1.2-1.899
		l-0.3-0.7l-0.4-1.5l-0.7,0.1l-1.6,1.3l-1.9,2.3l0.4,1.7l0.6,2.199v0.101h0.1l-0.1,0.1v0.101c-0.2,0.6-0.8,0.899-1.7,0.899h-2
		l-1.2-0.6l-1.5,0.6l-0.3,0.101l-0.2-0.101l-0.2,1.4l-0.1,0.2v0.3h-0.3l-2.5-0.8c0,0.8,0.1,1.399,0.5,2.1c0.3,0.7,0.4,1.2,0.1,1.8
		l-0.3,0.8c-0.3,0.301-1.2,0.4-2.5,0.301h-1.7l-0.1,2.8l-2.2-0.8h-0.1l-0.1-0.101l-1.1-2.1l-2.4-0.8l-0.6-1.301l-0.9,0.7h-0.1
		l-1.5,0.3h-0.4l-0.8-1.8l-0.8-1.1l-0.1-0.101c-0.8-1-1.2-1.899-1.4-2.399c0-0.101-0.2-0.3-0.7-0.4l-0.4-0.1
		c-0.7-0.3-1.2-0.9-1.5-1.8l-0.4-1.7v-1.4l-0.7-1.3l-1.2,0.4h-0.1h-0.1H252.421z"/>
	<path fill="#87ACCB" d="M117.621,389.913v0.1c-0.4,0.9-1.101,1.5-1.9,2.2c-0.6,0.3-0.8,0.8-0.8,1.4v0.3c0,0.5-0.3,1.3-1.1,2.5
		l-0.1,0.5c-0.2,0.3-0.6,0.5-1.3,0.5l-5.7-0.7v0.1l-0.4,1.3v0.1l-0.1,0.1l0,0c-1.5,2.1-2.5,3.6-2.6,4.6c-0.101,0.5,0.5,2.3,1.8,5.4
		l0.9,2.1c0.4,1,0.1,2.2-0.8,3.5l-1.8,1.8h-3l-0.6-3.3l-0.8,4.1l1.3,2c0.1,0.3,0.1,0.5,0,0.6l-0.2,0.2c-0.4,0.3-1,1.3-1.6,3
		c-0.6,1.5-0.3,3,0.9,4.601h2.4c0.8,0.2,2,1.5,3.7,3.8l0.1,0.2l0,0c0,0.7,0.3,1.2,0.8,1.6l5.3,4.9v0.1l2.4,3h1.4l1.5-2.7l0.2-0.199
		l0.101-0.101l3.7,0.9v0.1v0.2l0.5,2.5l4.4,5.1l1.5,0.601l0.1,0.1l0.7,0.4l0.101,0.1l3.3,4.9l2.7-0.4h0.2h0.1l0.2,0.2l0.1,0.2
		l2.3,4.8l2.8,1.7l2.3,0.6l1.1,3.101h1.7l0.1,0.1l0,0l3.601,2v0.1l0,0l0.1,0.101l2.6,3.2l3.8-0.7h0.2l1.4,0.6h0.1l2.4,2.101l4.3,0.3
		l2.6-0.4l0,0c3.5-0.6,5.7-0.3,6.5,0.601c0.5,0.8,0.2,1.6-1,2.6l-1,1c-0.3,0.5,0.1,1.3,1.4,2.5l0.1,0.2h-0.1l0.8,0.6l0.3-0.3
		c2.5-4.7,4.5-7.3,5.9-7.8c1.5-0.5,4.6,0.8,9.5,3.8l6,1.1l-0.1,0.2v0.2l-0.3,2.8l3,0.4l-0.1,3.8c0.9,1.7,1.6,2.7,2,3
		c0.6,0.4,3.6,0.4,8.9,0l3.1-1.6l3-4.2l3.5-0.101l1.7-0.5l6.6-3.8h0.1l0.1-0.1l0,0c3.8-0.4,6-0.5,6.6,0l4.3,3.6l1.3,0.5l0.2,0.2
		l1.7,0.7l0.1,0.1v-0.3v-0.1v-0.101v-0.1l0.7-3c-0.3-0.9-0.3-1.601,0-2.2c0.2-0.5,0.7-0.8,1.5-1c1.5-0.3,2.9,1,4.3,3.8l0.2,0.101
		h0.1l2.5-1.101c0.5-0.1,0.7-0.6,0.7-1.1l-0.5-1.8v-0.101c-0.2-0.8,0-1.5,0.8-1.8l0.9-0.7l2.2-2.399l1.5-3.301
		c-1.3-2.1-1.7-3.6-1.3-4.6l0.3-2.8c-0.6-1.2-0.9-2-0.9-2.7c0-0.3-0.4-1.2-1.2-2.4h-0.1v-0.3l-0.3-3.6c-0.1-0.601-0.2-1.4,0-2.4
		c-0.9-0.7-1.5-1.399-1.9-2.1l-1.5-2l-0.1-0.101v-0.199v-0.101l-0.5-2.5l-1.5-1.2v0.101l-2.9-2.3v0.199l0.4,3.101v0.1v0.3l-1.5,0.7
		l-0.2,1.9v0.3l-3.5,1.4l-1.2-2.801l-0.7-0.199l-1.1,1.1l-0.7,2l-2.5,0.7l-1.4-1l-2-0.601l-0.6-2.8l-0.8-1.7l-1.2-0.5l-0.1-0.199
		l-0.9-1.101l0,0l-0.9-1.6l-1.4-1.8h-1.2l-2,0.699l-0.1,0.101l-5.1-0.3l-3.9-0.801c-0.3-0.199-1-0.5-2.1-1.199l-3-1
		c-2.3-0.601-3.6-1.101-3.9-1.7l-0.5-0.3l-0.7-0.2l-1.8-1l-0.2-0.101c-0.3-0.399-0.6-0.699-0.8-1.1l-0.4-0.9l-0.8-1.199l-1.3-0.601
		l-0.5,0.3l-0.5,0.4l-0.3,0.2c-0.5,0.399-1,0.6-1.4,0.7c-0.8,0.199-1.6-0.2-2.5-1.2l-1.9-2c-0.7-0.9-1.2-1.6-1.4-2.1l-0.5-0.8
		c-0.7-0.7-1.2-1.4-1.5-2c-0.3-0.9-0.4-1.7-0.1-2.5v-0.1l0,0l1.3-2.2l0.7-2.3l0.3-1.5l-0.5-2.3l-1.5-1.3l0.3-1.9
		c0-1.4,0.5-2.1,1.5-2.3c0.3-0.1,0.5-0.3,0.4-0.7v-0.1l0.1-2v-0.1l0,0v-2.3h-0.2l-0.1-0.1l0,0l0,0l-0.4-0.2v-0.1h-0.1l-1.8-1.2l0,0
		h-0.1l-1.4-1.2l-4.7-0.9l0,0l-1.5-1.1h-2.8c-0.4,0-0.9,0.3-1.6,0.7h-0.1l-2.2,0.8h-5.5c-0.8,0.2-1.5,0.4-1.9,0.8
		c-0.6,0.5-1.7,0.9-3.2,1.4l-2.6,0.6v0.1h-0.2l-3.7-0.4l-0.3-0.1l0.1,0.1l-0.1-0.1l-1.3-0.1l-2.2,0.7l-4.4,0.4h-0.1l-0.1-0.1
		l-2.2-0.8h-1.8c-0.8-0.2-1.7-0.8-2.7-2l-0.1-0.2c-0.2-0.9-0.5-1.3-0.6-1.5l-0.5-0.3l-0.9-0.5l-0.8,0.8l-0.1,0.2l-3.2,1.3h-0.1h-0.2
		l-3.9,0.4c-0.6,0-1.7-0.3-3.2-0.7l-3.4-0.6h-0.1l0,0l-2-1.1H117.621z"/>
	<path fill="#BBCFE2" d="M242.021,514.413l-0.4,1.3c0.6,0,1.4-0.4,2.2-1l0.1-0.1h0.2l4-0.5l2.6-1.301l1,1.4l0.2,0.1l-1.2,1.9
		l1.4,1.4v0.1v0.3l-1,4.2l2.6,1.9l4.7,0.199l-0.7,0.9c-3,3.7-4.4,5.9-4.3,6.6l1.8,0.4c2.4,0.2,3.8,0.9,4.3,1.8
		c0.6,1.2,1.2,2.4,1.7,3.8l2.7,1.5l1.7,0.301l3.5-3l1.8,2.699v0.101l0,0l0.1,0.1l0.6,2.5l1.5,0.3l0,0l2.3,0.801l0.6-0.2v-0.101
		l-0.4-2.6l-0.1-0.1l-1.3-5.9v-0.2l0.8-4.1l0.2,0.1h0.3l2.7,0.2l3.4-2.5l0.3,0.2c1.8,1.399,3,2.5,3.6,3.3c0.6-0.2,1.7-1.3,3.2-3
		l0.1-0.1l0.2-0.2l5,1.3l2.2-1.8l0.1-0.101l0.1-0.1h0.1l0.1,0.1l2.1,0.4l6.801-6l2.1,0.6l0,0l0.1,0.101l0.1,0.1l0.101,0.101
		l0.5,0.899l0.5-0.6h0.101v-0.101h0.1l2-1.1l1.5-1.4l-0.4-3.1l-0.3-0.4l-1.899,0.801l0,0c-0.601,0.199-1.101,0.399-1.801,0.399
		h-2.199c-0.701-0.1-1.101-0.3-1.4-0.7l-0.2-3.199c-0.7-0.4-1-0.601-1.3-0.601l-0.5,0.2l-0.7,0.4l-1.399,0.3h-0.4l-0.1-0.2
		l-0.801-1.4l-0.1-1.3l0,0l0.8-3.8l0,0h0.101v-0.1l0.899-1.9l-2.8-2.5l-0.1-0.1l-0.1-0.101v-2.899l0.1-0.101l1.6-4.6l-1-2.5
		l-0.9-0.2l-1.1,0.1l-1.1,1.7l-1.4-1l-1.4-0.8l-1.1-2.8l0,0l0,0l-0.4-2v-0.2l-0.1-0.1l0.3-0.2l1.3-1.8l0.3-0.2l0,0h0.1l1-0.2
		l1.1-0.3l5.2-0.2h0.101l0.699,0.3l0.2,0.101l0.8,0.3l1.4-0.601l1.199-0.899l0.601-1l0.101-0.5l-0.101-2.2l-1.101-0.2l-2.1,0.7
		c-0.6,0.7-1.3,1.2-2,1.2c-0.699,0-1.3-0.601-1.9-1.7l0,0h-0.1v-0.1l-0.1-1.4v-0.2l0.1-1.3l-1.1-2.7l-2.1,0.601l-0.9,0.8l0.3,3
		l-3.3-1.5l0.8,1.8l0.1,0.1v0.2l-0.3,2v0.2h-0.1l-1.9,2.7l0,0l-3.1,1.899l-0.3,1.801c-0.1,0.3,0.3,1.1,0.8,2.1l0.1,0.1v0.101
		l0.2,2.6v0.3l-0.1,0.101l-1.2,1.6l0,0l-0.1,0.101h-0.1l-0.9,0.6h-0.1h-0.1h-0.1h-0.1l-2.3-0.5c-0.4,0-0.9,0.2-1.4,0.6l-1,1.101
		l-0.8,1c-0.5,0.899-1.2,1.1-2.3,0.899c-0.7-0.1-0.9-0.8-0.7-1.699v-0.7l-0.1-0.7l-0.4,0.5c-0.3,0.4-0.6,0.5-1,0.5
		c-0.4-0.1-0.7-0.5-0.9-1.2v-0.1l-0.2-2.3l-0.5-2.2l-1-1l0,0l-0.1-0.101l-2.1-4.8l-0.1-0.1l-0.6-1.4v-0.1h-0.1v-0.101l-0.4-2.6
		l-0.3-0.4l-0.4,0.301c-0.7,0.8-1.2,1.3-1.4,1.3c-0.3,0-0.8-0.4-1.6-1l-1.5-0.7l-0.2-0.1l-0.1-0.101v-0.1l-0.1-0.2l-0.1-2l0,0
		l-0.3-1.5l-0.8-2h-0.8c0.1,0.8,0,1.5-0.2,2c-0.2,0.6-0.6,1-1.2,1.5c-0.2,0.7-0.5,1.2-0.9,1.6c-0.6,0.601-1.1,0.601-1.7,0.2
		l-0.3-0.1c-0.6-0.2-0.7-0.9-0.6-2.2v-0.5l-1.3-0.8c-0.5-0.2-0.8-0.8-0.9-1.7l0.5-4.5l-0.2-0.7l-1.6,1.8l-1.1,0.801l-0.3,0.699
		c0.4,0.9,0.6,1.601,0.6,2.101c0,1-0.5,1.8-1.4,2.1l-1.8,0.7l-0.5,0.3l-0.1,0.7v2.8c0.1,0.9,0.2,1.4,0.5,1.4
		c0.6,0.3,1.3,0.3,1.9-0.2l0.6-0.3l1.9,4.399v0.101l0,0v0.2c-0.7,7.899-1.4,12.399-2.3,13.6c-0.4,0.4-0.7,0.6-1.3,0.7
		c-0.7,0-1.2-0.101-1.9-0.5c-2.6,5.2-4.3,7.899-5.1,8.3h0.1c-0.4,0.1-0.6,1.4-0.5,3.7l0.6,0.5l0.2,0.2l0.2,0.199L242.021,514.413z"
		/>
	<path fill="#9CB9D3" d="M330.121,468.713l-0.7-0.3l-0.8,0.5l-0.5,0.899c-0.4,0.9-0.801,1.4-1.5,1.4c-0.4,0-0.9-0.3-1.2-0.6
		l-0.101-0.101l-0.1-0.1l0,0l-0.3-1v-0.101l-0.101-1.3l-0.6-0.1l-0.1,0.1l-0.301,1v1.4l-0.1,0.1l-0.1,0.101l-1.2,1.6l-0.2,0.2
		h-0.199l-2.4-0.2h-0.2v0.1l0,0v0.101l-0.8,1.1l0.3,0.7h0.101l-0.701,1.1h-2.199v-0.399l-0.2-0.2l-0.3-0.2l-0.4,0.7l-0.1,0.3h-1.5
		l-0.1-0.1l-0.9-0.7l-0.1-0.2v-0.1h-0.101v-0.2l-1.601-0.3l-1.199,0.5l-0.7,0.5l2,2.3l2.601,0.8l0.1,0.101l0,0l0.1,0.1l1.301,1.2
		l-0.5,2l0,0v0.3h-0.101l-1.7,1.4v0.1h-0.1l-2.801,0.8h-0.1l-1.6,0.2l0,0h-0.1l0,0h-0.101l-1.101-0.4l-0.6-0.1l-0.6,1h-0.1v0.1
		l-1.301,0.9h-0.1l0,0l-1.801,0.8h-0.1l-2.1-0.7l-4.6,0.2l-1,0.3l-0.1,0.101h-0.9l-1.1,1.5l0.2,1.7l1,2.3l1.1,0.6h0.1v0.101l0.4,0.3
		l0.7-1l0.1-0.101l0.1-0.1h0.1l1.5-0.2h0.2v0.101l1.5,0.399l1.5,3.4h-0.101v0.1l-0.6,1.9l0,0l-0.5,1.2v0.1l-0.699,1.7v2.1l1.199,1.2
		h0.1l1.601,1.4l0.2,0.1l0.1,0.1l-1.199,2.801l-0.301,1.3l0.4-0.2h0.1l1-0.4l1.801-1h0.1l2,0.301h0.1l0,0l3,1.199h3.301l0.899-1.199
		l0.101-0.101l0.1-0.1l1.699-0.8l1.601-1.4l0.2-0.1l0,0l1.199-0.4l1.301-1l1.5-2l2.1,0.8l0.301,0.101v0.1l0.1,0.1
		c0.3,0.801,0.6,1.2,0.9,1.301l1.299-0.2h0.301l0.699,0.2h0.101v0.1l1.7,0.6h0.5l0.1-0.399l0.2-0.601v-0.1l0.101-0.1l0.1-0.101v-0.1
		l0.6-0.4l0.1-0.1l1.101-0.9h0.101l0.1-0.1h0.199l1,0.1c0-0.6,0.301-1.2,0.9-1.8c0.7-0.5,1.2-0.8,1.5-0.7l0.6-0.399h0.101v-0.101
		l0.5-0.5v-0.1h0.101l0.1-0.101h0.1l1.6-0.399h0.9l0.4-0.3l0.3-0.601l0,0l0.5-1l-0.2-0.1c-0.6-0.7-1-1.5-1.199-2.601l-0.101-0.1l0,0
		h0.101v-0.1l0.399-2.2c0-0.7,0.2-1.2,0.7-1.7l-0.2-1.8c-0.101-0.2-0.3-0.4-0.8-0.5l-3.2,1.3l0.2-3.3c0.1-0.5,1.1-1.4,3-2.5
		l-0.9-3.5c-0.199-1.2,0.1-2.101,0.9-2.9l-0.2-0.6h-1l-0.3,0.1l-0.5,1.4c-0.4,0.5-0.801,0.8-1.2,0.8h-0.2l-1-0.7h-0.1h-0.1v-0.1
		v-0.2l-0.301-0.7l-0.1-1v-0.1l-0.1,0.2l-0.101,0.3h-1.8l-0.2-0.4l-0.3-1.1v-1.5l-1.1-1.9v-1.6L330.121,468.713z"/>
	<path fill="#D8E4EF" d="M350.421,494.613l0.101,0.1l0.199,0.2l-1.3,2c-0.5,0.6-1.2,1-2,1h-0.2l-1-0.601l-1,0.101l-2,1.5
		c-0.5,0.2-1.1-0.3-2-1.5l-0.6,1.3h-0.1l0,0l-0.101,0.1l0,0l-0.7,0.7h-1.3l-1.3,0.4l-1.6,1.2h-0.5l-0.601,0.399
		c-0.5,0.5-0.7,0.9-0.399,1.3l0.699,1l-2.8-0.3l-1.5,1.2l-0.2,0.5v0.1l-0.3,0.801l-0.101,0.1l-0.1,0.1h-1.4l-1.799-0.699
		l-0.601-0.101l-1.399,0.2c-0.601,0-1.301-0.7-1.9-1.8l-1.2-0.5l-1,1.5l0,0h-0.101l-1.399,1.2h-0.101v0.1h-0.199l-1.1,0.3
		l-1.601,1.4l0,0l-1.7,0.8l-1.199,1.6h-4l0,0l-3.101-1.199l-1.7-0.2l-1.5,0.8h-0.1l0,0l-1,0.4c-0.5,0.199-0.9,0.5-1.2,0.6l-0.2,0.5
		v1.2l0.5,0.8l2.4-0.8c0.5,0,1.199,0.3,2.1,0.8l0.2,0.1l0.101,0.101l0.1,3.399l0.5,0.101h2.1l1.301-0.3l0.199-0.2
		c0.801-0.4,1.5-0.7,2.4-0.8l0.4-0.101l0.199,0.3l0.6,1.2v0.101l0.301,3.3v0.3l-1.801,1.9h-0.1v0.1l-2.1,1l-0.7,0.8l0.3,0.601
		l4.301,0.399l0.1,0.101l0,0l0.1,0.1l1.7,1l3.8-0.1v0.5l0.2,1.899v0.2h0.101l-1.701,1.7c-0.199,2.2,0.201,3.5,1.101,3.8l3.2,1.7
		l2.5,1.7l2.1-1l0.2-0.101l0.2-0.1l0.1,0.1l3.2,2.4l0.5,0.2l0.8-1l0.2-0.2l0.101-0.101h0.1h0.1l1.9,0.301l0.4-3.301l2.399,4.301
		l2,0.1l0.3,0.1h0.2v0.2v1.3l0.8-0.199l3.301-4.4l1.399,2.1v-0.699l0,0v-0.101v-0.1l1-2l0.899-1.5h2.5l0.4-2.8h0.301l0.199,0.1
		l1.9,0.3l0.199-1l-0.699-1.6v-0.2l0.4-1.1v-0.2l0.1-0.101h0.1v-0.1l5.2-2.8l-0.2-2.7l0,0v-0.1l1-2l0.2-0.4l0,0l1.601-3.7l0.1-0.1
		l0,0l1.3-1.3l0.8-1.5v-0.2l0,0l0.7-1.2l-0.601-1.5v-0.1h-0.1v-1.601h-0.8l-1.5,0.7c-0.7,0.5-1.7,0.3-3-0.5
		c-0.5-0.4-0.5-1.4-0.2-2.9l-0.8-0.1l-0.399,0.5c-0.9,1-1.601,1.6-1.801,1.6c-0.199,0-0.3,0-0.5-0.1c-0.1-0.3-0.3-0.8-0.3-1.6
		c0-0.9,0-1.5,0.3-1.7c0.2-0.3,0.4-0.4,0.6-0.2l1.9-3.5l0.5-1.3l0.301-1.5l-1.101-0.9c-0.3-0.3-0.399-1-0.2-2v-0.6
		c0-0.3-0.199-0.7-0.6-1h-0.2l-0.101,0.3c-0.299,0.8-1,1.2-2.1,0.9C351.721,494.413,351.121,494.413,350.421,494.613
		L350.421,494.613z"/>
	<path fill="#79A3C5" d="M344.421,448.213l-0.7-1.6l-1.1-1.601l-1.2-0.3h-0.101v-0.1h-0.1l-1-0.5l0,0h-0.199l-0.4,0.1l-1.301,0.2
		h-0.1l-0.199-0.101l-1.301-0.5v-0.1h-0.1v-0.1l0,0l-1-1l-1.1-1.101l-1-0.6l-1.101,1l-1.399,1l-0.4,3v0.1l0,0l-1.301,2.2v0.2h-0.1
		l-1,1l-1.199,2.3l0,0l-0.101,0.2c-0.899,0.7-1.7,1.399-2.5,2l-1,1.8c-0.2,0.5-1,1.1-2.5,1.7l-1,1.7l0,0l-1.7,2.3h-0.1v0.1h-0.2
		l-8-0.5l-0.899,0.9v1.7l0.799,3.3l1.701,2.399l1.399,0.801v0.1h0.101l0,0c0.799,1,1.199,1.7,1.199,2.2v1.3l-0.5,0.5l0.301,0.2
		h0.399l0.601-1.2h0.199l1.6,0.5l0.101,0.5h0.8l0,0l-0.199-0.6l-0.101-0.2l1.101-1.7c0.199-0.5,0.699-0.7,1.399-0.5l1.8,0.1l1-1.3
		v-1.2l0.4-1.3v-0.1l0.1-0.101l0.1-0.1l0.701-0.4v-0.1h0.1l0.1,0.1l1.5,0.2v0.2l0.301,1.2v0.6l0.199,0.9l0.4,0.1l0.5-0.7v-0.1
		l0.8-1.1l0.101-0.2l1.1-0.5h0.1l0.1-0.101l1.301,0.4h0.1l0.2,0.1l0.7,1.4v1.4l1,1.899l0,0v0.2v1.4l0.3,0.6h0.3l0.4-0.5l0.1-0.2
		l1.2,0.7h0.101h0.1v0.2v0.1l0.4,1.7l0.5,0.3l0.1-0.2l0.5-1.3v-0.1l0.1-0.2h0.1h0.101l0.7-0.4h0.1v-0.1h0.9l-0.2-0.5v-0.2l-0.5-4.7
		l-1.899-3.1l-3.601-4.2l-0.101-0.1l-0.199-2.7l-1.2-2.1v-0.101l-0.101-0.1l0,0l0.101-0.2l0.601-2.6h0.199h0.2l6.3-0.4l3.4-1.8l0,0
		l0.1-0.101c1.2-0.399,2-0.899,2.2-1.399C344.221,449.913,344.421,449.213,344.421,448.213z"/>
	<path fill="#9BB9D4" d="M322.521,387.413l-0.601-0.1l-1,6.1l1.7,2l1.6,0.7l0,0h0.1l0.101,0.1l2.101,1.7l2.899,0.7h0.101l1.5,1h0.1
		l0,0v0.2l1.1,1.6l0.2,0.2l-0.101,0.2l-1,1.6c-0.199,0.2-0.199,0.7-0.199,1.5h0.1v1.9l-0.1,0.1l0,0l-0.9,3l-0.1,0.5h-0.2l-0.3-0.1
		l-1.301-0.3l-1.699,0.1l-1.5,0.5l-1.7,1.4l-0.399,0.4l2.199,1.1l-0.199,0.4c-0.101,0.5-0.601,1-1.4,1.3l-1.4,0.1l-2.3-0.9l0,0l0,0
		l-2.101-1.2h-0.899l-2.5,3.6l-0.5,1.2v2.1l1,1.7v0.101l0,0l0,0l0.601,1.6v0.2l0.1,2.3v0.3l0.1,0.2l-1.6,0.3h-3l-1.4,0.9l-0.6,1
		l0.1,0.1l0.6,3h0.101v1.2l0.7,1.4l2.1,1.399l3.1-0.699l1.5-1l0.201-0.101h1.399l0.8,1.9c0.5,0.5,0.9,1,1.1,1.6l0.701-0.1h0.199h0.2
		l0.101-0.2l1.399-1.1l1.3,2.3l1.4,0.899h2l1.5-0.199h0.3l3.601,0.5h0.1v0.1l1.5,0.9l0,0l0,0v0.1l1.3,1v0.1l0.899,1l1,0.4l1.601-0.2
		v-2.1l-0.8-1.4h-0.1v-0.1l-0.601-2.601l1.399-1.399l0.101-0.101h0.101l1.199-0.199h1.301l0.399-0.5l-0.8-1.101l-2.9-1.899
		l-0.699-1.101l-0.101-0.1l-0.101-0.101l0.101-0.199l0.8-1.5l0.2,0.199l2,0.5l5.3-0.199l0.1,0.1h0.101l1.5,0.5l1-0.9l-0.5-3.1
		l-1.899-1.2c-1.601-0.899-2.101-3.1-1.801-6.7l-1.6-0.8l-0.2-0.1h-0.2v-0.2v-0.1l-0.3-2.6l2.2-10.2c-0.9-3-1.4-5-1.4-6l-0.199-3
		l0.199-3.3v-0.2l0.2-0.2l0,0l2-1.5v-1.6c0-0.4-0.2-1-0.7-1.8l-1.3-1.4h-0.2v-0.3l-0.199-2.4v-0.1l-0.101-0.1l0.2-0.1v-0.1l2.6-3.3
		v-1.4l-0.8-1.5v-0.1l-0.101-0.2l1.301-1.6v-0.1h0.1l1.4-1.1l-0.2-1.3h-0.7l-1.1-0.2l-0.6,2.4l-0.301-0.1l-2.6-1l-1.6-0.3l0.6,2.5
		l-2.2,0.7l-3.2,1.7l-1,1.3l0,0v0.1h-0.1l-1.7,1.5l-0.3,2.4v0.2l-0.9,3.4h0.1l-0.399,1.6v0.1l0,0l-0.101,0.1l-1.1,1.5h-0.1v0.1
		l-0.1,0.1h-0.101l-2.399,0.3l0,0v0.1l-0.101-0.1l0,0l-3.601-1.2l-0.1-0.1L322.521,387.413z"/>
	<path fill="#B6C9DB" d="M369.221,360.513l0.4-0.5l-0.7-1.6l-0.7-0.8l-0.8,1.3v0.1l0,0l0,0l-1.3,1.5l0,0l-0.1,0.1h-0.201l-2.399,0.7
		h-0.2l-2.3-0.4l-1.3,0.4l-0.301,1.1l0,0l-0.1,0.2l-1.1,0.7l-0.2,0.1h-0.2l-2-0.2l-0.1,0.2v2l-0.1,0.1l-1.101,1.4l0,0v0.1h-0.101
		l-1.899,1.9h-0.101l-0.1,0.1l-2,0.4l-1.3,1.4l0.3,1.7v0.4l-0.3,0.1l-1.5,1.4l-0.8,1l0.6,1.3v0.1v0.1v1.9l0,0v0.1l-1.1,1.6v0.1
		l-1.5,1.7l0.199,2l1.301,1.2v0.1l0,0c0.6,1,0.9,1.8,0.9,2.5v2.2h-0.101l-0.101,0.1l-2,1.5l-0.199,3l0.199,3c0,1,0.4,2.9,1.4,5.7
		v0.1v0.2l-2.199,10.2l0.199,2l1.5,0.7l2.4-2.4l0,0h0.1l7.7-3l2-1.8l0.2-0.2l0.1,0.1h0.2l4.399,0.4c0.601,0,1.9-0.5,3.801-1.3v-2.1
		l0.1-0.1h0.1l1.201-1.1l-0.301-1.3v-0.1v-0.1v-0.2l0.1-0.1c0.4-0.4,0.4-0.8,0.101-1.1c-0.3-0.6-0.2-1.4,0.3-2.3l0.5-0.7l0,0
		l-0.1-1.4l-1.5-1.8c-0.7-0.5-0.801-1.2-0.4-1.9c0.2-0.6,0.5-1.2,1-1.7l0.4-1.7l0,0l0,0l1.1-2.4l0.301-1.1l1.6-3l-1.1-1.9
		l-3.101-1.9h-0.2v-0.2l0,0l-0.6-1.6v-0.1v-0.2l0.3-2.7l0,0v-0.1l0.7-2c-0.1-0.7,0-1.2,0.3-1.6c0.2-0.2,0.5-0.4,0.8-0.4l1.9-0.3
		l0.5-1.1l0.5-3.3l-0.4-1.2l-1.699-0.4h-0.101l0,0l-2-1l-0.101-0.1v-0.2l-0.1-0.1l-0.1-2.4v-0.2v-0.3L369.221,360.513z"/>
	<path fill="#F5F9FC" d="M374.521,467.013l0.1-0.1h-0.2v-0.2l-0.8-1.5l-0.1-0.1v-0.2l0.199-2.4c0-0.3-0.3-0.6-0.9-1h-0.6l-1,1.2
		h-0.1l0,0l-2.5,1.2l-0.4-1.7v-0.2l0.2-0.8l-0.2-1l-0.3-0.1l-0.399,0.8h-0.101v0.1l-3.101,2.7l-0.1,0.2h-0.1h-0.2h-0.2l-0.9-0.4
		l-0.1-0.1l-1-0.9l-1.6-0.6l0,0l-0.1-0.101l-1-0.699l-3.301-0.7l0,0h-0.1l-2.2-1.101v0.101l-1.7-0.8l-2.199-0.2l-0.801,0.1l0.7,3.7
		h-0.3l-2.2,0.2h-1.2h-0.1l0,0l-1.2-0.8l-2,0.899l-1.8,2.4l-1.6,4.3l0.5,4.7l0.699,2.7c0.1,0.3,0.1,0.399,0,0.5l-0.3,0.1
		c-0.5,0.3-0.7,1-0.601,2l1,4.1l-0.299,0.2c-1.801,1-2.701,1.8-2.801,2.2l-0.199,1.4l1.699-0.7l0.1-0.101h0.101
		c1.2,0,1.899,0.4,2,1.4l0.3,2.2l-0.1,0.3l-0.2,0.2c-0.3,0.3-0.5,0.6-0.5,1l-0.3,2.3c0.1,0.8,0.4,1.4,0.8,1.7l2.101,2.5l1.899-1.5
		l1.5-0.2h0.101l0.1,0.2l1,0.3c0.3,0,0.6-0.1,0.9-0.4l0.899-1.3l-0.2-0.8c0.2-0.3,0.5-0.5,0.9-0.7h2.4
		c0.399,0.2,0.699,0.101,0.699-0.1c0.301-0.7,0.6-1,0.9-1.2c0.3,0,0.8,0.1,1.1,0.4c0.7,0.6,1.2,1.1,1.2,1.8l-0.2,1.8l0.4,0.3
		c0.6,0.5,1,1,1,1.4l-0.4,1.8c-0.3,1-0.6,1.7-1,1.9v-0.101l-1.5,3.2l0.5,0.2l2.4,0.1l0.5,0.2l-0.2,0.4c-0.3,1-0.399,1.699-0.3,2.199
		c0.8,0.5,1.3,0.801,1.6,0.5l1.4-0.6l0.699-0.3h1.301l1.3-1.4v-1.7c-0.101-0.6,0-1,0.2-1.3c0.4-0.3,1.199-0.3,2.4,0.4l2.399,1.5
		c0.8,0.6,1.399,0.8,1.8,0.8v-0.1c0.2-0.4,0-1.2-0.5-2.2l-1.3-2v-0.2h0.101l0.1-0.2c1.3-1.8,2.699-2.399,4.3-1.8l3.7,1.7l1.5-1h0.1
		v-0.101v-0.1l-0.199-0.2l0.1-0.1l0.1-0.2c1.2-2,1.6-3.5,1.2-4.3c-0.301-0.7-0.8-1-1.2-1h-0.3l-0.2-1h0.2
		c0.7-0.3,1.101-0.601,1.199-1l-0.3-0.5l-1.6-1.5l0,0v-0.101l-0.8-2.199c-0.3-1.7-0.5-3.2-0.3-4.601v-1l-1,0.9l-0.9,1l-0.3-4.2l0,0
		v-0.2h0.101c2.199-3.2,3.699-5.1,4.199-5.6l-1-3c-0.3-1.5-0.5-2.4-0.5-2.8l-1.8-0.801L374.521,467.013z"/>
	<path fill="#A3BFD9" d="M339.721,429.913l-0.1,0.399l0.5,0.601l2.6,1.8l0,0v0.1h0.1l1.601,1.801l-0.2,0.199l-1,1.2l-0.1,0.101
		l-0.1,0.199h-1.701l-1,0.101l-0.699,0.7l0.3,0.899v0.101l0.101,1l0.899,1.3v0.1v2.8l0.8,0.301l1.4,0.399h0.1l0,0l0.1,0.101
		l0.101,0.1l1.3,1.8v0.101l0,0l0.7,1.8v0.1l0,0v1.2c-0.101,0.7-0.3,1.3-0.5,1.7c-0.5,0.7-1.399,1.3-2.8,1.899l-3.4,2h-0.1l-6.2,0.4
		l-0.399,1.5l1.1,2v0.1v0.101l0.3,2.6l3.399,4h0.101l0,0v0.101l1.399,2.3l0.101-0.3v-0.101l1.101-3.1l0,0l0.1-0.101l0,0l2-2.6
		l0.1-0.1l2.5-1.2h0.2l1.601,1l2.1-0.2l-0.7-3.5l0.399-0.1l1.9-0.2l2,0.1h0.2v0.101l4,1.8l3.399,0.7h0.101l0,0h0.101l1.1,0.8
		l1.6,0.6v0.101l0,0l0,0l0,0l1,0.899l0.6,0.2l1.101-1v-0.1l1.7-1.301l0.9-1.699l1.6,0.899v0.101v0.1l0.4,1.3v0.3l-0.201,0.801
		l0.101,0.199l1-0.5l1.399-1.399h1.301v0.1h0.1l0.9,0.601c0.6,0.6,0.8,1.1,0.6,1.6l-0.1,2.2l0.6,1.1l0.2,0.101
		c2.399-2.601,4-3.9,5-3.9h2.699l0.601-1.3l2.1-1h0.101l2.601-0.2l2.699-1.4v-0.1h1.7l-0.301-0.8l0.101-0.2l0.399-0.4l-3.699-7.899
		v-0.2l-0.101-0.1l1.601-2.2l-0.5-0.5l-2.7-0.5h-0.3l0,0v-0.2l-1.7-1.8l0.1-0.4l-0.1,0.101l-0.101,0.1l-1.5-1
		c-0.699,0.9-1.399,1.5-2.199,1.7c-0.7,0.3-1.801-0.5-3.3-2.3l-0.801-1c-0.1-0.2-0.799,0-1.899,0.399c-1.7,0.601-2.8,0.7-3.3,0.4
		c-0.5-0.5-0.7-1.5-0.5-2.8c0.1-1.101,0-1.7-0.2-2l-13-0.7c-1.2-0.5-2.2-1-2.7-1.5l-2-0.5c-0.8-0.3-2.3-1.601-4.3-4.101l-1.3,1.101
		l-2-0.601l-5.4,0.101l0,0l0,0L339.721,429.913z"/>
	<path fill="#F3F3F3" d="M405.021,517.213c0.899-0.1,1.399-0.5,1.599-1v-0.1l0.101-0.301h0.399l1.801-0.1v-1.3
		c-0.5,0-1-0.2-1.5-0.601l-3-2.699v-0.101l-1.301-3.8l-1.8-1.8c-2.2-0.101-3.899-0.101-5.1,0l-0.4,0.1l0.101,1.2v0.2v0.3h-0.301
		l-1.599,0.7l-0.301-0.2c-1.3-1.3-2.101-1.8-2.601-1.5c-3.5,1.7-5.5,2.5-6.099,2.1c-0.401,0.101-0.901,0.5-1.601,1.2l-0.301,0.4
		l-0.399-0.4c-1-0.899-1.5-1.7-1.5-2.3c0-0.4,0.7-1.2,1.899-2.5c1.401-1.6,2.101-2.5,2.101-2.7l-0.3-0.5c-0.399-0.2-1.2,0.2-2.2,1
		c-1,0.7-1.601,1-2,0.9c-0.199,0-0.4-0.3-0.5-0.8l-0.101-0.2l-0.899-1.601l-1.9,1.2l-0.199,0.2l-0.1-0.2h-0.101
		c-1.399-0.8-2.7-1.3-4-1.8c-0.899-0.3-1.8,0.1-2.7,1.2l0.9,1.5c0.6,1.5,0.9,2.5,0.6,3.2c-0.1,0.3-0.4,0.6-0.8,0.6
		c-0.601,0.2-1.5,0-2.601-0.9c-0.899-0.6-1.6-1.1-2.199-1.399l-1.2-0.5v0.1l0,0l0.101,0.2v2.2l-1.601,1.8v1.7l0.7,1.8l0.1,0.1
		l-1.1,1.7l-0.7,1.601v0.1l-1.5,1.5l-2.5,5.7l0.101,3.1l-0.101,0.101l-5.399,3.1l-0.301,0.6l0.7,1.601v0.1v0.101l-0.5,2.1l-2.2-0.3
		l-0.5,2.7h-2.8l-0.601,1l0,0l-0.799,1.699l-0.5,6.301l0.6,1.3l0.1,0.2v1.3l1.2,1.5l0.101,0.2v1.199l3.199-0.199l0.2-0.301v-0.1
		h0.101v-0.1l0.899-1.2l-2-1.8l-0.2-0.2l-1.1-0.9l-0.1-0.1l-0.101-0.101v-2h1.7l0.199-0.699l-0.699-2h3.9l6.899-3.301l0.899-1.5
		l0.201-0.5l1.399,0.601h0.101l0.1,0.3l0.6,0.7l0.7-0.101l-0.2-1.5h2.301l2.199,0.4l0.9-1.5l0.1-0.1v-0.101l0.2-0.1l2.399-0.7
		l0.4-3.5l2.5,2.2l1,0.2l0.5-0.601l-0.3-7.6v-0.2v-0.4l1.7,0.301h0.1l0.2,0.1l0.101,0.1l2.699,4.9l3.399-0.4l0.601-0.199l0.5-1.2
		l-1-0.8l-0.3-0.4l2.3-0.8l0.2-0.101l0.101-0.1l0.899,1l0.8-0.4v-1.5l0.5-0.1h1.7c1.199,0.1,2.101,0.7,2.8,1.6l0.2,0.4l0.699-2.4
		c0.401-0.6,1.2-0.699,2.401-0.199l0.199,0.1v0.1l0.1,0.101c0.101,0.1,0.3,0.2,0.4,0.2c0.5-0.2,2.301-1.4,5.2-3.7
		C402.921,518.413,403.721,517.613,405.021,517.213z"/>
	<path fill="#C3D4E5" d="M405.421,458.613l-0.101-0.101l-2.2-1.899l-1.199,0.6c-0.801,1.8-1.899,2.9-3.301,3.4
		c-0.399,0.199-0.899,0.1-1.199-0.2c-0.399-0.5-0.2-1.601,0.5-3.3l-3.301,2.1l-0.099,0.2h-0.101h-2.899l-2.601,1.3v0.2l-2.801,0.1
		l-1.5,0.8l-0.699,1.4l-0.2,0.2h-3.3c-0.601,0-1.899,1-4,3.1c1,0.4,1.5,0.8,1.7,1.101l0.1,0.6v-0.1l1.5,5.6l0,0l0.1,0.3v0.4h-0.1
		l-0.199,0.1h-0.101l-4,5.5l0.2,1.4c0.6-0.5,1.1-0.601,1.5-0.4c0.5,0.2,0.699,1,0.5,2.2c-0.2,1.9,0.1,4,1,6l1.4,1.5
		c0.5,0.5,0.699,1,0.599,1.5l-0.699,1l0.899,1.2c0.5,1,0.101,2.7-1.1,5.1l1.301,2.2l0.199,0.5l0.801-0.5
		c1.299-1.2,2.399-1.5,3.299-1.2c0.601,0.2,0.9,0.7,1,1.2c0.101,0.7-0.7,1.9-2.5,3.7l-1.399,1.8l0.699,1.1
		c1-0.899,1.801-1.199,2.301-1c0.601,0,2.3-0.6,5.199-2.1c0.901-0.5,2.101,0,3.601,1.5l0.6-0.3l-0.1-1.2l-0.3-0.2
		c-0.2-0.3,0-0.6,0.3-0.899l-0.5-1.9c-0.101-0.3-0.101-0.7,0-1c0.301-0.3,0.7-0.5,1.1-0.7l0.9-0.8l-0.5-1.2v-0.1h0.1v-0.101
		c0.4-0.6,0.4-1.1,0.3-1.399c-0.399-0.7-0.099-1.2,0.7-1.9l1.101-1l-0.2-0.2l-0.3-0.3l1.3-0.6v-1.601c0-0.6,0.5-1.399,1.899-2.399
		l0.601-0.5l0,0l-1.5-1.7c-0.5-0.7-0.3-1.6,0.6-2.5v-0.2l3.101-2.6l0.101-0.7c-0.601-0.2-0.801-1.3-0.5-3
		c0.399-2.7,1.599-4,3.699-4.3l0,0h0.2l1.3,0.7h1.399l1.301-1.601l0,0l0,0l0.101-0.1l1.599-1l-0.199-1.4v-0.3l0.199-0.2l0.401-0.2
		l0.5-0.6l0.099-0.1l-1-1.7c-1-1.3-1.899-2.5-2.5-3.9c-0.5-0.899-0.399-1.899,0.301-3l-1.801-1.1L405.421,458.613z"/>
	<path fill="#95B7D3" d="M413.62,472.013l-0.199,0.101l-1.7,1.199l-1.5,1.7h-0.101v0.2h-2.199l0,0l-1.2-0.7
		c-1.5,0.4-2.3,1.4-2.601,3.3l-0.099,1.7l1.199-1.1l-0.8,3.3v0.1v0.101l-3.301,2.899c-0.5,0.601-0.699,1.101-0.5,1.4l0.601,0.7
		c0.7,0.6,1.1,1.1,1,1.5c0,0.3-0.101,0.6-0.3,0.8l-2.101,1.8c0.101,0.5,0.101,1.3,0,2.2v0.3l-0.1,0.101l-0.8,0.3
		c0,0.5-0.2,0.8-0.7,1.3l-1.101,1.1v0.101c0.2,0.5,0.2,1.1-0.199,2c0.5,1,0.5,1.7,0,2l-1,1l-0.2,0.1l-0.5,0.2v0.2l0.7,2.399h0.199
		c1.7-0.199,3.5-0.199,5.5,0h0.2v0.101l2.201,2.2v0.1h0.099l1.301,3.7l2.699,2.5l1.101,0.399l0.1-3.1l2.5,2.5l0.4-0.4l1.801-3.699
		l0.299-2.101l0.3,0.101h0.2l1.9,0.1l-0.101-1.5v-0.3v-0.2h0.301l2.5,0.1c1.3-1.3,1.899-2.399,1.899-3.3l-0.399-3.6l2.199,0.7
		l0.601-1l-1-1l-0.3-0.4l2-2l0.101,0.2h0.199l1.2,0.7v-0.301l-0.801-1.8l0.301-0.3l0.5-0.3l-0.2-0.7l-1-1.9l0.2-0.1l0.199-0.2
		l2.7-1.5l0.101-1.1c-2.301-1.2-3.5-2.2-3.301-2.7c0.101-0.4,0.301-0.5,0.801-0.5l3,0.5l0.101-1.8v-0.2l1.5-1.5l0.399-1.1
		c-0.601-0.2-1-0.601-1.399-1l-0.101-0.2v-0.2l0.101-0.5l-0.101-0.2l-0.2-0.1l-0.101,0.1c-0.199,0.4-0.699,0.7-1.399,0.7
		c-1.101,0-2-0.5-2.699-1.2v-0.1h-0.101l-0.801-1.4l-0.199,0.2c-0.101,0.6-0.5,1.2-1.2,1.7c-1.3,0.6-2.5,0.8-3.699,0.3
		c-0.801-0.3-1.301-0.9-1.601-1.8l-0.301-2c-0.3-1.9-0.699-3-1.3-3.3c-0.6-0.4-1.2-0.5-1.7-0.4l0.101,1.7L413.62,472.013z"/>
	<path fill="#98B6D0" d="M429.421,443.413c-1.101,0.5-2,0.899-2.7,1c-0.601,0-1.601-0.2-3-0.7l-2.3-0.3c-0.7,0.3-1.5,1.3-2.601,3
		l1.5,3.2l-2.5,1.399h-0.1l-2-0.6c0.801,1.5,1,2.399,0.7,2.8l-0.2,0.8c-0.5,1.2-0.9,1.9-1.3,2.3l-3.5,3.101l0.899,0.5l-0.6,0.5
		c-0.8,0.7-1,1.5-0.601,2.1l2.401,3.7h0.099v0.1l1.101,2v0.101l0.1,0.1l-0.1,0.2v0.2v0.1l-0.199,0.2c0.5,0,0.899,0.2,1.399,0.5
		c0.8,0.5,1.399,1.9,1.699,4l0.401,2c0.199,0.5,0.399,0.8,0.899,1c0.8,0.4,1.8,0.3,2.699-0.3c0.5-0.3,0.801-0.601,0.7-0.9l-0.1-0.1
		v-0.2l1.7-1.2l0.199,0.2l1.301,2.2c0.5,0.399,1,0.6,1.8,0.6l0.5-0.1l0,0l-0.4-1.2l1.9,0.8h0.5h0.1l0.101,0.2l1.8,1.4l0.5-0.801
		l-0.101-3.399l0.101-0.101l0,0l1.2-1.5c0.101-0.199,0-0.6-0.5-1.1l-0.301-0.3l0.2-0.2l0.101-0.2l0.3-0.1l2.5-4.101l0.2,0.101
		l0.5,0.1l0.199,0.101v0.199l-0.199,1.601h0.199l2.801-2.5l-0.2-1.3h-0.5l-1,0.1l1.7-4.6l-1.5-0.2l0,0h-0.2v-0.2l-0.5-0.6
		c-0.3-0.601-0.3-1.101,0.1-1.601l2.4-0.1h1.5c0-0.5-0.3-1.4-1.199-2.9l-2.101-0.7l2.199-2.1v-0.5l-1.099,0.2h-0.401v-0.101
		l-0.099-0.1l-0.101-0.2c-0.301-1-0.899-1.8-1.801-2.1l-4,0.1l-1.699,2v0.101l-0.5-0.101l-6.301-2l6.101-1.6c0.399,0,1.399-1,3.1-3
		l-2.1-1.5L429.421,443.413z"/>
	<path fill="#ADC3D6" d="M405.62,426.013h-0.099v-0.1c-1.101-3.8-2.101-5.9-2.801-6.2l-3.5-1.2c-2-0.6-3.4-1-4-1.4
		c-1-0.6-2.3-2-3.8-4.3h-0.601l0.101,0.1c0.199,0.8,1,2.2,2.699,4.2l0.101,0.1l0.1,0.2l-1.6,2.9c-0.601,1.1-1.199,1.6-1.8,1.4
		c-0.399-0.2-1.2-1.1-2.5-2.8l-1.7-0.5c0,0.5,0.301,1.5,1,3.1v0.101v0.1v0.1v0.101l-0.3,1.1l-1.801,0.8l0,0l-0.599,0.2
		c-0.301,0.3-0.301,0.8-0.201,1.4c0.201,1.5,0.101,2.399-0.2,2.8c-0.199,0.2-0.3,0.2-0.5,0.2h-0.099l0,0l-2-0.4
		c0.099,0.4,0.399,0.8,0.899,1.101c1,0.899,1.8,2.199,2.601,3.699l0.099,0.301l0,0l0.901-0.2c1.099-0.2,2.099,0,3.099,0.7l1.101,1.3
		l0.1,0.1v0.101h-0.1l-0.101,2.6c0.301,0.4,0.5,0.9,0.301,1.3c-0.2,0.5-0.601,0.8-1.301,0.9c-0.8,0-1.199,0.5-1.399,1.5l0,0l0,0v0.1
		l-0.8,1.7l1.199,1.2l2.601,0.5h0.2l0,0l1.3,1.399l-1.601,2.4l3.7,8l0.101,0.2l-0.601,0.7l0.201,0.6h0.099l6.801-4.3l-1.101,2
		c-0.899,1.5-1.399,2.8-1.6,3.7c1.2-0.5,2.2-1.4,2.801-3l0.099-0.2h0.101l1.899-1l0.101-0.2l2.7,2.4l3,0.1l0.101,0.1l1.399,0.9
		l3.699-3.2c0.301-0.3,0.601-0.899,1-1.899l0.401-0.801c0.099-0.399-0.401-1.399-1.401-3.1l-0.899-1.3l4.399,1.5l1.301-0.7
		l-1.301-2.8l-0.099-0.101l2.199-2.899l-0.9-1.4c-0.899-1-1.5-1.5-1.899-1.5l-0.2,0.101l-1.101,1.1l-0.199-0.1h-0.2l-1.8-0.601
		l-0.5-1.6c-0.7-0.101-1.399-0.5-2-1.2l-1.101-0.7c-0.899-0.399-1.399-0.899-1.399-1.399c-0.2-0.601,0-1.301,0.601-2.2
		c1.099-1.601,1.699-2.9,1.699-3.9v-1.3l0.7,0.1l2.3,0.101c0.2-0.2,0.5-1.2,0.899-3l-0.699-0.101
		c-1.601,1.101-2.801,1.801-3.7,2.101c-1.101,0.3-2.5-0.3-4.5-1.7v-0.1L405.62,426.013z"/>
	<path fill="#A0BDD5" d="M394.721,359.013l-0.3-0.2c-0.5,0-1,0.5-1.5,1.6l-0.301-0.2l-0.099,0.1l0.099,0.1l-0.899,0.9l-0.4,0.2
		l-1.1,0.6l-0.101,0.7c0.101,1.1-0.199,1.9-0.699,2.2l-0.399,1.2c-0.101,0.3-0.201,1.1-0.101,2.2l0.601,3
		c0.199,0.4,0.699,0.9,1.699,1.3l2.301,0.6c0.599,0,1.399-0.3,2.299-0.9l-0.6-1.1v-0.2v-0.1l0.2-0.9v-0.1l1.101-2h1.899l0.5-0.1
		c-0.2-0.6-0.801-1.7-1.899-3.1l-0.701-1c-0.399-0.8-0.799-1.7-0.899-2.9C395.221,360.013,394.921,359.413,394.721,359.013z"/>
	<path fill="#46799F" d="M385.62,355.213l-0.199,0.3l-0.301-0.1l-1.3-0.2l-0.1,0.6v0.3h-0.3l-2.101,0.8l-0.1,0.3
		c-0.3,0.7,0,1.3,0.7,2.1l0.199,0.2l-0.199,0.3c-0.601,1-1.5,2-2.5,2.7c-0.399,0.3-0.5,0.6-0.5,0.9l0.699,0.9l1.101,0.4l0.899,0.1
		c1.2,0,2,0.1,2.301,0.6l1,0.7c0.699,0.3,1.3,0.5,1.8,0.5c0.399,0,0.899-0.3,1.301-1.1l0.799-0.9l0.601-1.9l-0.5-2.2l0.8,0.2
		l1.301,0.1l0.599-0.4l0.2-0.5l-1-2.9l0.3-1c0.301-0.6,0.7-0.8,1.101-0.9h0.1l-0.2-0.7l-2.399,0.1v-0.1l-2.199-1.5
		c-0.901-0.6-1.801-0.7-2.601-0.5l-0.301,0.2c-0.199,0.4,0,0.8,0.601,1C385.721,354.013,385.921,354.513,385.62,355.213z"/>
	<path fill="#9DBAD5" d="M422.921,329.813l-1.2,1.6c-0.199,0.3-0.3,0.9-0.101,1.9v0.6h-2.399h-0.101l0,0l-1.699-0.5l-1.301,2
		l-0.199,0.2l-1.601,1l-1.399,1.5l0,0l-0.2,0.3l0,0l-2.5,2.9v0.1h-0.101l-1.899,1l-1.5-1v-0.1l0,0l0,0l-1.4-1.5l-0.899-0.5
		l0.699,4.1l0.601,2.2l-1.5,1.4l-2.101,3.1v1.3l-0.099,0.1h-0.101l-0.5,0.8l0.399,0.7h0.8l2.901,0.8h0.099h0.101v0.1h0.1l0.601,0.6
		l0.8,0.4l0,0h0.2v0.1c0.3,0.4,0.5,0.8,0.5,1.2l0.3,0.9l3.1,0.9l0.9-0.2l0.899-1.2l2.401-4.6h0.099v-0.1l1.101-1.5l0.1-0.1l1.9-0.9
		l1.301-0.1c0.5-0.8,0.899-1.2,1.399-1.2c0.3,0,0.8,0.2,1.601,0.6l0.199,0.1v0.1l1.7,2.6v0.1h0.101v0.2l0.199,1.9l-0.101,2.1l0,0
		l-0.5,1.8l0,0v0.2h-0.099l-1.301,1.6l-0.601,1.3l0.101,2.2h0.2l0.699-0.3l0.801-0.7l0.199-0.2l0.101-0.2l1,0.9v0.1v1.6h-0.101
		l-0.899,0.4l-0.3,0.4v0.9l-0.101,0.1l0,0l-0.6,1.1h-0.101l-0.199,0.1l-0.801,0.1l-0.8,0.2l-0.6,1.1l0.1,0.2l3.3-0.4l0.601-0.5
		l1.1-2.9l0,0l7.4-7.6h0.2l1.601-0.8l0.099-0.1v0.1h1.301l1.3-0.3l1.399-0.6l1-1.1l1.601-4.4l0,0v-0.1l6.2-6.5v-0.1l-0.399-3.5
		c-0.301-0.1-0.701-0.3-0.901-0.6l-0.199-0.2v0.1l-1,0.1c-0.5-0.2-0.801-0.4-1.2-0.9l-0.3-0.6v-0.1l-0.101-0.1v-5.4
		c-0.6-0.2-1.2-0.6-1.899-1.3l-1.301-1.4l-1.199-1.7c-0.2-0.4-0.2-1-0.101-1.9l0.101-0.5l-0.7-0.9l-0.101,0.8l-0.899,1.7h-0.3
		c-0.7,0-1.5-0.1-2.101-0.4c-0.6-0.2-0.899-0.7-0.899-1.3v-0.4h-0.5l-1.899,0.5l-1.401-1.4l-0.5-0.1l-0.5,0.5l0.601,1l0.2,0.3
		l-1,2.1h-0.101v0.1h-0.1l-1.8,2l-0.101,0.1h-0.2l-2.8,0.3L422.921,329.813z"/>
	<path fill="#82A8C8" d="M425.12,299.213l-0.399-2.1l-1,0.6h-0.101l-2.399,0.9l-0.101-0.2l-0.399-0.1v1.1l-0.101,0.1l-1.199,1.8
		h-0.101v0.1h-0.1l-1.8,1.5h-0.2v0.2l-0.3-0.2c-1.2-0.5-2-1.1-2.2-1.6c-0.199-0.2-0.3-0.2-0.5-0.3l-1.3,0.2l-0.801,0.8l2.101,1.8
		l1.7,0.7l0.101,0.1h0.099l0.101,0.2v0.1l0.301,2h0.099v3.1l0.401,1.8l1.199,2.8l1.399,1.3l1.101-0.8l0.801-1v-0.1h0.099l1.401-1.7
		l1.199,1.1v0.1l0,0l0,0v0.1l1.2,2.3l1.5,0.6l0.8,2.4v0.1v0.1l-0.101,2.2v0.1h-0.099l-0.601,2l1.101,1l1.199-0.6l1.2-1.2l0.3,0.2
		l1,0.3l0,0l0,0l1.2,1.1l1.3-0.3c1-0.3,1.5,0,1.801,0.7v0.9l0.199,0.1l1.399,0.4l0.601-1.3v-0.5c0-0.4,0.1-0.8,0.399-0.9l0.801,0.1
		c1.101,0.5,1.601,1.2,1.601,2l-0.101,0.7v1.2l1.101,1.6l1.299,1.4c0.4,0.5,0.9,0.7,1.4,0.9h0.2c0.3,0.2,0.5,0.7,0.5,1.8v4.5
		c0.199,0.4,0.5,0.7,0.8,0.8h0.2c0.601-0.3,1-0.2,1.5,0.3l0.3,0.2c0.5,0.1,0.899,0.5,1,1.3l0.2,2.5l2.3-4.7c0.7-2.5,1.5-4,2.6-4.2
		c0.9-0.3,2.3,0.2,4.101,1.2l6.5,0.5l0.199-1.4l-3-2.9c-1.399-0.8-2-1.4-1.8-1.8l2.3,0.1c2.101,0.7,4.101-0.5,6-3.9l0,0h0.101
		l2.2-2.1l0.3-4.6v-0.5h0.301h0.199l1.7-0.4h0.3l0.2,0.1v0.1l3.5,3.7l1-0.4l0.199-0.6l-1.899-1.8l-0.3-0.2l-0.2-0.3l2.899-1.7
		l-0.199-4.2l-1.2,0.2l0,0h-0.101l-1.599-0.8c-0.601-0.1-1.401-0.5-2.601-1.2c-0.601-0.3-1-0.6-1-1v0.1c0,0.4-0.101,0.6-0.301,0.7
		c-0.3,0.2-0.699,0.3-1.399,0.3h-0.101l-0.099-0.1h-0.101l-1.399-1l-1.201,1c-0.6,0.5-1,0.9-1,1.3l0.601,1.3
		c0.3,0.4,0.3,0.6,0.199,0.9c-0.199,0.3-0.699,0.6-1.399,0.7l-0.601,0.3c-0.699,0.2-1.3,0.1-1.699-0.4l-0.2-0.3l-2.601-2.7
		c-1.199-0.4-1.899-0.9-2.199-1.5c-0.2-0.3-0.301-0.6-0.2-0.8c-0.101-0.9-0.3-1.5-0.5-1.8l-0.5,0.3l-0.101,0.2
		c0,0.3,0.101,0.6,0.401,1l0.099,0.2l0.101,0.1l-0.101,0.2l-1.399,2.3l-2.3-0.5l-0.5-0.3l0,0v-0.3c0.199-0.4,0.199-0.9,0-1.4
		l-0.301-0.8l-1.899-1.4l-0.101-0.1c-0.199,0.3-0.399,0.3-0.599,0.4l-1.801-0.2c-0.601-0.1-1-0.2-1.199-0.6
		c-0.101-0.2-0.101-0.6,0.099-1.1l0.101-0.3l-0.8-1.4l-3.5,0.2c0.101,0.5,0,0.8-0.2,1.2c-0.101,0.3-0.5,0.4-0.8,0.4
		c-0.5,0.2-1.101,0-1.601-0.5v-0.1h-0.1c-0.8-0.9-1.101-1.6-1.101-2.2l-0.699-1l-1,0.7c-0.899,0.5-1.5,0.5-1.801,0.1l-0.399-0.1
		l-1,0.1l-2.699,0.9c-0.601,0.4-1.101,0.5-1.5,0.5h-0.301c-1,0-1.601-0.3-2-0.7l-1.601-1.3L425.12,299.213z"/>
	<path fill="#7BA4C6" d="M487.32,280.413l-1.5-9.8l0.101-0.2h0.101c0.699-1.1,1.099-2,0.899-2.7l-0.399-0.6
		c-1.101-0.7-1.601-2.3-1.301-5h-0.9c-0.7-0.1-1.5,0.2-2.299,0.7c-0.801,0.6-1.301,1.3-1.401,1.8c-0.399,1.2-1.699,2-3.899,2.7
		l-0.5,3.1v0.1l-0.101,0.1l-1.099,2l-0.101,0.2h-0.101h-0.1l-9.9,1.8h-0.1h-0.3v-0.2l-2.899-3.1l0.899-0.9l-1.101-1.5l-1.399-1
		l-0.101-0.1h-0.1v-0.1v-0.1l-0.5-2.7l-2.601,0.2l-0.199-0.2l-2.2-1.3l-7.9-1.4l-6.6-0.3l-0.199,0.2c-0.301,0-0.5-0.1-0.601-0.3
		l-3.801-8.6c-0.399-0.7-2-2.9-5.199-6.7c-3-3.7-4.7-5.7-5.2-6.1l-5.601-5.5l-0.899-0.5l-7-0.1h-0.101l-0.199-0.2
		c-0.7-0.5-1.7-1-3.2-1.3c-1.3-0.5-4.3,0.5-9,3l-0.199,0.1l0.199,1.4h0.1v0.1h-0.1v0.2l-0.8,1.6v0.1h-0.101l-0.1,1.1
		c0,0.9,0.2,1.9,0.5,2.7l0.7,0.5l1.5-0.1l1.3,0.3l0.5-0.4c0-0.9,0.301-1.6,0.7-1.8h1l3.5,1l0.8,0.1l-1.101,1.9v2.3
		c0,0.5,0.901,1.7,2.7,3.4c1.101,0.8,1.8,1.2,2.4,1.3l0.5-0.1l0.5-0.2l1.7-1.7l1.3-0.8v-0.1l0,0l2.7-0.4l0.8-1.7l2.399-1.4
		l2.101,1.2v0.1l0.2,0.1l2,3.4l0.8,2.3v0.3l-0.4,2.8l0.8,1.9v0.3l-0.599,2.2v2c0.599,1.8,0.899,3,0.899,3.3l-0.2,1.7l0,0v0.1l-1,1.4
		v0.1l0,0l0,0l-1,1.2l-0.101,2.2l0.601,2.3l0,0l0.1,0.1l-0.1,0.1l0,0l-0.601,3.5l-0.5,0.5c-0.399,0.3-0.899,0.3-1.5,0h-0.199
		l-0.899-1l-1,0.3l-1.301,1.4l-1.4,4.1v0.1l-0.1,0.1l-1.4,1.2h-0.2l-0.8,0.1l-1.6,2.3l0.801,1.5l0.199,0.2l2,2.5v0.1v0.8l2.2,0.3
		l0.399,2v0.1l0.3,2.4l0.601,0.5l2-0.6l1.899-1.1l0.301-0.2l0.699,3.4l0.901,1.3l0.199,0.1l0.7,1.4l1.5,1.2
		c0.199,0.3,0.699,0.3,1.199,0.3l0.5,0.1l0.901-0.4c0.699-0.3,1.399-0.6,2.199-0.7l0.6-0.3l1.4-0.1c0.5,0,0.7,0.1,1,0.4l2-1.3h0.2
		l0.199,0.1l0.101-0.1l0.2,0.2c0.8,0.9,1.199,1.7,1.199,2.1l0.901,1.5l0.699,0.2h0.1h0.101l-0.2-0.2c-0.101-0.5-0.101-0.8,0-1
		c0.2-0.3,0.6-0.5,1.2-0.5l3.699-0.1l0.101-0.1h0.2v0.2h0.199l1.101,2.1l-0.101,1.1h-0.099l1.399,0.3h0.101
		c-0.101-0.3-0.101-0.5,0.099-0.7l0.5-0.1l3.301,2.3c0.3,0.3,0.5,0.7,0.601,1.2l0.099,1.4l1.101,0.2l0.7-1.2
		c-0.301-0.6-0.5-1.2-0.399-1.6c0.099-0.4,0.199-0.7,0.599-0.9l0.301-0.3c0-0.2,0.101-0.3,0.3-0.4l0.899,0.1
		c0.5,0.3,0.901,1.3,1.101,3v0.2l0.2,0.1c0.101,0.4,0.699,0.7,1.601,1h0.099l0.101,0.1l3.2,3.3l0,0l1.5-0.5l-0.2-0.5
		c-0.4-0.5-0.5-1-0.5-1.3c0-0.7,0.5-1.4,1.5-2.1l1.7-1.5l2,1.4h0.399l0.4-2.2v-0.4l0.399-0.1l1.601,0.2c0.301,0.3,0.5,0.6,0.5,1.1
		c0,0.4-0.3,0.9-0.601,1.3l0.301,0.2c1,0.5,1.8,0.9,2.399,1h0.101l0,0l1.3,0.7l1-0.1l-1.5-7.3c-1-0.6-1.9-1.8-2.8-3.2
		c-0.7-1.2-0.301-2.9,1.3-4.9c0.899-1,2-2,3.2-3l0,0l0.101-0.2h1.399l0.101,0.2l1.199,0.5h2.5c1-0.5,1.899-2,2.899-4.4
		C487.721,287.813,487.721,284.913,487.32,280.413z"/>
	<path fill="#9EBBD5" d="M429.62,379.913l-0.199,0.1c0,0.5-0.301,0.8-0.801,0.8l-3.899-0.4c-2.699-0.5-4.5-0.9-5.4-1.4l-5.5,5.2
		l0.201,2.2v0.2l-0.5,0.1c-4.301,0.6-6.601,0.2-6.901-1.2l-0.5-6.2l-5-0.3l-2.099,4.4l-0.201-1.9c-0.1-1.5-0.399-2.4-0.7-2.6
		l-2.199,1.1l-1,1.3l-0.101,0.1h-0.1l-2,0.7c-2.199,1.8-4.101,3.7-5.8,5.7l-5.301,7.2l1.101,2.5v0.4l0,0l-0.101,0.1
		c-0.399,0.6-0.199,1.5,0.401,2.5c0.699,1.3,1.199,2.7,1.199,4.3v0.3l-4.3,2.5v1l2,0.9c0.199,0.1,0.3,0.3,0.3,0.4v0.2
		c-0.101,0.5,0.7,1.2,2.2,1.9l3.699,1l1.101-0.7l1.2-1.7l1-2.9l2.899,1.1l0.4,0.3v0.2l0,0v0.1c-0.5,1.2-0.199,2,0.7,2.5l3.199,0.1
		c1.101-0.2,2-0.6,2.601-1.1c0.399-0.5,1-0.6,1.899-0.5c1.101,0.2,2.101,0.6,2.801,1.5l0.699-1.7l0.2-0.3h0.101
		c0.5-0.3,0.8-0.8,1.199-1.5c0.301-0.7,0.801-1.4,1.601-1.9l1.399-0.8l0.101-0.1l0.1,0.1h0.101l0.8,0.2l0,0l0.2,0.1l1.101-5v-0.1
		l1.599-0.3c1.601-1.1,2.401-2,2.301-2.8l-0.301-1.5c-0.399-1-0.399-1.7-0.199-2c0.3-0.3,0.5-0.4,0.8-0.4c0.7,0,1.5,0.2,2.301,0.6
		l0.199-1.6v-0.2l0.1-0.1l1.701-0.8l0.199-0.9h-1l-0.199-0.1l0.099-0.5v-0.3l0.101-0.2h0.301h0.199c0.7,0,1.5-0.4,2.399-1.2
		l6.301-4.5h0.199l2,0.9l0.801-0.1l-0.5-2.1v-0.2l0.101-0.1l0.099-0.1l1.101-1.8l-0.3-0.2l-0.7,0.2v0.1h-0.101l-2,0.3h-0.5h-0.099
		v-0.1l-0.101-0.3l-0.399-0.7H429.62z"/>
	<path fill="#77A2C4" d="M438.521,439.413l0.699-0.8l0,0l0,0v-0.101l-2.5-2c-1.3-0.899-2.4-1.2-3.199-1.1l-1.101,0.399v2.101
		c-0.2,0.7-0.5,1.5-1.2,2.1l-0.4,0.4l1,1.2h0.101l0.3,0.8l1.2,0.5c0.699-0.5,1.199-0.7,1.699-0.601l2.101,0.4l0.1-0.7
		C437.421,440.613,437.921,439.813,438.521,439.413z"/>
	<path fill="#C3D4E6" d="M424.021,417.413c-1.101-0.9-2-2.5-2.901-5c-2.899,0-4.599-0.5-5.399-1.5c-0.601-0.9-1.8-1.5-3.5-2
		l-0.5-0.1l0.5-1.7l-0.3-0.2l-0.5-0.1c-1.2,0.6-2,1.2-2.301,2c-0.399,0.8-0.899,1.5-1.5,2c-0.5,1.6-1,2.4-1.5,2.4
		c-0.3,0.1-0.5-0.1-0.699-0.4l-0.801-0.7c-0.599-0.3-1.199-0.6-1.699-0.6l-1,0.2c-0.7,0.7-1.7,1.2-3.2,1.4l-3.8-0.2
		c-1.2-0.6-1.7-1.8-1.399-3.3l-1.401-0.5l-0.699,2l0,0v0.1l-0.101,0.1l-0.299,0.4l0.899,0.2h0.199l0.101,0.1v0.1
		c1.7,2.3,3,3.8,3.7,4.2c0.399,0.2,1.601,0.6,3.699,1.2l3.601,1.3c1.1,0.5,2.2,2.7,3.399,6.6c1.601,1.1,2.601,1.6,3.301,1.5
		c0.699-0.3,1.899-1,3.601-2.101l0.099-0.1l0.101-0.1l0.2,0.1l1.8,0.4h0.2v0.3l-0.101,0.3c-0.6,2.4-1.1,3.8-1.5,4.2l-2.399,0.1
		v0.101c0,1-0.7,2.5-2,4.399c-0.399,0.601-0.5,1.101-0.5,1.4l2.3,1.6c0.6,0.7,1,0.9,1.5,0.9h0.5l0.5,1.7l1.1,0.399l0.601-0.6
		c0.3-0.3,0.699-0.5,1-0.4c1,0,1.8,0.601,2.8,1.9l0,0l0.899,1.2l0.101-0.101c0.6-0.399,1.7-0.3,3.301,0.2l2.599,0.6l2.401-0.8l1-0.5
		l0.699-0.5l-0.601-0.7c-0.199-0.399,0-0.899,0.5-1.399c0.601-0.5,1-1,1-1.601v-1.199c-0.199-0.601-0.099-1,0.101-1.2
		c0.2-0.4,0.899-0.601,1.7-0.8c1.3-0.2,2.899,0.399,4.8,2l-0.699-2l-1.101-1.5l-0.2-1.801l-1.699-0.3h-0.101v-0.1l0,0l0,0
		l-4.5-2.601l-2.2-0.399v-0.5l-0.101-2.3C426.12,420.913,424.921,418.313,424.021,417.413z"/>
	<path fill="#A6BFD8" d="M406.721,355.913l-0.8-0.4l0,0h-0.101l-0.6-0.6l-2.8-0.8h-0.7l-0.5,0.2l-1.101-2.1l0.101-0.1l0.801-1v-1.2
		l0.099-0.2l0.5-0.8l-0.399-0.2l-1.5-0.3l0,0l-2.601-0.4h-0.199l-1.5-1.5v-0.1l-0.5-1l-0.101-0.3l0.8-2.1v-1.5l-0.099-0.4
		l-0.801,0.8l-0.101,0.1l-0.199,0.3l-0.2-0.3l-0.3-0.1l-1.5-1.2l-0.2-0.2v-0.2l-0.3-2.2l-0.7-1.1l-1.5,0.1l-0.9,1.6l-0.1,0.2
		l-0.101,0.1l-2.399-0.5l-0.4,2.2v2.2l-0.1,0.1l-1.3,2v0.2l-0.2,0.1h-0.101l-1.5,0.1l-1.5,1.2l-0.199,0.2l0,0h-0.2l-0.101-0.1
		l-2.8-0.9l-0.399,1v0.1l-1.2,2c-0.199,0.4-0.5,0.6-0.8,0.7l-1.2-0.2l-1.6-0.7l-0.301-0.2l-0.1-0.1v-0.1l-0.3-2.4l-0.5-1.8l-0.3-0.5
		l-0.7,1.4l0,0l0,0l-1.2,1.6l-1,2.3v0.1l0,0v0.1h-0.1l-0.9,1.3c0,0.4-0.3,1-0.9,1.9l0.601,2.3l3,3.3l0,0l1,2.1v0.2l-0.101,0.2h-0.1
		l-0.8,1l-0.2,0.2l-2,0.4l0.2,1.6l1.5,0.8l2.2,0.5l0.6,2l0,0l0,0v0.1v0.1l-0.5,3.4l0,0v0.1l-0.8,1.5v0.3h-0.2l-2.5,0.4v1l-0.699,2.2
		l-0.301,2.5l0.5,1.4l3.1,1.9l0.101,0.1l1.3,2.2v0.1l0.1,0.1l-0.1,0.1l-1.6,3.5l-0.4,1l0,0l-1,2.3l-0.4,1.8l-0.1,0.2v0.1
		c-0.5,0.4-0.8,0.8-1,1.4c-0.1,0.2-0.1,0.4,0.1,0.6l0.101,0.1l1,1.1l0,0l0,0l0.5,0.8l0.2-0.1l0,0l0.1,0.3v0.1v0.3l0,0v0.1l0,0l0,0
		l0.2,0.6l0.899,0.3l3.601,0.8c1.2,0,2.3-0.3,3.5-0.8s2.3-0.6,3.5-0.4l0.199-0.7l-1.199-2.7l-0.101-0.2h0.101l5.699-7.9l6.101-5.9
		h0.1l1.9-0.7l1-1.1v-0.1c0.801-0.6,1.5-1,2.301-1.3l-0.601-0.5l-1.301-1.3v-0.1h-0.099l-1-1.2l-0.101-0.2v-0.2l0.5-0.6l-1.301,0.3
		l-2.8-0.7c-1.1-0.5-1.799-1.1-2-1.8c-0.6-1.8-0.799-3.4-0.7-4.8c-0.399,0.5-0.899,0.6-1.399,0.6l-2.101-0.5l-1.399-1l-1.699-0.4
		h-0.801c-0.5,0-1.101-0.2-1.5-0.6c-0.6-0.4-0.9-0.8-1-1.2c-0.199-0.8,0-1.3,0.7-1.8c0.699-0.5,1.5-1.3,2.199-2.3
		c-0.699-0.9-1-1.8-0.699-2.7l0.101-0.1c0.099-0.5,0.899-0.9,2.399-1.4c0.101-0.5,0.3-0.8,0.5-0.9l1.5,0.1l-0.2-0.2
		c-1-0.6-1.3-1.3-0.8-2.1l0.8-0.6c0.899-0.3,2-0.2,3.1,0.4l2.3,1.6h2.101l0.7,0.6l0.199,0.8c0,0.5-0.3,0.8-0.699,0.8
		c-0.5,0-0.7,0.5-0.801,1.1l1,2.4c0.601-0.9,1.2-1.4,1.801-1.5c0.3,0,0.699,0.2,1,0.6c0.3,0.5,0.601,1.4,0.8,2.3
		c0.1,1.1,0.399,2,0.7,2.5l0.8,1.1c1.2,1.5,1.899,2.6,2.1,3.5l3.9-0.5l1.7-0.9l1.601-2l0.699-1.9v-0.1v-0.1l0.5-2v-0.1l0.1-0.2
		h0.101l1.5-1l0.3-0.2l-0.101-0.1l-2.5-0.8h-0.199v-0.1l-0.5-1.5L406.721,355.913z"/>
	<path fill="#A4BFD9" d="M356.421,412.313h-0.101l-7.6,3.1l-2.3,2.2c-0.399,3.4,0,5.4,1.2,6l2.199,1.399h0.101v0.101l0.601,3.699
		c1.899,2.5,3.199,3.801,3.899,4.101l2.2,0.5l0.3,0.1v0.101c0.3,0.399,1,0.8,2.3,1.199l6,0.301c4.4,0,6.9,0.3,7.4,0.8
		c0.5,0.399,0.6,1.399,0.5,2.899c-0.1,1,0,1.601,0.1,1.7l2.2-0.5c1.7-0.6,2.7-0.6,3.2-0.1l0.8,1c1.199,1.5,2,2.1,2.199,2
		c0.601-0.2,1.301-0.8,2-1.8l0.2-0.301l1.8,1.101l1.101-0.9c0.301-1.399,1-2.1,2.2-2.2l0.5-0.199l-0.2-0.4l-0.199-0.2l0.099-0.1
		l0.101-2.5c-0.8-1.2-1.8-1.601-2.9-1.4c-1.1,0.3-1.899,0.3-2.2-0.1c-0.199-0.3-0.199-0.5-0.199-0.9c-0.7-1.2-1.399-2.2-2.301-3.1
		c-1.199-1-1.5-1.9-1.199-2.8l0.199-0.301l2.801,0.5l-0.2-1.699c-0.101-1,0-1.7,0.5-2.2c0.2-0.4,0.7-0.601,1.2-0.7l1.199-0.4v-0.5
		c-0.899-1.899-1.199-3.3-0.8-3.899l0.601-0.5c0.3-0.1,1.3,0.1,2.699,0.6l0,0l0.101,0.1v0.2c1.1,1.3,1.7,2.1,2,2.3l1.899-3.1
		c-1.699-2.1-2.599-3.6-2.899-4.2l-1.5,1l-0.199-0.2l-4-1h-0.101v-0.1c-1.7-0.8-2.7-1.7-2.801-2.6l-2.399-1.1v-2.3l4.399-2.6
		c-0.199-1.2-0.5-2.4-1-3.4l-0.699-1.4l-3,0.3c-1.399,0.6-2.7,0.9-4,0.9l-3.101-0.7v-1.1l-0.5-0.1l-0.899-0.3l-0.2-0.6l0,0v-0.1l0,0
		l0,0l-0.1-0.3v-0.1v-0.3l-0.2,0.1l-0.2,2.6l-0.1,0.9c-0.2,0.5-0.4,0.8-0.2,1c0.5,0.7,0.399,1.5-0.101,2.2l0.4,1.7l-0.1,0.1
		l-0.2,0.1l-1.2,1.1v2.3l-0.3,0.1c-2.2,1-3.7,1.5-4.601,1.5l-4.399-0.3l-1.899,1.7H356.421z"/>
	<path fill="#E1E8F5" d="M443.221,495.013c-3.199,2.3-5.5,5.2-7,8.7c-1.3,3-2.3,4.5-3,4.9l0.7,5.5v0.1l0,0l-0.5,3.8
		c-0.2,1.2,0,2,0.3,2.2l4.1,2.7l0,0h0.101l0.101,0.3l0,0c0.199,0.9,0.799,1.7,1.599,2.7c0.401,0.6,0.901,0.899,1.301,1.1l0.601-6.6
		v-0.2l2.899-7l1-8.3v-0.101l0.101-0.1l0.899-2.2l-0.7-1.899v-0.101h-0.101l-0.199-2.6l0.101-0.101l0.099-0.1l0.5-0.6l0.301-0.7
		L443.221,495.013z"/>
	<path fill="#B5CADC" d="M344.721,553.513l-0.3,0.5v0.101l-0.101,0.199l-4.1,1l0.2,0.5l1.3,1.5c-0.1,0-0.3,0.101-0.4,0.101l-1.899,1
		l-3,2.3c-1,1.2-0.8,3.4,0.7,6.7l3,0.3h0.1v0.1l3,1.4l3.2-0.5c1.3-0.3,2.8-1.5,4.7-3.8h0.1l0.2-0.2l1.399-0.4l-0.399-4.199v-0.2
		l1.8-2.601v-0.1h0.1l1.4-1.1c0.2-1.2,0.1-2.301-0.4-3.2c-0.399-0.8-0.899-1.101-1.399-1.101l0.2,1.5l-2.7-0.5l-1.2,0.7h-0.1l0,0
		H344.721z"/>
</g>
</svg>
