<?xml version="1.0" standalone="no"?><!DOCTYPE svg PUBLIC "-//W3C//DTD SVG 1.1//EN" "http://www.w3.org/Graphics/SVG/1.1/DTD/svg11.dtd"><svg t="1611147247716" class="icon" viewBox="0 0 1024 1024" version="1.1" xmlns="http://www.w3.org/2000/svg" p-id="3374" xmlns:xlink="http://www.w3.org/1999/xlink" width="200" height="200"><defs><style type="text/css"></style></defs><path d="M841 822c-0.7 0.6-69 55.2-207.2-3.8-163.5-69.7-288.8-1.7-294 1.2-12.2 6.8-16.6 22.2-9.8 34.4 6.8 12.2 22.2 16.6 34.4 9.8 1.1-0.6 108.6-58.9 249.5 1.2 54.7 23.3 101 31.2 138.8 31.2 77 0 118.1-32.9 120.6-35 10.8-8.9 12.3-24.9 3.3-35.6-8.9-10.8-24.8-12.3-35.6-3.4zM529.3 488.7c-9.9-9.9-25.9-9.9-35.8 0L370.9 611.3c7.5-51.4 63.7-153.6 171.2-261.1 64-64 132-115.9 191.5-146.1 54.9-27.9 89.6-30.1 99.8-20 24.9 24.9-28.7 153.8-166.1 291.3-51.9 51.9-106.4 95.8-157.7 127.1-11.9 7.3-15.7 22.9-8.4 34.8 7.3 11.9 22.9 15.7 34.8 8.4 54.7-33.4 112.4-79.9 167.1-134.6 67.7-67.7 122.9-140.3 155.5-204.4 47.1-92.7 31.8-137.3 10.7-158.5-21.1-21.1-65.8-36.4-158.5 10.7-64.1 32.6-136.7 87.8-204.4 155.5-119 119-211.6 266.9-180.3 341.8L142 840.2c-9.9 9.9-9.9 25.9 0 35.8 4.9 4.9 11.4 7.4 17.9 7.4s13-2.5 17.9-7.4l351.5-351.5c9.9-9.9 9.9-25.9 0-35.8z" p-id="3375" fill="#ffffff"></path></svg>