<?xml version="1.0" encoding="utf-8"?>
<!-- Generator: Adobe Illustrator 16.0.0, SVG Export Plug-In . SVG Version: 6.00 Build 0)  -->
<!DOCTYPE svg PUBLIC "-//W3C//DTD SVG 1.1//EN" "http://www.w3.org/Graphics/SVG/1.1/DTD/svg11.dtd">
<svg version="1.1" id="图层_1" xmlns="http://www.w3.org/2000/svg" xmlns:xlink="http://www.w3.org/1999/xlink" x="0px" y="0px"
	 width="140px" height="100px" viewBox="0 0 140 100" enable-background="new 0 0 140 100" xml:space="preserve">
<g id="csv" transform="translate(1960.000000, 0.000000)">
	<rect id="Path_8_" x="-1960" fill="#5EC429" width="140" height="100"/>
	<path id="CSV" fill="#FFFFFF" d="M-1920.531,67.867c8.156,0,14.109-5.039,14.695-12.352h-6.891
		c-0.68,3.727-3.727,6.117-7.781,6.117c-5.344,0-8.648-4.43-8.648-11.555s3.305-11.531,8.625-11.531
		c4.031,0,7.102,2.555,7.781,6.445h6.891c-0.516-7.359-6.656-12.68-14.672-12.68c-9.82,0-15.867,6.773-15.867,17.766
		C-1936.398,61.094-1930.328,67.867-1920.531,67.867z M-1903.674,57.602c0.258,6.305,5.484,10.266,13.547,10.266
		c8.484,0,13.711-4.172,13.711-10.992c0-5.25-2.93-8.18-9.727-9.609l-4.078-0.867c-3.961-0.844-5.578-2.039-5.578-4.125
		c0-2.578,2.344-4.219,5.883-4.219c3.422,0,5.906,1.781,6.234,4.453h6.656c-0.211-6.023-5.484-10.195-12.938-10.195
		c-7.805,0-12.938,4.195-12.938,10.57c0,5.156,3.023,8.367,9.188,9.656l4.406,0.938c4.148,0.891,5.836,2.133,5.836,4.289
		c0,2.555-2.602,4.336-6.281,4.336c-3.984,0-6.75-1.758-7.078-4.5H-1903.674z M-1854.988,67l11.273-33.82h-7.617l-7.547,25.852
		h-0.422l-7.688-25.852h-7.992l11.438,33.82H-1854.988z"/>
</g>
</svg>
