<?xml version="1.0" encoding="utf-8"?>
<!-- Generator: Adobe Illustrator 16.0.0, SVG Export Plug-In . SVG Version: 6.00 Build 0)  -->
<!DOCTYPE svg PUBLIC "-//W3C//DTD SVG 1.1//EN" "http://www.w3.org/Graphics/SVG/1.1/DTD/svg11.dtd">
<svg version="1.1" id="图层_1" xmlns="http://www.w3.org/2000/svg" xmlns:xlink="http://www.w3.org/1999/xlink" x="0px" y="0px"
	 width="140px" height="100px" viewBox="0 0 140 100" enable-background="new 0 0 140 100" xml:space="preserve">
<path id="Shape_16_" fill="#FFFFFF" d="M87.25,50.96v-5.693c-3.71,2.027-10.436,3.041-20.175,3.041
	c-8.745,0-15.438-1.014-20.075-3.041v7.753c1.06,0.879,3.379,1.673,6.957,2.383c3.577,0.709,7.95,1.063,13.118,1.063
	c3.578,0,6.885-0.166,9.918-0.499c0.452-0.777,1.026-1.509,1.724-2.192c1.979-1.938,4.344-2.908,7.096-2.908
	C86.304,50.867,86.783,50.897,87.25,50.96z M77.256,65.886c0.095,0.439,0.221,0.879,0.378,1.318
	c-2.975,0.309-6.378,0.463-10.211,0.463c-5.486,0-10.063-0.34-13.731-1.018C50.023,65.97,47,63.749,47,63.687v-7.22
	c4.626,1.852,11.302,2.776,20.026,2.776c3.135,0,6.102-0.139,8.9-0.42c-0.118,0.613-0.177,1.249-0.177,1.907
	C75.75,62.652,76.252,64.371,77.256,65.886z M67.074,34.067c-3.785,0-7.215-0.187-10.29-0.56c-3.076-0.373-5.476-0.887-7.199-1.54
	S47,30.614,47,29.867c0-1.183,1.909-2.178,5.729-2.987c3.818-0.809,8.601-1.213,14.346-1.213c3.785,0,7.232,0.187,10.342,0.56
	c3.108,0.374,5.525,0.887,7.249,1.54s2.585,1.353,2.585,2.1c0,1.182-1.927,2.178-5.779,2.986
	C77.618,33.663,72.819,34.067,67.074,34.067z M87.25,41.921c-0.331,0.525-1.358,1.033-3.081,1.525s-4.107,0.918-7.155,1.279
	s-6.36,0.542-9.938,0.542c-5.168,0-9.541-0.345-13.118-1.034c-3.578-0.688-5.897-1.459-6.957-2.313v-7.854
	c3.71,2.166,10.402,3.248,20.075,3.248c2.187,0,4.307-0.082,6.36-0.246s3.992-0.377,5.814-0.64c1.821-0.263,3.445-0.591,4.869-0.984
	c1.425-0.394,2.469-0.853,3.131-1.378V41.921z M85.813,53.667c1.966,0,3.655,0.692,5.068,2.077C92.294,57.13,93,58.785,93,60.712
	c0,1.928-0.706,3.568-2.119,4.923s-3.103,2.032-5.068,2.032s-3.655-0.678-5.068-2.032s-2.119-2.995-2.119-4.923
	c0-1.927,0.706-3.582,2.119-4.968C82.157,54.359,83.847,53.667,85.813,53.667z"/>
<g id="data7" transform="translate(840.000000, 0.000000)">
	<rect id="Path_16_" x="-840" opacity="0.8" fill="#80C522" enable-background="new    " width="140" height="100"/>
	<path id="Shape_1_" fill="#FFFFFF" d="M-749.75,55.293V49.6c-3.709,2.027-10.436,3.041-20.174,3.041
		c-8.745,0-15.438-1.014-20.075-3.041v7.754c1.06,0.879,3.379,1.673,6.957,2.383c3.577,0.709,7.95,1.063,13.118,1.063
		c3.579,0,6.885-0.166,9.918-0.499c0.451-0.777,1.025-1.509,1.723-2.192c1.979-1.938,4.344-2.908,7.096-2.908
		C-750.695,55.2-750.217,55.23-749.75,55.293z M-759.744,70.219c0.096,0.439,0.221,0.879,0.379,1.318
		C-762.34,71.846-765.744,72-769.577,72c-5.486,0-10.063-0.34-13.731-1.018c-3.668-0.68-6.691-2.9-6.691-2.963V60.8
		c4.626,1.852,11.302,2.776,20.026,2.776c3.135,0,6.102-0.139,8.901-0.42c-0.119,0.613-0.178,1.249-0.178,1.907
		C-761.25,66.985-760.748,68.704-759.744,70.219z M-769.925,38.4c-3.785,0-7.215-0.187-10.29-0.56
		c-3.076-0.373-5.476-0.887-7.199-1.54S-790,34.947-790,34.2c0-1.183,1.909-2.178,5.729-2.987c3.818-0.809,8.601-1.213,14.346-1.213
		c3.785,0,7.232,0.187,10.341,0.56s5.525,0.887,7.25,1.54c1.723,0.653,2.584,1.353,2.584,2.1c0,1.182-1.926,2.178-5.779,2.986
		C-759.381,37.996-764.18,38.4-769.925,38.4z M-749.75,46.254c-0.33,0.525-1.357,1.033-3.08,1.525s-4.107,0.918-7.156,1.279
		c-3.047,0.361-6.359,0.541-9.938,0.541c-5.168,0-9.541-0.344-13.118-1.033c-3.578-0.688-5.897-1.459-6.957-2.313V38.4
		c3.71,2.166,10.402,3.249,20.075,3.249c2.186,0,4.307-0.082,6.36-0.247c2.055-0.164,3.992-0.377,5.814-0.64
		c1.822-0.263,3.445-0.591,4.869-0.984c1.426-0.394,2.469-0.853,3.131-1.378V46.254z M-751.188,58c1.967,0,3.656,0.692,5.068,2.077
		c1.414,1.386,2.119,3.041,2.119,4.968c0,1.928-0.705,3.568-2.119,4.923c-1.412,1.354-3.102,2.032-5.068,2.032
		c-1.965,0-3.654-0.678-5.068-2.032c-1.412-1.354-2.119-2.995-2.119-4.923c0-1.927,0.707-3.582,2.119-4.968
		C-754.842,58.692-753.152,58-751.188,58z"/>
</g>
</svg>
