<?xml version="1.0" encoding="utf-8"?>
<!-- Generator: Adobe Illustrator 16.0.0, SVG Export Plug-In . SVG Version: 6.00 Build 0)  -->
<!DOCTYPE svg PUBLIC "-//W3C//DTD SVG 1.1//EN" "http://www.w3.org/Graphics/SVG/1.1/DTD/svg11.dtd">
<svg version="1.1" id="图层_1" xmlns="http://www.w3.org/2000/svg" xmlns:xlink="http://www.w3.org/1999/xlink" x="0px" y="0px"
	 width="140px" height="100px" viewBox="0 0 140 100" enable-background="new 0 0 140 100" xml:space="preserve">
<g id="data1">
	<rect id="Rectangle-20_2_" opacity="0.8" fill="#226E44" enable-background="new    " width="140" height="100"/>
	<g id="Page-1_4_" transform="translate(48.000000, 28.000000)">
		<g id="Group-3_2_" transform="translate(0.000000, 0.022015)">
			<path id="Fill-1_7_" fill="#FFFFFF" d="M12.877,23.804c0.185,0.357,0.361,0.636,0.479,0.937c0.436,1.11,0.91,2.212,1.261,3.351
				c0.356,1.154,0.457,1.299,1.672,1.371c0.162,0.01,0.319,0.083,0.481,0.1c0.502,0.053,1.005,0.094,1.669,0.153
				c-0.259-0.482-0.447-0.792-0.598-1.12c-1.019-2.207-2.033-4.416-3.037-6.629c-0.078-0.172-0.138-0.429-0.069-0.581
				c0.706-1.553,1.441-3.092,2.165-4.636c0.441-0.942,0.876-1.888,1.344-2.896c-0.922,0-1.712-0.028-2.498,0.021
				c-0.191,0.012-0.444,0.237-0.536,0.429c-0.319,0.67-0.586,1.368-0.863,2.058c-0.409,1.019-0.81,2.042-1.278,3.225
				c-0.194-0.349-0.329-0.53-0.4-0.734c-0.145-0.409-0.245-0.833-0.381-1.245c-0.296-0.901-0.586-1.805-0.916-2.693
				c-0.083-0.224-0.298-0.551-0.468-0.561c-0.748-0.043-1.502-0.005-2.25,0.051c-0.108,0.008-0.313,0.323-0.276,0.421
				c0.405,1.085,0.829,2.164,1.287,3.227c0.482,1.117,1.017,2.21,1.502,3.326c0.076,0.174,0.076,0.442-0.002,0.614
				c-0.607,1.351-1.241,2.688-1.868,4.029c-0.459,0.982-0.92,1.964-1.399,2.985c0.847,0.046,1.635,0.115,2.423,0.109
				c0.188-0.001,0.468-0.214,0.546-0.399C11.534,27.148,12.164,25.562,12.877,23.804 M25.732,0.105v43.669
				c-0.85-0.082-1.672-0.133-2.484-0.252c-0.687-0.1-1.359-0.297-2.042-0.422c-1.197-0.219-2.398-0.417-3.599-0.622
				c-1.056-0.181-2.113-0.354-3.167-0.542c-1.543-0.277-3.084-0.573-4.628-0.843c-0.854-0.149-1.719-0.241-2.573-0.396
				c-1.313-0.236-2.619-0.521-3.933-0.755c-0.855-0.153-1.716-0.312-2.581-0.358c-0.63-0.035-0.739-0.305-0.724-0.867
				c0.035-1.357,0.011-2.715,0.011-4.072V5.574c0-0.999,0.005-0.966,0.964-1.13c1.381-0.236,2.75-0.543,4.131-0.786
				c0.979-0.172,1.973-0.265,2.953-0.437c1.194-0.209,2.381-0.464,3.571-0.701c0.444-0.089,0.884-0.201,1.332-0.271
				c1.51-0.237,3.025-0.443,4.533-0.694c1.524-0.253,3.041-0.551,4.563-0.821C23.256,0.523,24.454,0.324,25.732,0.105"/>
		</g>
		<g id="Fill-4-Clipped_1_">
			<g>
				<g id="path-13_1_">
				</g>
				<defs>
					<filter id="Adobe_OpacityMaskFilter" filterUnits="userSpaceOnUse" x="26.864" y="5.269" width="18.076" height="33.531">
						<feColorMatrix  type="matrix" values="1 0 0 0 0  0 1 0 0 0  0 0 1 0 0  0 0 0 1 0"/>
					</filter>
				</defs>
				<mask maskUnits="userSpaceOnUse" x="26.864" y="5.269" width="18.076" height="33.531" id="mask-14_2_">
					<g filter="url(#Adobe_OpacityMaskFilter)">
						<polygon id="path-13_3_" fill="#FFFFFF" points="0,43.797 44.939,43.797 44.939,0.127 0,0.127 						"/>
					</g>
				</mask>
				<path id="Fill-4_3_" mask="url(#mask-14_2_)" fill="#FFFFFF" d="M34.705,23.926h7.255v-4.303h-7.255V23.926z M34.696,18.082
					h7.252v-4.323h-7.252V18.082z M34.703,35.785h7.237v-4.457h-7.237V35.785z M34.693,29.911h7.25v-4.439h-7.25V29.911z
					 M34.701,12.223h7.263V7.784h-7.263V12.223z M33.192,12.294V7.771h-6.313V5.269h0.679c5.451,0,10.902,0,16.353,0
					c1.027,0,1.028,0.002,1.028,1.009c0,10.495,0,20.99,0,31.485c0,0.946-0.083,1.035-0.984,1.035
					C38.462,38.801,32.969,38.8,27.477,38.8h-0.602v-2.958h6.303v-4.523h-6.307V29.98h6.311v-4.522h-6.314v-1.465h6.317v-4.396
					h-6.321v-1.443h6.302v-4.396h-6.284v-1.464H33.192z"/>
			</g>
		</g>
	</g>
</g>
</svg>
