<?xml version="1.0" encoding="utf-8"?>
<!-- Generator: Adobe Illustrator 16.0.0, SVG Export Plug-In . SVG Version: 6.00 Build 0)  -->
<!DOCTYPE svg PUBLIC "-//W3C//DTD SVG 1.1//EN" "http://www.w3.org/Graphics/SVG/1.1/DTD/svg11.dtd">
<svg version="1.1" id="图层_1" xmlns="http://www.w3.org/2000/svg" xmlns:xlink="http://www.w3.org/1999/xlink" x="0px" y="0px"
	 width="140px" height="100px" viewBox="0 0 140 100" enable-background="new 0 0 140 100" xml:space="preserve">
<g id="data1">
	<rect id="Rectangle-20_2_" opacity="0.8" fill="#226E44" enable-background="new    " width="140" height="100"/>
	<g id="Page-1_4_" transform="translate(48.000000, 28.000000)">
		<g id="Group-3_2_" transform="translate(0.000000, 0.022015)">
			<path id="Fill-1_7_" fill="#FFFFFF" d="M-13.123,1.97c0.185,0.357,0.361,0.636,0.479,0.938c0.436,1.109,0.91,2.211,1.261,3.351
				c0.356,1.153,0.457,1.299,1.672,1.37c0.162,0.011,0.319,0.084,0.481,0.101c0.502,0.054,1.005,0.095,1.669,0.153
				C-7.82,7.399-8.008,7.09-8.159,6.762c-1.019-2.207-2.033-4.416-3.037-6.629c-0.078-0.172-0.138-0.429-0.069-0.581
				c0.706-1.553,1.441-3.092,2.165-4.636c0.441-0.942,0.876-1.888,1.344-2.896c-0.922,0-1.712-0.028-2.498,0.021
				c-0.191,0.012-0.444,0.237-0.536,0.429c-0.319,0.67-0.586,1.368-0.863,2.058c-0.409,1.019-0.81,2.042-1.278,3.225
				c-0.194-0.349-0.329-0.53-0.4-0.734c-0.145-0.409-0.245-0.833-0.381-1.245c-0.296-0.901-0.586-1.805-0.916-2.693
				c-0.083-0.224-0.298-0.551-0.468-0.561c-0.748-0.043-1.502-0.005-2.25,0.051c-0.108,0.008-0.313,0.323-0.276,0.421
				c0.405,1.085,0.829,2.164,1.287,3.227c0.482,1.117,1.017,2.21,1.502,3.326c0.076,0.174,0.076,0.442-0.002,0.614
				c-0.607,1.351-1.241,2.688-1.868,4.029c-0.459,0.981-0.92,1.964-1.399,2.985c0.847,0.046,1.635,0.115,2.423,0.109
				c0.188-0.002,0.468-0.215,0.546-0.399C-14.466,5.313-13.836,3.728-13.123,1.97 M-0.268-21.73v43.669
				c-0.851-0.082-1.672-0.133-2.484-0.252c-0.688-0.101-1.359-0.297-2.042-0.422c-1.197-0.22-2.398-0.417-3.599-0.622
				c-1.056-0.182-2.113-0.354-3.167-0.542c-1.543-0.276-3.084-0.573-4.628-0.843c-0.854-0.149-1.719-0.241-2.573-0.396
				c-1.313-0.236-2.619-0.521-3.933-0.755c-0.855-0.153-1.716-0.312-2.581-0.358c-0.63-0.034-0.739-0.305-0.724-0.866
				c0.035-1.357,0.011-2.716,0.011-4.072V-16.26c0-0.999,0.005-0.966,0.964-1.13c1.381-0.236,2.75-0.543,4.131-0.786
				c0.979-0.172,1.973-0.265,2.953-0.437c1.194-0.209,2.381-0.464,3.571-0.701c0.444-0.089,0.884-0.201,1.332-0.271
				c1.51-0.237,3.025-0.443,4.533-0.694c1.524-0.253,3.041-0.551,4.563-0.821C-2.744-21.312-1.546-21.51-0.268-21.73"/>
		</g>
		<g id="Fill-4-Clipped_1_">
			<g>
				<g id="path-13_1_">
				</g>
				<defs>
					<filter id="Adobe_OpacityMaskFilter" filterUnits="userSpaceOnUse" x="0.863" y="-16.565" width="18.076" height="33.531">
						<feColorMatrix  type="matrix" values="1 0 0 0 0  0 1 0 0 0  0 0 1 0 0  0 0 0 1 0"/>
					</filter>
				</defs>
				<mask maskUnits="userSpaceOnUse" x="0.863" y="-16.565" width="18.076" height="33.531" id="mask-14_2_">
					<g filter="url(#Adobe_OpacityMaskFilter)">
						<polygon id="path-13_3_" fill="#FFFFFF" points="-26,21.962 18.939,21.962 18.939,-21.708 -26,-21.708 						"/>
					</g>
				</mask>
				<path id="Fill-4_3_" mask="url(#mask-14_2_)" fill="#FFFFFF" d="M8.705,2.091h7.255v-4.303H8.705V2.091z M8.695-3.752h7.253
					v-4.323H8.695V-3.752z M8.703,13.951h7.236V9.494H8.703V13.951z M8.693,8.077h7.25V3.638h-7.25V8.077z M8.701-9.611h7.263
					v-4.439H8.701V-9.611z M7.191-9.541v-4.523H0.879v-2.502h0.68c5.45,0,10.901,0,16.353,0c1.026,0,1.028,0.002,1.028,1.009
					c0,10.495,0,20.99,0,31.486c0,0.945-0.084,1.034-0.984,1.034c-5.493,0.003-10.986,0.002-16.479,0.002H0.875v-2.958h6.303V9.484
					H0.871V8.146h6.311V3.624H0.868V2.159h6.317v-4.396H0.863v-1.443h6.303v-4.396H0.882v-1.464H7.191z"/>
			</g>
		</g>
	</g>
</g>
<g id="csv" transform="translate(1960.000000, 0.000000)">
	<path id="CSV" fill="#FFFFFF" d="M-1877.494,81.037c4.878,0,8.438-3.014,8.788-7.387h-4.121c-0.406,2.229-2.228,3.658-4.653,3.658
		c-3.195,0-5.171-2.648-5.171-6.909s1.976-6.896,5.157-6.896c2.411,0,4.247,1.527,4.653,3.854h4.121
		c-0.309-4.4-3.98-7.582-8.774-7.582c-5.872,0-9.488,4.051-9.488,10.624C-1886.982,76.986-1883.353,81.037-1877.494,81.037z
		 M-1867.413,74.898c0.154,3.77,3.279,6.139,8.101,6.139c5.074,0,8.199-2.495,8.199-6.573c0-3.14-1.752-4.892-5.816-5.746
		l-2.438-0.519c-2.368-0.505-3.336-1.22-3.336-2.467c0-1.542,1.401-2.523,3.519-2.523c2.046,0,3.531,1.065,3.728,2.663h3.98
		c-0.126-3.602-3.279-6.097-7.736-6.097c-4.667,0-7.736,2.509-7.736,6.321c0,3.083,1.808,5.003,5.494,5.774l2.635,0.561
		c2.48,0.532,3.489,1.275,3.489,2.564c0,1.528-1.556,2.593-3.756,2.593c-2.383,0-4.036-1.051-4.232-2.69H-1867.413z
		 M-1838.299,80.519l6.741-20.225h-4.555l-4.514,15.459h-0.252l-4.598-15.459h-4.779l6.84,20.225H-1838.299z"/>
</g>
</svg>
