<?xml version="1.0" encoding="utf-8"?>
<!-- Generator: Adobe Illustrator 16.0.0, SVG Export Plug-In . SVG Version: 6.00 Build 0)  -->
<!DOCTYPE svg PUBLIC "-//W3C//DTD SVG 1.1//EN" "http://www.w3.org/Graphics/SVG/1.1/DTD/svg11.dtd">
<svg version="1.1" id="图层_1" xmlns="http://www.w3.org/2000/svg" xmlns:xlink="http://www.w3.org/1999/xlink" x="0px" y="0px"
	 width="140px" height="100px" viewBox="0 0 140 100" enable-background="new 0 0 140 100" xml:space="preserve">
<g id="data3" transform="translate(280.000000, 0.000000)">
	<rect id="Path_19_" x="-280" y="0.851" opacity="0.8" fill="#FFEF22" enable-background="new    " width="140" height="100"/>
	<g id="Page-1_3_" transform="translate(35.000000, 21.000000)">
		<polygon id="Fill-1_6_" points="-238.141,50.229 -238.141,63.742 -234.82,63.742 -234.82,57.531 -234.135,57.545 -234.135,63.742 
			-230.776,63.742 -230.776,50.229 -234.135,50.229 -234.135,55.242 -234.82,55.242 -234.82,50.229 		"/>
		<polygon id="Stroke-2" fill="none" stroke="#FDEE21" stroke-width="0.5129" points="-238.141,50.229 -238.141,63.742 
			-234.82,63.742 -234.82,57.531 -234.135,57.545 -234.135,63.742 -230.776,63.742 -230.776,50.229 -234.135,50.229 
			-234.135,55.242 -234.82,55.242 -234.82,50.229 		"/>
		<polygon id="Fill-4_2_" points="-229.878,63.742 -226.644,63.742 -226.644,50.229 -229.878,50.229 		"/>
		<g id="Group-40" transform="translate(0.000000, 0.000981)">
			<polygon id="Stroke-5" fill="none" stroke="#FDEE21" stroke-width="0.5129" points="-229.878,63.741 -226.644,63.741 
				-226.644,50.228 -229.878,50.228 			"/>
			<path id="Fill-7_3_" d="M-226.114,50.228l2.556,13.514h3.856l2.555-13.514h-3.433l-0.847,5.781c-0.07,0.223-0.309,0.223-0.352,0
				l-0.846-5.781H-226.114z"/>
			<path id="Stroke-8" fill="none" stroke="#FDEE21" stroke-width="0.5129" d="M-226.114,50.228l2.556,13.514h3.856l2.555-13.514
				h-3.433l-0.847,5.781c-0.07,0.223-0.309,0.223-0.352,0l-0.846-5.781H-226.114z"/>
			<polygon id="Fill-9_2_" points="-210.04,50.228 -216.46,50.228 -216.46,63.741 -210.04,63.741 -210.04,60.198 -213.61,60.167 
				-213.61,58.647 -211.909,58.647 -211.909,55.13 -213.61,55.13 -213.61,53.771 -210.04,53.771 			"/>
			<polygon id="Stroke-10" fill="none" stroke="#FDEE21" stroke-width="0.5129" points="-210.04,50.228 -216.46,50.228 
				-216.46,63.741 -210.04,63.741 -210.04,60.198 -213.61,60.167 -213.61,58.647 -211.909,58.647 -211.909,55.13 -213.61,55.13 
				-213.61,53.771 -210.04,53.771 			"/>
			<path id="Fill-11_2_" fill="#FDEE21" d="M-244.711,9.243c-0.541-1.479-19.143-8.705-19.381-7.912
				c-3.415,0.89-4.806,4.823-7.155,7.314l-5.218-0.298c-2.299,2.953-3.505,5.97-2.684,9.106c2.946,3.988,6.366,7.381,8.497,12.391
				c0.169,2.361,10.229,0.248,12.385-0.221c-2.945,2.107-5.511,5.371-4.408,14.775c1.006,4.416,1.694,9.346,10.619,14.342
				c1.175,0.656,3.605,1.416,5.108,1.969c1.438,0.658,3.119,0.93,7.861-0.52c2.744-1.182,5.707-1.895,8.392-3.072l-3.228,0.15
				c-4.444,0.098-7.876,0.428-8.935-0.813l-4.09-7.055l2.385-4.629c3.3,0.338,4.396,3.012,7.305,4.031l3.429-2.539
				c9.959,5.875,13.922-3.721,15.058-11.195c-0.122-3.041-6.59,0.953-6.198-0.469c0.152-3.268-2.515-7.545-4.238-10.877l1.994-7.709
				c0.905-0.805-4.188-9.381-8.348-10.45C-239.21,4.625-244.711,9.243-244.711,9.243L-244.711,9.243z"/>
			<path id="Fill-12_2_" fill="#C8C037" d="M-228.35,25.627c0.035,0.827,0.031,1.834,0.111,2.463
				c-0.014,0.479-0.373,0.496-0.671,0.597l1.938,0.709c0.385,0.648,0.693,1.294,1.006,1.941c0.362,1.592,0.092,1.637-0.149,1.754
				c-0.703,0.008-1.404,0.01-2.059-0.131c0.293,0.156,0.357,0.268,0.389,0.467c0.058,0.365-0.178,0.863-0.565,1.344
				c0.573,0.318,1.618,0.629,2.395,0.924l0.885-1.969C-225.471,30.833-226.687,28.168-228.35,25.627L-228.35,25.627z"/>
			<path id="Fill-13_3_" fill="#C8C037" d="M-224.732,35.327c1.074,0.449,2.56,0.316,4.618-0.742
				c0.307-0.219,0.592-0.088,0.043,0.27C-222.771,37.276-224.063,36.063-224.732,35.327z"/>
			<path id="Fill-14_1_" fill="#C8C037" d="M-219.908,34.267c0.319,0.611,0.126,1.107,0.019,1.623
				c-0.333,2.625-1.151,4.699-2.758,6.867c-5.224,8.393-10.498,3.141-14.702-0.275l-1.739,4.354
				c-0.093,0.383-0.477,0.68,2.239,1.875l2.768-1.953C-223.528,54.778-216.051,35.526-219.908,34.267L-219.908,34.267z"/>
			<path id="Fill-15_2_" fill="#C8C037" d="M-236.077,41.765c-0.712,0.051-2.831,0.771-2.926,1.188l0.976-1.451L-236.077,41.765z"/>
			<path id="Fill-16_1_" fill="#C8C037" d="M-237.462,32.868c0.131,0,0.757,0.168,0.689,0.129c-0.096-0.053-0.011,0.879,0.187,1.363
				l-0.765,1.66c1.464-1.686,3.778-1.574,5.927-1.791l-1.025-0.635c0.178-0.594-0.031-1.063-0.13-1.566L-237.462,32.868z"/>
			<path id="Fill-17_1_" fill="#C8C037" d="M-233.866,27.867c-1.57,0.48-3.073,1.267-4.082,2.941c0.77-2.76,0.927-2.655,1.176-2.792
				C-235.696,27.535-234.814,27.834-233.866,27.867z"/>
			<path id="Fill-18_2_" fill="#FCF7A0" d="M-242.251,60.224c-1.898,2.094-6.135-0.158-9.653-1.305
				c-8.94-5.68-10.687-11.027-10.808-16.273c-0.46-7.514,1.85-11.879,4.771-12.912c-1.934,3.723-2.835,10.406-1.938,15.375
				c0.724,2.766,0.738,7.43,5.369,9.926c2.268,1.275,1.653,2.268,3.187,3.463C-249.645,59.806-244.96,61.05-242.251,60.224
				L-242.251,60.224z"/>
			<path id="Fill-19_2_" fill="#FCF7A0" d="M-239.415,25.5c-3.214-4.555-7.735-6.265-12.834-6.451
				c1.021-0.333,2.044-0.506,3.065-0.998c0.25-0.264,0.169-0.726,0.075-1.195c-4.908-1.279-8.006-2.862-11.927-4.329l10.585,2.538
				C-243.302,15.336-243.916,17.099-239.415,25.5L-239.415,25.5z"/>
			<path id="Fill-20_2_" fill="#FCF7A0" d="M-235.973,23.303c-2.376-3.388-4.68-7.5-7.808-10.115
				c-7.55-3.404-15.019-5.933-23.771-8.234l2.794-3.589c9.288,2.118,18.012,5.663,25.826,11.506
				C-237.609,16.21-236.728,19.555-235.973,23.303L-235.973,23.303z"/>
			<path id="Fill-21_1_" fill="#FCF7A0" d="M-231.184,17.317c0,0-1.332-2.986-1.98-4.126c-1.504-1.665-2.265-4.769-5.346-6.231
				c0.975,0.263,1.642-0.05,3.631,1.752l3.133,5.938L-231.184,17.317z"/>
			<path id="Fill-22_2_" fill="#FCF7A0" d="M-229.527,22.488c0.308-2.587,0.891-6.735,0.222-8.374
				c-1.862-2.496-3.738-5.077-5.614-7.473c-0.311-0.289-0.534-0.681-0.779-0.987c2.638,0.683,5.391,2.515,9.104,9.75
				L-229.527,22.488z"/>
			<path id="Fill-23" d="M-240.617,22.793c-1.051-0.826-1.987-3.748-3.579-4.355c-1.475-0.123-2.015-0.587-3.952-0.192
				c0.702-0.353,1.366-0.802,2.113-1.043c0.506-0.12,0.98,0.013,1.464,0.079c0.119-0.057,0.197-0.126,0.168-0.232
				c-1.951-1.204-5.952-1.221-8.654-1.908c3.136,0.104,6.604-0.069,8.961,0.686C-242.202,17.506-241.587,20.67-240.617,22.793z"/>
			<path id="Fill-24_3_" d="M-234.872,8.702c0.435,0.039,2.775,3.738,2.886,4.354c0.194,1.346,0.675,2.854,0.804,4.263
				c-0.386-1.351-0.806-2.7-1.331-4.051c-0.153-0.372-0.542-1.213-1.621-2.401C-234.637,10.028-234.745,9.369-234.872,8.702
				L-234.872,8.702z"/>
			<polygon id="Fill-25_1_" points="-226.94,28.85 -227.941,28.85 -226.835,29.264 			"/>
			<path id="Fill-26_1_" d="M-233.773,27.851c-1.007-0.124-2.04-0.14-3.047,0.081c-0.411,0.551-0.439,1.111-0.618,1.629
				C-236.215,28.213-235.729,28.13-233.773,27.851z"/>
			<path id="Fill-27_2_" d="M-220.038,34.808c-0.561,0.447-0.616,0.869-2.273,1.373c-1.209,0.285-1.892-0.199-2.46-0.85
				c0.862,0.246,1,0.898,3.313,0.168L-220.038,34.808z"/>
			<path id="Fill-28_1_" d="M-225.061,35.089c-0.403,1.107-0.838,2.227-1.276,3.266c-1.044,1.223-0.599,0.525-2.162,2.426
				c0.5-0.771,1.15-1.512,1.491-2.314c0.239-0.529,0.537-1.09,0.669-1.559c-0.415-0.207-1.263-0.223-1.378-0.148
				c-1.39,0.818-1.64,1.684-2.459,2.527c0.594-0.947,1.101-1.982,1.789-2.836c0.078-0.111,0.588-0.133,0.901-0.197
				c-0.487-0.084-1.388-0.258-1.461-0.25c-0.906,0.217-1.414,1.006-2.087,1.529c0.491-0.707,0.942-1.443,1.565-2.053
				c0.062-0.07,1.745,0.076,2.618,0.424l0.018,0.348l0.495,0.199l0.373-0.934L-225.061,35.089z"/>
			<path id="Fill-29_1_" d="M-236.055,41.769c-0.224-0.076-2.199-0.33-2.199-0.27c-0.759,0.539-0.873,1.055-0.857,1.502
				C-237.85,41.761-237.896,41.757-236.055,41.769L-236.055,41.769z"/>
			<path id="Fill-30_1_" d="M-237.556,32.849c0,0,1.426-0.207,1.398-0.074c-0.104,0.494,0.174,1.699,0.205,1.531l-0.802,0.652
				c1.679-0.844,3.444-0.674,5.236-0.803c0,0-1.509-0.416-1.416-0.43c0.336-0.047-0.09-1.57-0.205-1.604
				c0.287-0.098,0.567-0.17,0.857-0.244C-234.438,31.315-235.687,31.647-237.556,32.849L-237.556,32.849z"/>
			<path id="Fill-31_1_" d="M-225.219,33.913l-0.317,0.158c-0.045-0.928-1.041-0.859-1.882-0.867l-0.689-0.168
				c0.21,0.193,0.857,0.178,0.597,0.596c-0.221,0.117-0.321,0.623-0.447,1.045l-0.373,0.02c0.658,0.258,1.27,0.482,1.994,0.783
				l0.429,0.066l1.024-0.551L-225.219,33.913z"/>
			<path id="Fill-32_1_" fill="#FFFFFF" d="M-234.667,33.288c-0.16-0.318-0.968-0.273-1.142-0.068
				c-0.142,0.168-0.009,1.236,0.173,1.057c0.262-0.23,0.604-0.326,1.016-0.309C-234.568,33.771-234.587,33.558-234.667,33.288z"/>
			<path id="Fill-33_2_" fill="#FFFFFF" d="M-226.927,34.88c0.076-0.055,0.236-0.59,0.185-0.752
				c-0.106-0.379-0.856-0.299-0.856-0.299c-0.184,0.107-0.344,0.699-0.277,0.893C-227.844,34.888-227.047,34.94-226.927,34.88
				L-226.927,34.88z"/>
			<path id="Fill-34_1_" d="M-259.021,53.384l0.474,0.047c2.811,1.379,7.438,3.424,14.139,2.324l1.051,1.652
				c-2.95,1.434-6.124,1.104-9.098,1.203L-259.021,53.384z"/>
			<path id="Fill-35_2_" d="M-263.056,42.483l1.407,5.906c3.77,2.354,10.208,5.051,15.575,4.832l-1.186-2.719
				C-258.462,48.126-259.41,45.122-263.056,42.483L-263.056,42.483z"/>
			<path id="Fill-36" d="M-259.553,30.388c0.688,4.576,1.606,8.047,5.59,10.951c2.441,1.756,4.864,3.502,7.812,4.943
				c0,0-0.259,1.344-0.475,1.318c-8.771-0.973-15.192-8.238-15.97-11.559C-261.843,33.497-260.762,31.907-259.553,30.388
				L-259.553,30.388z"/>
			<path id="Fill-37_2_" d="M-255.337,27.795c1.169,5.071,3.956,10.209,6.727,14.87c1.015,1.287,1.281,1.855,2.846,2.639
				c2.115,0.668,3.611,0.498,5.146,0.396c-0.42-0.777-0.794-1.59-1.277-2.322c-3.438-2.715-1.85-5.189-0.936-6.756
				c-1.912-0.482-4.445-1.508-4.794-2.857c-0.562-4.364-0.276-5.748,0.285-7.989C-249.929,26.321-252.552,26.861-255.337,27.795
				L-255.337,27.795z"/>
			<path id="Fill-38" d="M-233.826,46.026c-1.493-1.166-2.751-2.367-3.58-3.605c-0.271,1.455-1.253,2.492-2.013,3.51
				c-0.15,0.24-0.26,0.566,0.484,1.604c0.2,0.277,0.927,0.324,1.416,0.299c-0.498-0.377-1.257-0.773-1.379-1.119
				c0.877,0.596,1.688,0.768,2.423,0.672c0.168-0.02,0.376-0.197,0.537-0.471c0.327-0.701,0.583-0.871,0.842-1.061l0.597,0.748
				L-233.826,46.026z M-264.833,0.855c-0.852,0.555-1.671,1.349-2.553,2.252c-1.462,1.512-2.434,2.986-3.922,4.08
				c-0.298,0.256-1.133,0.669-2.183,0.73c-0.495,0.025-0.817,0.106-1.727-0.007c-0.801-0.434-1.563-0.152-2.306,0.737
				c-0.815,1.17-1.848,3.395-2.276,4.793c-0.885,3.57,1.37,6.512,3.533,8.777c1.924,1.879,3.033,3.052,3.823,4.773
				c0.598,1.116,1.041,2.649,1.521,3.723c0.173,0.34,0.137,0.34,0.603,0.441c1.006,0.215,2.4,0.217,3.642,0.322
				c0.537,0.008,1.274-0.012,1.974-0.084c0.963-0.182,2.095-0.361,3.043-0.688c0.927-0.229,1.752-0.545,2.497-0.836
				c-0.097,0.326-0.806,0.641-1.071,1.053c-2.522,3.607-3.214,6.818-2.774,11.885c0.248,2.246,0.764,4.107,1.542,6.236
				c0.356,0.975,1.114,2.518,1.841,3.543c2.159,3.049,6.99,6.965,13.716,8.473c1.174,0.16,2.506,0.074,3.758-0.26
				c3.319-1.006,10.085-3.383,10.085-3.383s-6.006,0.496-8.756,0.225c-0.637-0.1-1.338-0.133-1.782-0.566
				c-0.074-0.096-0.345-0.641-0.17-0.645c0.238-0.008,0.922-0.291,1.978-0.385c-2.254-0.242-2.222-0.24-2.386-0.648
				c-0.256-0.637-0.647-1.508-1.051-2.27c0.99,0.084,3.183,0.207,3.927-0.561c0,0-1.297,0.15-2.444,0.016
				c-0.386-0.045-1.044-0.279-1.242-0.354c-0.515-0.199-0.938-0.262-1.037-0.393c-0.179-0.455-0.3-0.607-0.516-1.217
				c-0.292-0.805-0.314-1.705-0.37-2.527c0.75,0.924,1.705,1.701,2.971,2.098c0.016-0.033,1.641,0.705,2.821,0.326l0.244-0.08
				c0,0.021-0.781,0.068-1.068-0.072c-2.4-1.02-2.762-1.912-3.148-2.355l-1.037-1.551c0.315-0.629,0.494-0.652,0.911-0.658
				c1.264,0.141,1.813,0.248,2.582,0.063c0.52,1.068,0.659,2.143,1.842,2.92c3.939,1.168,4.796-0.346,5.75-1.686
				c2.834,2.078,7.448,2.719,10.653,0.037c4.074-4.711,5.364-12.137,5.003-12.561c-0.509-0.861-1.177-1.752-1.75-1.629
				c-2.043,0.557-2.796,1.594-4.821,1.357c0.241-0.014,0.647-0.021,0.65-0.043c0.156-1.713-0.013-2.543-0.088-2.684
				c-0.614-1.354-1.421-2.78-1.983-3.847c-0.146-0.222-0.571-1.903-1.284-2.567c-0.306-0.262-1.055-0.949-1.055-0.949l-0.063,0.73
				c0,0,0.293,0.045,0.404,0.498c0.422,1.718,2.573,5.78,2.73,5.975c0.763,1.229,0.078,2.762,0.657,3.621
				c0.056,0.107,1.183-0.01,2.056,0.043c1.436-0.309,1.375-0.941,2.616-1.035c0.835-0.064,0.919,1.504,0.908,1.625
				c-0.156,1.73-0.683,3.744-1.489,5.582c-1.678,3.229-3.556,6.129-6.22,6.533c-3.249,0.566-4.938-0.852-6.699-1.756l-0.674,0.574
				c-2.289,2.277-5.008,2.074-6.119-0.9c-0.554-1.154-1.274-1.863-1.892-2.854l-3.275,2.357c-0.272,0.559-0.607,1.439-1.015,2.424
				c-0.283,0.684-0.521,1.857-0.505,2.834c-0.42,0.715,1.454,3.611,2.638,5.375c0.35,0.52,1.002,1.428,1.023,1.484
				c0.234,0.609,0.749,1.146,0.78,1.211c2.198,2.865-2.772,2.205-3.799,2.033c-2.025-0.322-4.007-1.168-5.869-2.299
				c-0.108-0.066-0.216-0.133-0.323-0.199c-2.213-1.393-4.249-3.174-5.98-4.936c-1.032-1.168-2.015-3.563-2.741-5.26
				c-1.088-4.08-2.649-11.152,1.581-16.512c0.268-0.307,0.557-0.816,0.804-0.918c1.257-0.848,2.621-1.427,4.089-1.749l-0.148-0.951
				c-0.732,0.166-3.2,1.068-3.898,1.445c-1.587,0.461-2.902,0.94-4.925,1.446c-0.657,0.08-1.305,0.082-1.935-0.004
				c-1.455-0.197-3.935-0.021-4.093-0.168c-0.985-1.372-1.255-3.831-2.153-5.147l-0.011-0.014l-0.012-0.012
				c-0.523-0.704-1.135-1.277-1.735-1.875c-2.154-2.139-3.998-4.205-4.514-6.396c-0.13-0.646-0.464-1.316-0.286-3.23l0.003-0.009
				l0.003-0.01c0.519-1.788,1.361-3.245,2.792-4.706c1.489,0.024,2.963,0.057,4.111,0.275c0.526,0.089,1.621,0.231,2.753,0.652
				c2.863,1.066,6.646,2.818,6.646,2.818c-2.84-1.559-6.016-3.582-8.021-3.99c-0.299-0.043-0.482-0.179-0.57-0.416
				c3.016-1.771,3.567-3.855,5.551-5.725c0.907-0.394,1.261-0.595,2.03-0.679c7.125,1.125,11.609,3.96,15.157,5.856
				c1.439,0.782,2.749,1.374,3.999,2.086c1.096,0.359,4.402,2.854,5.37,4.199c0.983,2.074,1.701,4.314,2.355,6.477
				c0.47,2.198,0.882,3.09,0.882,3.09s-0.399-1.839-0.333-2.17c0.414,0.155,1.393,0.461,1.798,0.412c0,0-1.812-0.935-2.049-1.762
				c-0.761-2.652-1.524-6.78-1.73-6.996c-0.581-0.729-3.001-2.58-4.485-3.436c-0.562-0.324-0.865-0.524-0.889-0.667
				c0.475-0.479,1.06-1.112,1.585-1.514c0.504-0.386,0.962-0.821,1.663-1.081c3.084-1.388,4.847,0.534,5.266,0.145
				c0,0-0.663-0.76-0.369-0.635c0.302,0.164,1.285,0.356,1.394,0.456c1.124,0.878,4.062,4.089,5.833,7.476
				c0.425,0.83,0.598,1.377,0.4,2.375c-0.197,1.001-0.351,1.551-0.566,2.219c-0.194,0.446-1.297,3.503-1.293,3.914
				c-0.222,1.676,0.72,3.775,0.72,3.775c0.009-0.569-0.035-0.873,0.017-1.28l0.063-0.729c0,0-0.04-0.194-0.033-0.271
				c0.048-0.504,0.172-0.928,0.208-1.215c0.354-2.191,0.97-3.768,1.668-5.689c0.207-0.485,0.479-0.755,0.465-1.125
				c0.012-0.654-0.575-1.534-1-2.394c-0.428-0.868-0.938-1.836-1.61-2.856c-1.53-2.199-2.835-3.919-5.224-4.996
				c-0.669-0.293-3.299-0.58-4.207-0.409c-1.102,0.229-2.05,0.456-2.805,0.938c-1.189,0.761-2.123,1.938-3.219,2.632
				c-2.425-1.211-3.595-2.117-3.813-2.242c-1.44-0.771-3.17-1.667-5.031-2.515C-254.219,3.24-259.76,1.252-264.833,0.855
				L-264.833,0.855z"/>
			<path id="Stroke-39" fill="none" stroke="#000000" stroke-width="0.5" d="M-233.826,46.026c-1.493-1.166-2.751-2.367-3.58-3.605
				c-0.271,1.455-1.253,2.492-2.013,3.51c-0.15,0.24-0.26,0.566,0.484,1.604c0.2,0.277,0.927,0.324,1.416,0.299
				c-0.498-0.377-1.257-0.773-1.379-1.119c0.877,0.596,1.688,0.768,2.423,0.672c0.168-0.02,0.376-0.197,0.537-0.471
				c0.327-0.701,0.583-0.871,0.842-1.061l0.597,0.748L-233.826,46.026z M-264.833,0.855c-0.852,0.555-1.671,1.349-2.553,2.252
				c-1.462,1.512-2.434,2.986-3.922,4.08c-0.298,0.256-1.133,0.669-2.183,0.73c-0.495,0.025-0.817,0.106-1.727-0.007
				c-0.801-0.434-1.563-0.152-2.306,0.737c-0.815,1.17-1.848,3.395-2.276,4.793c-0.885,3.57,1.37,6.512,3.533,8.777
				c1.924,1.879,3.033,3.052,3.823,4.773c0.598,1.116,1.041,2.649,1.521,3.723c0.173,0.34,0.137,0.34,0.603,0.441
				c1.006,0.215,2.4,0.217,3.642,0.322c0.537,0.008,1.274-0.012,1.974-0.084c0.963-0.182,2.095-0.361,3.043-0.688
				c0.927-0.229,1.752-0.545,2.497-0.836c-0.097,0.326-0.806,0.641-1.071,1.053c-2.522,3.607-3.214,6.818-2.774,11.885
				c0.248,2.246,0.764,4.107,1.542,6.236c0.356,0.975,1.114,2.518,1.841,3.543c2.159,3.049,6.99,6.965,13.716,8.473
				c1.174,0.16,2.506,0.074,3.758-0.26c3.319-1.006,10.085-3.383,10.085-3.383s-6.006,0.496-8.756,0.225
				c-0.637-0.1-1.338-0.133-1.782-0.566c-0.074-0.096-0.345-0.641-0.17-0.645c0.238-0.008,0.922-0.291,1.978-0.385
				c-2.254-0.242-2.222-0.24-2.386-0.648c-0.256-0.637-0.647-1.508-1.051-2.27c0.99,0.084,3.183,0.207,3.927-0.561
				c0,0-1.297,0.15-2.444,0.016c-0.386-0.045-1.044-0.279-1.242-0.354c-0.515-0.199-0.938-0.262-1.037-0.393
				c-0.179-0.455-0.3-0.607-0.516-1.217c-0.292-0.805-0.314-1.705-0.37-2.527c0.75,0.924,1.705,1.701,2.971,2.098
				c0.016-0.033,1.641,0.705,2.821,0.326l0.244-0.08c0,0.021-0.781,0.068-1.068-0.072c-2.4-1.02-2.762-1.912-3.148-2.355
				l-1.037-1.551c0.315-0.629,0.494-0.652,0.911-0.658c1.264,0.141,1.813,0.248,2.582,0.063c0.52,1.068,0.659,2.143,1.842,2.92
				c3.939,1.168,4.796-0.346,5.75-1.686c2.834,2.078,7.448,2.719,10.653,0.037c4.074-4.711,5.364-12.137,5.003-12.561
				c-0.509-0.861-1.177-1.752-1.75-1.629c-2.043,0.557-2.796,1.594-4.821,1.357c0.241-0.014,0.647-0.021,0.65-0.043
				c0.156-1.713-0.013-2.543-0.088-2.684c-0.614-1.354-1.421-2.78-1.983-3.847c-0.146-0.222-0.571-1.903-1.284-2.567
				c-0.306-0.262-1.055-0.949-1.055-0.949l-0.063,0.73c0,0,0.293,0.045,0.404,0.498c0.422,1.718,2.573,5.78,2.73,5.975
				c0.763,1.229,0.078,2.762,0.657,3.621c0.056,0.107,1.183-0.01,2.056,0.043c1.436-0.309,1.375-0.941,2.616-1.035
				c0.835-0.064,0.919,1.504,0.908,1.625c-0.156,1.73-0.683,3.744-1.489,5.582c-1.678,3.229-3.556,6.129-6.22,6.533
				c-3.249,0.566-4.938-0.852-6.699-1.756l-0.674,0.574c-2.289,2.277-5.008,2.074-6.119-0.9c-0.554-1.154-1.274-1.863-1.892-2.854
				l-3.275,2.357c-0.272,0.559-0.607,1.439-1.015,2.424c-0.283,0.684-0.521,1.857-0.505,2.834c-0.42,0.715,1.454,3.611,2.638,5.375
				c0.35,0.52,1.002,1.428,1.023,1.484c0.234,0.609,0.749,1.146,0.78,1.211c2.198,2.865-2.772,2.205-3.799,2.033
				c-2.025-0.322-4.007-1.168-5.869-2.299c-0.108-0.066-0.216-0.133-0.323-0.199c-2.213-1.393-4.249-3.174-5.98-4.936
				c-1.032-1.168-2.015-3.563-2.741-5.26c-1.088-4.08-2.649-11.152,1.581-16.512c0.268-0.307,0.557-0.816,0.804-0.918
				c1.257-0.848,2.621-1.427,4.089-1.749l-0.148-0.951c-0.732,0.166-3.2,1.068-3.898,1.445c-1.587,0.461-2.902,0.94-4.925,1.446
				c-0.657,0.08-1.305,0.082-1.935-0.004c-1.455-0.197-3.935-0.021-4.093-0.168c-0.985-1.372-1.255-3.831-2.153-5.147l-0.011-0.014
				l-0.012-0.012c-0.523-0.704-1.135-1.277-1.735-1.875c-2.154-2.139-3.998-4.205-4.514-6.396c-0.13-0.646-0.464-1.316-0.286-3.23
				l0.003-0.009l0.003-0.01c0.519-1.788,1.361-3.245,2.792-4.706c1.489,0.024,2.963,0.057,4.111,0.275
				c0.526,0.089,1.621,0.231,2.753,0.652c2.863,1.066,6.646,2.818,6.646,2.818c-2.84-1.559-6.016-3.582-8.021-3.99
				c-0.299-0.043-0.482-0.179-0.57-0.416c3.016-1.771,3.567-3.855,5.551-5.725c0.907-0.394,1.261-0.595,2.03-0.679
				c7.125,1.125,11.609,3.96,15.157,5.856c1.439,0.782,2.749,1.374,3.999,2.086c1.096,0.359,4.402,2.854,5.37,4.199
				c0.983,2.074,1.701,4.314,2.355,6.477c0.47,2.198,0.882,3.09,0.882,3.09s-0.399-1.839-0.333-2.17
				c0.414,0.155,1.393,0.461,1.798,0.412c0,0-1.812-0.935-2.049-1.762c-0.761-2.652-1.524-6.78-1.73-6.996
				c-0.581-0.729-3.001-2.58-4.485-3.436c-0.562-0.324-0.865-0.524-0.889-0.667c0.475-0.479,1.06-1.112,1.585-1.514
				c0.504-0.386,0.962-0.821,1.663-1.081c3.084-1.388,4.847,0.534,5.266,0.145c0,0-0.663-0.76-0.369-0.635
				c0.302,0.164,1.285,0.356,1.394,0.456c1.124,0.878,4.062,4.089,5.833,7.476c0.425,0.83,0.598,1.377,0.4,2.375
				c-0.197,1.001-0.351,1.551-0.566,2.219c-0.194,0.446-1.297,3.503-1.293,3.914c-0.222,1.676,0.72,3.775,0.72,3.775
				c0.009-0.569-0.035-0.873,0.017-1.28l0.063-0.729c0,0-0.04-0.194-0.033-0.271c0.048-0.504,0.172-0.928,0.208-1.215
				c0.354-2.191,0.97-3.768,1.668-5.689c0.207-0.485,0.479-0.755,0.465-1.125c0.012-0.654-0.575-1.534-1-2.394
				c-0.428-0.868-0.938-1.836-1.61-2.856c-1.53-2.199-2.835-3.919-5.224-4.996c-0.669-0.293-3.299-0.58-4.207-0.409
				c-1.102,0.229-2.05,0.456-2.805,0.938c-1.189,0.761-2.123,1.938-3.219,2.632c-2.425-1.211-3.595-2.117-3.813-2.242
				c-1.44-0.771-3.17-1.667-5.031-2.515C-254.219,3.24-259.76,1.252-264.833,0.855L-264.833,0.855z"/>
		</g>
	</g>
</g>
</svg>
