<?xml version="1.0" encoding="utf-8"?>
<!-- Generator: Adobe Illustrator 16.0.0, SVG Export Plug-In . SVG Version: 6.00 Build 0)  -->
<!DOCTYPE svg PUBLIC "-//W3C//DTD SVG 1.1//EN" "http://www.w3.org/Graphics/SVG/1.1/DTD/svg11.dtd">
<svg version="1.1" id="图层_1" xmlns="http://www.w3.org/2000/svg" xmlns:xlink="http://www.w3.org/1999/xlink" x="0px" y="0px"
	 width="140px" height="100px" viewBox="0 0 140 100" enable-background="new 0 0 140 100" xml:space="preserve">
<g id="data11" transform="translate(1400.000000, 0.000000)">
	<rect id="Path_12_" x="-1400" fill="#26AF23" width="140" height="100"/>
	<g id="DB2" transform="translate(28.000000, 26.000000)">
		<path id="Shape_14_" fill="#FFFFFF" d="M-1400,16.488h13.145c2.591,0,4.685,0.352,6.279,1.055s2.913,1.713,3.955,3.027
			s1.797,2.846,2.266,4.59s0.703,3.594,0.703,5.547c0,3.061-0.349,5.434-1.045,7.119s-1.663,3.1-2.9,4.238s-2.565,1.898-3.984,2.275
			c-1.94,0.521-3.698,0.781-5.273,0.781H-1400V16.488z M-1391.152,22.973v15.645h2.168c1.849,0,3.164-0.205,3.945-0.615
			s1.394-1.127,1.836-2.148s0.664-2.68,0.664-4.971c0-3.033-0.495-5.111-1.484-6.23s-2.63-1.68-4.922-1.68H-1391.152z
			 M-1368.984,16.488h16.563c2.761,0,4.88,0.684,6.357,2.051s2.217,3.061,2.217,5.078c0,1.693-0.527,3.145-1.582,4.355
			c-0.703,0.807-1.731,1.445-3.086,1.914c2.058,0.494,3.571,1.344,4.541,2.549s1.455,2.719,1.455,4.541
			c0,1.484-0.345,2.818-1.035,4.004s-1.634,2.123-2.832,2.813c-0.742,0.43-1.862,0.742-3.359,0.938
			c-1.992,0.26-3.313,0.391-3.965,0.391h-15.273V16.488z M-1360.059,27.719h3.848c1.38,0,2.341-0.238,2.881-0.713
			s0.811-1.162,0.811-2.061c0-0.834-0.271-1.484-0.811-1.953s-1.481-0.703-2.822-0.703h-3.906V27.719z M-1360.059,38.969h4.512
			c1.523,0,2.598-0.27,3.223-0.811s0.938-1.266,0.938-2.178c0-0.846-0.31-1.527-0.928-2.041s-1.702-0.771-3.252-0.771h-4.492V38.969
			z M-1315.898,45.121h-23.867c0.273-2.357,1.104-4.574,2.49-6.65s3.987-4.527,7.803-7.354c2.331-1.732,3.821-3.047,4.473-3.945
			s0.977-1.752,0.977-2.559c0-0.873-0.322-1.617-0.967-2.236s-1.455-0.928-2.432-0.928c-1.016,0-1.846,0.318-2.49,0.957
			s-1.077,1.764-1.299,3.379l-7.969-0.645c0.313-2.24,0.886-3.988,1.719-5.244s2.009-2.221,3.525-2.891s3.616-1.006,6.299-1.006
			c2.8,0,4.978,0.318,6.533,0.957s2.78,1.617,3.672,2.939s1.338,2.803,1.338,4.443c0,1.744-0.511,3.412-1.533,5
			s-2.881,3.334-5.576,5.234c-1.602,1.107-2.673,1.881-3.213,2.324s-1.175,1.021-1.904,1.738h12.422V45.121z"/>
		<g id="Group-2_2_">
			<polyline id="Fill-1_1_" fill="#FFFFFF" points="-1368.018,0.922 -1373.341,0.922 -1373.013,0.001 -1368.018,0.001 
				-1368.018,0.922 			"/>
			<path id="Fill-2" fill="#FFFFFF" d="M-1382.209,0l4.942,0l0.324,0.923c0.002-0.001-5.266,0.001-5.266,0
				C-1382.208,0.922-1382.211,0-1382.209,0"/>
			<path id="Fill-3" fill="#FFFFFF" d="M-1386.135,0c0.814,0.079,1.522,0.37,2.126,0.923c0,0-8.96,0.001-8.96,0V0L-1386.135,0"/>
			<polygon id="Fill-4" fill="#FFFFFF" points="-1399.999,0.921 -1393.775,0.921 -1393.775,0 -1399.999,0 			"/>
			<path id="Fill-6" fill="#FFFFFF" d="M-1368.018,2.65h-5.934c0,0,0.323-0.916,0.321-0.917h5.612V2.65"/>
			<polyline id="Fill-7" fill="#FFFFFF" points="-1376.331,2.651 -1382.21,2.651 -1382.21,1.733 -1376.653,1.733 -1376.331,2.651 
							"/>
			<path id="Fill-8" fill="#FFFFFF" d="M-1383.312,1.732c0.118,0.303,0.258,0.563,0.258,0.918h-9.913V1.732H-1383.312"/>
			<polygon id="Fill-9" fill="#FFFFFF" points="-1399.999,2.65 -1393.775,2.65 -1393.775,1.732 -1399.999,1.732 			"/>
			<polyline id="Fill-11" fill="#FFFFFF" points="-1374.558,4.383 -1374.232,3.462 -1369.777,3.463 -1369.777,4.381 
				-1374.558,4.383 			"/>
			<polyline id="Fill-12" fill="#FFFFFF" points="-1376.046,3.461 -1375.721,4.383 -1380.457,4.383 -1380.457,3.461 
				-1376.046,3.461 			"/>
			<path id="Fill-13" fill="#FFFFFF" d="M-1382.975,3.461c0,0.316-0.04,0.646-0.131,0.922h-2.715V3.461H-1382.975"/>
			<polygon id="Fill-14" fill="#FFFFFF" points="-1398.265,4.383 -1395.589,4.383 -1395.589,3.466 -1398.265,3.466 			"/>
			<polygon id="Fill-16" fill="#FFFFFF" points="-1391.166,4.383 -1388.495,4.383 -1388.495,3.461 -1391.166,3.461 			"/>
			<path id="Fill-18" fill="#FFFFFF" d="M-1377.826,5.377c0,0,0.001,0.697,0,0.699h-2.631V5.159h5.014l0.312,0.854
				c0.001,0,0.3-0.856,0.301-0.855h5.053v0.918h-2.618c0-0.002-0.002-0.699-0.002-0.699l-0.242,0.699l-4.944-0.002L-1377.826,5.377"
				/>
			<path id="Fill-19" fill="#FFFFFF" d="M-1391.166,5.158h7.667l0,0c-0.168,0.308-0.473,0.681-0.761,0.918c0,0-6.906,0.001-6.906,0
				C-1391.166,6.074-1391.166,5.16-1391.166,5.158"/>
			<polygon id="Fill-20" fill="#FFFFFF" points="-1398.265,6.076 -1395.589,6.076 -1395.589,5.158 -1398.265,5.158 			"/>
			<polygon id="Fill-22" fill="#FFFFFF" points="-1372.396,7.805 -1369.778,7.805 -1369.778,6.887 -1372.396,6.887 			"/>
			<path id="Fill-24" fill="#FFFFFF" d="M-1377.826,6.887h-2.631v0.918c-0.001-0.001,2.632,0,2.632,0
				C-1377.825,7.804-1377.822,6.887-1377.826,6.887"/>
			<path id="Fill-25" fill="#FFFFFF" d="M-1372.926,6.887c-0.012-0.001-0.307,0.917-0.318,0.918l-3.729,0.001
				c-0.003-0.001-0.328-0.92-0.328-0.919H-1372.926"/>
			<path id="Fill-26" fill="#FFFFFF" d="M-1391.166,6.887h6.894c0.314,0.264,0.599,0.588,0.821,0.918c0.013-0.001-7.715,0-7.715,0
				C-1391.166,7.804-1391.166,6.889-1391.166,6.887"/>
			<path id="Fill-27" fill="#FFFFFF" d="M-1395.59,7.804V6.887h-2.67v0.917C-1398.261,7.804-1395.591,7.804-1395.59,7.804"/>
			<polygon id="Fill-28" fill="#FFFFFF" points="-1372.396,9.532 -1369.778,9.532 -1369.778,8.615 -1372.396,8.615 			"/>
			<polygon id="Fill-30" fill="#FFFFFF" points="-1380.457,9.532 -1377.826,9.532 -1377.826,8.615 -1380.457,8.615 			"/>
			<path id="Fill-32" fill="#FFFFFF" d="M-1373.856,9.537c0-0.004,0.322-0.922,0.328-0.922h-3.171c-0.005,0,0.325,0.918,0.325,0.918
				S-1373.857,9.541-1373.856,9.537"/>
			<path id="Fill-33" fill="#FFFFFF" d="M-1391.166,9.532c0,0.004,0-0.917,0-0.917h2.71c0,0,0.003,0.918,0,0.918
				C-1388.458,9.533-1391.166,9.531-1391.166,9.532"/>
			<path id="Fill-34" fill="#FFFFFF" d="M-1383.07,8.615c0.131,0.276,0.144,0.605,0.17,0.922h-2.872V8.615H-1383.07"/>
			<polygon id="Fill-35" fill="#FFFFFF" points="-1398.26,9.532 -1395.59,9.532 -1395.59,8.615 -1398.26,8.615 			"/>
			<polygon id="Fill-37" fill="#FFFFFF" points="-1372.396,11.226 -1368.018,11.226 -1368.018,10.309 -1372.396,10.309 			"/>
			<polygon id="Fill-39" fill="#FFFFFF" points="-1382.21,11.226 -1377.826,11.226 -1377.826,10.309 -1382.21,10.309 			"/>
			<polyline id="Fill-41" fill="#FFFFFF" points="-1374.446,11.226 -1375.783,11.226 -1376.104,10.309 -1374.137,10.309 
				-1374.446,11.226 			"/>
			<path id="Fill-42" fill="#FFFFFF" d="M-1399.999,10.309v0.916h6.22c0.002,0.002-0.003-0.916,0-0.916
				C-1393.777,10.309-1400.007,10.309-1399.999,10.309"/>
			<path id="Fill-43" fill="#FFFFFF" d="M-1383.015,10.309c-0.064,0.303-0.125,0.671-0.346,0.917l-0.082-0.001h-9.524v-0.916
				H-1383.015"/>
			<polyline id="Fill-44" fill="#FFFFFF" points="-1375.052,12.955 -1375.175,12.955 -1375.487,12.037 -1374.731,12.037 
				-1375.052,12.955 			"/>
			<polygon id="Fill-45" fill="#FFFFFF" points="-1372.396,12.957 -1368.018,12.957 -1368.018,12.037 -1372.396,12.037 			"/>
			<path id="Fill-47" fill="#FFFFFF" d="M-1392.969,12.955v-0.916c0,0,8.986,0,9.013,0c-0.604,0.579-1.432,0.906-2.323,0.919
				l-6.688-0.002"/>
			<polygon id="Fill-48" fill="#FFFFFF" points="-1382.21,12.957 -1377.826,12.957 -1377.826,12.037 -1382.21,12.037 			"/>
			<path id="Fill-50" fill="#FFFFFF" d="M-1393.779,12.041c0,0-0.003,0.914,0,0.914c0.002,0-6.219,0.004-6.22,0.002
				c-0.002-0.002,0.001-0.918,0-0.918C-1400.001,12.039-1393.782,12.044-1393.779,12.041"/>
		</g>
	</g>
</g>
</svg>
