<?xml version="1.0" encoding="utf-8"?>
<!-- Generator: Adobe Illustrator 16.0.0, SVG Export Plug-In . SVG Version: 6.00 Build 0)  -->
<!DOCTYPE svg PUBLIC "-//W3C//DTD SVG 1.1//EN" "http://www.w3.org/Graphics/SVG/1.1/DTD/svg11.dtd">
<svg version="1.1" id="图层_1" xmlns="http://www.w3.org/2000/svg" xmlns:xlink="http://www.w3.org/1999/xlink" x="0px" y="0px"
	 width="140px" height="100px" viewBox="0 0 140 100" enable-background="new 0 0 140 100" xml:space="preserve">
<g id="data2" transform="translate(140.000000, 0.000000)">
	
		<rect id="Rectangle-20_1_" x="-140" y="0.034" opacity="0.8" fill="#387EA4" enable-background="new    " width="140" height="100"/>
	<g id="Group" transform="translate(30.000000, 28.000000)">
		<path id="Shape_17_" fill="#FFFFFF" d="M-139.849,37.345h2.627V27.053l4.068,8.973c0.48,1.086,1.137,1.471,2.425,1.471
			s1.92-0.385,2.4-1.471l4.067-8.974v10.293h2.627V27.068c0-1.002-0.404-1.486-1.238-1.736c-1.996-0.618-3.335-0.084-3.941,1.253
			l-3.992,8.854l-3.865-8.854c-0.582-1.337-1.946-1.871-3.941-1.254c-0.834,0.251-1.238,0.735-1.238,1.737L-139.849,37.345
			L-139.849,37.345z M-119.449,28.969h2.627v5.672c-0.025,0.308,0.1,1.03,1.539,1.053c0.735,0.012,5.667,0,5.714,0v-6.752h2.633
			c0.012,0-0.003,9.209-0.002,9.248c0.014,2.271-2.84,2.764-4.156,2.802h-8.297v-1.755c0.015,0,8.291,0.003,8.312,0
			c1.691-0.176,1.492-1.01,1.491-1.291v-0.685h-5.584c-2.599-0.022-4.253-1.147-4.273-2.442
			C-119.45,34.698-119.392,29.025-119.449,28.969L-119.449,28.969z"/>
		<g id="Shape_18_" transform="translate(34.987212, 25.168317)">
			<path fill="#FFFFFF" d="M-139.898,12.177h7.553c0.885,0,1.744-0.184,2.426-0.502c1.137-0.518,1.693-1.219,1.693-2.139V7.632
				c0-0.752-0.633-1.453-1.871-1.922c-0.656-0.25-1.465-0.385-2.248-0.385h-3.185c-1.061,0-1.566-0.316-1.692-1.019
				c-0.025-0.084-0.025-0.151-0.025-0.234V2.886c0-0.065,0-0.133,0.025-0.217c0.126-0.533,0.404-0.686,1.339-0.769
				c0.076,0,0.177-0.017,0.252-0.017h7.504V0.148h-7.377c-1.061,0-1.617,0.066-2.122,0.217c-1.566,0.484-2.249,1.253-2.249,2.59
				v1.521c0,1.17,1.339,2.172,3.588,2.406c0.253,0.017,0.505,0.033,0.758,0.033h2.729c0.102,0,0.202,0,0.278,0.017
				c0.832,0.067,1.187,0.218,1.439,0.519c0.15,0.149,0.202,0.301,0.202,0.467v1.521c0,0.186-0.126,0.419-0.378,0.618
				c-0.229,0.2-0.607,0.334-1.112,0.368c-0.101,0-0.177,0.017-0.278,0.017h-7.25V12.177L-139.898,12.177z M-111.834,9.153
				c0,1.789,1.339,2.791,4.042,2.992c0.252,0.016,0.505,0.032,0.758,0.032h6.848V10.44h-6.897c-1.541,0-2.122-0.384-2.122-1.304
				V0.148h-2.628V9.153L-111.834,9.153z M-126.55,9.245V3.05c0-1.574,1.115-2.528,3.316-2.83c0.235-0.033,0.473-0.051,0.709-0.051
				h4.987c0.253,0,0.481,0.018,0.733,0.051c2.203,0.302,3.316,1.256,3.316,2.828v6.195c0,1.277-0.473,1.961-1.563,2.406l2.588,2.316
				h-3.051l-2.094-1.875l-2.109,0.133h-2.811c-0.479,0-0.986-0.066-1.544-0.217C-125.739,11.554-126.55,10.685-126.55,9.245
				L-126.55,9.245z M-123.714,9.093c0,0.084,0.025,0.168,0.051,0.27c0.152,0.721,0.835,1.122,1.874,1.122h2.388l-2.193-1.965h3.051
				l1.913,1.713c0.353-0.187,0.584-0.472,0.666-0.837c0.024-0.083,0.024-0.167,0.024-0.251V3.202c0-0.067,0-0.151-0.024-0.235
				c-0.152-0.67-0.835-1.055-1.849-1.055h-3.975c-1.164,0-1.924,0.504-1.924,1.29L-123.714,9.093L-123.714,9.093z"/>
		</g>
		<path id="Shape_19_" fill="#FFFFFF" d="M-62.889,22.434c-1.614-0.045-2.85,0.105-3.904,0.546c-0.301,0.125-0.777,0.127-0.827,0.5
			c0.166,0.172,0.19,0.428,0.321,0.639c0.252,0.406,0.677,0.945,1.056,1.23c0.416,0.311,0.843,0.643,1.287,0.909
			c0.79,0.479,1.672,0.752,2.433,1.23c0.45,0.282,0.896,0.64,1.332,0.958c0.217,0.156,0.362,0.4,0.646,0.501V28.9
			c-0.149-0.186-0.187-0.44-0.323-0.637c-0.197-0.197-0.396-0.396-0.595-0.593c-0.585-0.769-1.326-1.442-2.114-2.003
			c-0.628-0.449-2.033-1.054-2.295-1.777c-0.018-0.016-0.031-0.031-0.047-0.045c0.445-0.051,0.968-0.212,1.379-0.32
			c0.689-0.184,1.307-0.137,2.02-0.319c0.322-0.091,0.645-0.181,0.965-0.271v-0.184c-0.359-0.367-0.617-0.853-1.01-1.185
			c-1.029-0.869-2.15-1.736-3.307-2.46c-0.641-0.401-1.436-0.662-2.113-1.002c-0.228-0.114-0.629-0.174-0.779-0.364
			c-0.358-0.452-0.553-1.023-0.827-1.549c-0.577-1.101-1.144-2.304-1.654-3.462c-0.349-0.79-0.576-1.569-1.01-2.278
			c-2.086-3.401-4.331-5.454-7.808-7.472c-0.74-0.429-1.631-0.599-2.572-0.82l-1.516-0.091c-0.309-0.128-0.629-0.502-0.918-0.683
			c-1.152-0.722-4.106-2.292-4.959-0.228c-0.539,1.303,0.805,2.574,1.285,3.234c0.337,0.463,0.77,0.982,1.01,1.504
			c0.159,0.342,0.188,0.686,0.322,1.048c0.334,0.892,0.624,1.863,1.057,2.688c0.217,0.417,0.457,0.856,0.733,1.23
			c0.169,0.229,0.459,0.33,0.505,0.683c-0.283,0.394-0.3,1.005-0.459,1.503c-0.718,2.245-0.447,5.036,0.598,6.697
			c0.319,0.511,1.074,1.605,2.112,1.185c0.908-0.367,0.705-1.504,0.964-2.506c0.06-0.227,0.022-0.394,0.139-0.546v0.045
			c0.275,0.546,0.551,1.093,0.826,1.641c0.612,0.977,1.699,1.998,2.619,2.688c0.478,0.357,0.853,0.977,1.469,1.186v-0.047h-0.045
			c-0.121-0.187-0.308-0.263-0.459-0.41c-0.36-0.351-0.76-0.785-1.058-1.185c-0.837-1.128-1.575-2.363-2.25-3.646
			c-0.321-0.613-0.603-1.29-0.873-1.914c-0.104-0.241-0.104-0.604-0.321-0.729c-0.297,0.458-0.734,0.827-0.965,1.367
			c-0.367,0.863-0.414,1.916-0.551,3.008c-0.081,0.028-0.045,0.008-0.092,0.044c-0.639-0.152-0.864-0.806-1.102-1.366
			c-0.603-1.417-0.713-3.7-0.186-5.331c0.137-0.422,0.756-1.752,0.505-2.142c-0.118-0.389-0.514-0.614-0.733-0.911
			c-0.273-0.368-0.547-0.852-0.735-1.276c-0.492-1.105-0.722-2.345-1.24-3.462c-0.248-0.534-0.666-1.075-1.01-1.549
			c-0.38-0.526-0.808-0.914-1.103-1.549c-0.104-0.226-0.248-0.588-0.092-0.82c0.049-0.157,0.119-0.222,0.275-0.273
			c0.267-0.204,1.008,0.068,1.285,0.183c0.736,0.303,1.352,0.592,1.976,1.002c0.3,0.197,0.603,0.578,0.964,0.684h0.413
			c0.646,0.147,1.371,0.046,1.976,0.228c1.066,0.322,2.023,0.823,2.893,1.367c2.646,1.658,4.813,4.018,6.292,6.834
			c0.237,0.453,0.341,0.886,0.551,1.367c0.425,0.97,0.957,1.968,1.377,2.916c0.421,0.946,0.83,1.901,1.423,2.688
			c0.313,0.414,1.521,0.636,2.066,0.866c0.385,0.161,1.016,0.329,1.379,0.546c0.696,0.416,1.369,0.912,2.021,1.368
			C-63.939,21.521-62.939,22.021-62.889,22.434L-62.889,22.434z"/>
		<path id="Shape_20_" fill="#FFFFFF" d="M-83.419,5.075c-0.336-0.006-0.575,0.037-0.827,0.091v0.045h0.046
			c0.161,0.328,0.444,0.538,0.644,0.82c0.152,0.319,0.306,0.638,0.459,0.957l0.045-0.045c0.285-0.199,0.416-0.517,0.414-1.002
			c-0.114-0.119-0.131-0.268-0.229-0.41C-82.999,5.341-83.253,5.233-83.419,5.075L-83.419,5.075z"/>
		<path id="Shape_21_" fill="#FFFFFF" d="M-63.967,35.559c0,1.147,0.914,1.922,1.938,1.922c1.022,0,1.936-0.773,1.936-1.922
			c0-1.147-0.914-1.92-1.936-1.92C-63.052,33.639-63.967,34.411-63.967,35.559z M-60.527,35.559c0,0.871-0.672,1.521-1.502,1.521
			c-0.843,0-1.504-0.65-1.504-1.521s0.661-1.521,1.504-1.521C-61.199,34.037-60.527,34.688-60.527,35.559L-60.527,35.559z
			 M-61.509,36.655h0.434l-0.635-0.964c0.341-0.035,0.599-0.199,0.599-0.6c0-0.445-0.283-0.631-0.83-0.631h-0.863v2.193h0.373
			v-0.948h0.346L-61.509,36.655L-61.509,36.655z M-62.434,35.398V34.77h0.429c0.222,0,0.489,0.041,0.489,0.297
			c0,0.308-0.242,0.334-0.521,0.334L-62.434,35.398L-62.434,35.398z"/>
	</g>
</g>
</svg>
