<?xml version="1.0" encoding="utf-8"?>
<!-- Generator: Adobe Illustrator 16.0.0, SVG Export Plug-In . SVG Version: 6.00 Build 0)  -->
<!DOCTYPE svg PUBLIC "-//W3C//DTD SVG 1.1//EN" "http://www.w3.org/Graphics/SVG/1.1/DTD/svg11.dtd">
<svg version="1.1" id="图层_1" xmlns="http://www.w3.org/2000/svg" xmlns:xlink="http://www.w3.org/1999/xlink" x="0px" y="0px"
	 width="140px" height="100px" viewBox="0 0 140 100" enable-background="new 0 0 140 100" xml:space="preserve">
<g id="data4" transform="translate(420.000000, 0.000000)">
	<rect id="Path_18_" x="-420" opacity="0.8" fill="#FB0000" enable-background="new    " width="140" height="100"/>
	<path id="Fill-1_5_" fill="#FFFFFF" d="M-312.787,54.903c-1.758,0-3.25-1.176-3.706-2.798h9.788l1.35-2.097h-11.138
		c0.456-1.612,1.948-2.798,3.706-2.798h6.719l1.358-2.098h-8.229c-3.288,0-5.958,2.666-5.958,5.948s2.67,5.938,5.958,5.938h7.061
		l1.35-2.097H-312.787z M-340.792,57c-3.288,0-5.958-2.656-5.958-5.938s2.67-5.948,5.958-5.948h8.22l-1.34,2.098h-6.728
		c-2.129,0-3.858,1.727-3.858,3.851c0,2.125,1.729,3.842,3.858,3.842h8.258l-1.35,2.097H-340.792z M-384.278,54.903
		c2.129,0,3.854-1.717,3.854-3.842c0-2.124-1.726-3.851-3.854-3.851h-6.614c-2.129,0-3.854,1.727-3.854,3.851
		c0,2.125,1.726,3.842,3.854,3.842H-384.278z M-391.046,57c-3.287,0-5.954-2.656-5.954-5.938s2.667-5.948,5.954-5.948h6.921
		c3.288,0,5.954,2.666,5.954,5.948S-380.837,57-384.125,57H-391.046z M-366.934,53.148c2.224,0,4.028-1.793,4.028-4.012
		c0-2.221-1.805-4.023-4.028-4.023h-10.02V57h2.289v-9.789h7.578c1.064,0,1.919,0.863,1.919,1.926c0,1.062-0.854,1.925-1.919,1.925
		l-6.456-0.009l6.836,5.947h3.326l-4.6-3.852H-366.934z M-329.047,54.903v-9.79h-2.29v10.748c0,0.295,0.114,0.579,0.333,0.797
		c0.219,0.219,0.513,0.342,0.836,0.342h10.443l1.35-2.097H-329.047z M-357.08,52.807h6.11l-3.23-5.188L-360.13,57h-2.699
		l7.213-11.27c0.313-0.455,0.836-0.73,1.416-0.73c0.561,0,1.083,0.266,1.388,0.711l7.24,11.289h-2.698l-1.273-2.097h-6.187
		L-357.08,52.807z"/>
</g>
</svg>
