<?xml version="1.0" encoding="utf-8"?>
<!-- Generator: Adobe Illustrator 16.0.0, SVG Export Plug-In . SVG Version: 6.00 Build 0)  -->
<!DOCTYPE svg PUBLIC "-//W3C//DTD SVG 1.1//EN" "http://www.w3.org/Graphics/SVG/1.1/DTD/svg11.dtd">
<svg version="1.1" id="图层_1" xmlns="http://www.w3.org/2000/svg" xmlns:xlink="http://www.w3.org/1999/xlink" x="0px" y="0px"
	 width="140px" height="100px" viewBox="0 0 140 100" enable-background="new 0 0 140 100" xml:space="preserve">
<g id="Postgresql" transform="translate(2380.000000, 0.000000)">
	<rect id="Path" x="-2380" y="0.895" fill="#1DA9D9" width="140" height="100"/>
	<g id="Postgresql_elephant" transform="translate(9.000000, 24.000000)">
		<path id="Shape" d="M-2347.613,6.041l-0.162,0.096C-2347.75,6.124-2347.716,6.102-2347.613,6.041z M-2341.382,50.234
			c-0.772,1.088-1.73,1.877-2.886,2.434c-0.87,0.419-1.732,0.672-3.014,0.943c-3.543,0.751-5.951-0.543-7.192-3.117
			c-0.17-0.354-0.307-0.703-0.448-1.115c-0.021-0.059-0.192-0.58-0.224-0.663c-0.516-1.378-0.717-3.179-0.842-6.241
			c-0.013-0.322-0.022-0.617-0.038-1.184c-0.012-0.414-0.014-0.482-0.019-0.658c-0.004-0.104-0.007-0.204-0.01-0.301
			c-0.626,0.271-1.283,0.463-1.966,0.578c-1.505,0.254-2.928,0.129-4.338-0.221c-1.077-0.267-2.11-0.774-2.762-1.566
			c-2.153,1.762-4.686,1.578-6.774-0.432c-1.593-1.531-2.98-4.112-4.266-7.574c-1.895-5.097-3.604-12.644-3.747-15.496
			c-0.245-4.848,0.872-8.475,3.271-10.872c2.062-2.061,4.858-3.026,8.123-3.133c2.345-0.077,4.797,0.288,7.225,0.939
			c0.646,0.173,1.25,0.357,1.806,0.543c1.897-1.114,4.146-1.68,6.718-1.638c1.371,0.022,2.653,0.139,3.853,0.348
			c0.463-0.141,1.039-0.288,1.631-0.413c1.565-0.331,3.245-0.521,4.972-0.5c2.242,0.026,4.408,0.406,6.434,1.218
			c2.419,0.969,4.537,2.517,6.256,4.69c1.715,2.168,1.649,6.373,0.289,11.585c-1.113,4.263-3.027,8.815-5.482,12.91
			c0.717-0.021,1.607-0.13,2.684-0.35c0.484-0.099,0.922-0.146,1.331-0.132c0.623,0.021,1.201,0.176,1.722,0.566
			c0.729,0.549,1.076,1.4,0.992,2.261c-0.051,0.531-0.246,0.988-0.534,1.419c-0.691,1.031-2.118,2.082-3.741,2.828
			c-1.572,0.723-4.041,1.126-6.042,1.035l-0.459-0.037c-0.029,0.247-0.063,0.537-0.082,0.691
			C-2339.079,44.723-2339.837,48.057-2341.382,50.234z M-2343.415,39.159c0.004-0.032,0.117-0.989,0.148-1.228
			c0.077-0.598,0.15-1,0.271-1.389c0.211-0.676,0.557-1.243,1.146-1.674c0.602-0.44,1.274-0.602,2.005-0.586
			c0.122,0.002,0.244,0.01,0.37,0.021c-0.477-0.479-0.753-1.016-0.857-1.527l-0.188-0.912l0.526-0.771
			c2.865-4.207,5.115-9.225,6.314-13.815c0.543-2.084,0.836-3.967,0.859-5.453c0.011-0.683-0.037-1.256-0.132-1.696
			c-0.04-0.184-0.087-0.335-0.136-0.45c-0.031-0.075-0.057-0.12-0.07-0.136c-2.287-2.892-5.45-4.159-9.206-4.204
			c-1.37-0.016-2.722,0.136-3.979,0.402c-0.447,0.094-0.85,0.197-1.189,0.297c-0.098,0.029-0.185,0.056-0.254,0.079l-0.17,0.091
			l-0.84,0.154l-0.432-0.089c-1.084-0.222-2.283-0.348-3.61-0.369c-2.079-0.034-3.7,0.473-4.987,1.438l-1.023,0.769l-1.188-0.484
			c-0.017-0.007-0.064-0.025-0.142-0.055c-0.137-0.052-0.299-0.111-0.484-0.176c-0.539-0.187-1.145-0.375-1.801-0.551
			c-2.03-0.545-4.062-0.847-5.899-0.787c-2.212,0.073-3.927,0.664-5.081,1.817c-1.421,1.42-2.163,3.832-1.977,7.524
			c0.044,0.875,0.43,3.134,0.987,5.596c0.688,3.036,1.55,6.062,2.489,8.589c1.071,2.885,2.193,4.971,3.181,5.921
			c0.19,0.183,0.352,0.3,0.474,0.356c0.282-0.117,0.488-0.3,0.726-0.582c1.034-1.23,2.124-2.465,3.204-3.644
			c0.377-0.413,0.728-0.79,1.041-1.123c0.11-0.117,0.209-0.222,0.293-0.31c0.053-0.055,0.089-0.094,0.108-0.113l1.3-1.354
			l1.57,1.033c0.539,0.354,1.132,0.563,1.744,0.611l3.729-3.146l-0.541,5.479c-0.015,0.143-0.008,0.291,0.027,0.516l5.788-7.892
			l-2.745,10.891c0.02,0.058,0.039,0.118,0.058,0.179c0.115,0.382,0.197,0.813,0.259,1.313c0.09,0.727,0.135,1.535,0.173,2.778
			c0.006,0.182,0.008,0.251,0.02,0.668c0.016,0.55,0.024,0.832,0.036,1.131c0.104,2.566,0.276,4.103,0.565,4.875
			c0.066,0.178,0.271,0.796,0.266,0.779c0.089,0.262,0.166,0.457,0.25,0.631c0.171,0.354,0.34,0.554,0.53,0.656
			c0.299,0.16,0.809,0.209,1.666,0.027c1.84-0.39,2.564-0.738,3.165-1.585c0.936-1.317,1.52-3.909,1.627-8.312l2.244,0.055
			L-2343.415,39.159z"/>
		<path id="Shape_1_" fill="#336791" d="M-2331.676,33.126c-6.04,1.233-6.456-0.791-6.456-0.791
			c6.379-9.365,9.045-21.252,6.744-24.162c-6.277-7.936-17.144-4.183-17.325-4.085l-0.059,0.01c-1.193-0.245-2.528-0.391-4.03-0.415
			c-2.733-0.044-4.807,0.709-6.38,1.89c0,0-19.384-7.902-18.482,9.938c0.191,3.795,5.497,28.716,11.825,21.189
			c2.313-2.752,4.548-5.08,4.548-5.08c1.11,0.73,2.438,1.103,3.832,0.969l0.108-0.091c-0.034,0.342-0.019,0.676,0.043,1.071
			c-1.63,1.803-1.151,2.119-4.41,2.783c-3.297,0.672-1.36,1.869-0.096,2.183c1.533,0.38,5.081,0.917,7.479-2.403l-0.096,0.379
			c0.639,0.506,1.087,3.293,1.012,5.818c-0.075,2.527-0.125,4.262,0.378,5.616s1.005,4.402,5.289,3.494
			c3.58-0.759,5.435-2.726,5.692-6.008c0.184-2.333,0.598-1.987,0.624-4.073l0.333-0.987c0.383-3.163,0.061-4.183,2.266-3.708
			l0.536,0.047c1.624,0.072,3.748-0.259,4.995-0.832C-2330.62,34.644-2329.028,32.585-2331.676,33.126L-2331.676,33.126z"/>
		<path id="Shape_2_" fill="#FFFFFF" d="M-2354.824,34.918c-0.18,6.354,0.066,12.035,0.677,13.545
			c0.517,1.278,1.007,2.109,1.881,2.838c1.244,1.038,2.927,1.401,5.084,0.944c3.799-0.806,5.396-2.45,6.027-6.071
			c0.375-2.15,1.206-8.8,1.33-10.442c0.031-0.407-0.277-0.763-0.689-0.794c-0.413-0.03-0.771,0.275-0.803,0.684
			c-0.121,1.596-0.946,8.197-1.313,10.301c-0.527,3.025-1.666,4.195-4.867,4.875c-1.719,0.364-2.928,0.104-3.805-0.629
			c-0.637-0.53-1.023-1.187-1.456-2.255c-0.499-1.235-0.742-6.857-0.57-12.954c0.012-0.408-0.313-0.75-0.728-0.761
			C-2354.469,34.188-2354.813,34.509-2354.824,34.918z"/>
		<path id="Shape_3_" fill="#FFFFFF" d="M-2358.929,4.755c-0.038-0.016-0.108-0.043-0.208-0.08
			c-0.162-0.062-0.351-0.129-0.562-0.202c-0.601-0.207-1.271-0.414-1.996-0.606c-2.303-0.612-4.623-0.952-6.808-0.874
			c-2.915,0.104-5.353,0.952-7.112,2.715c-2.073,2.078-3.066,5.303-2.841,9.765c0.056,1.083,0.465,3.482,1.057,6.096
			c0.714,3.154,1.611,6.301,2.601,8.964c1.215,3.269,2.514,5.685,3.904,7.023c1.805,1.735,3.816,1.651,5.588-0.456
			c1.004-1.195,2.039-2.367,3.047-3.464c0.354-0.384,0.677-0.731,0.965-1.036c0.101-0.105,0.189-0.199,0.266-0.278
			c0.045-0.048,0.076-0.079,0.092-0.095c0.285-0.296,0.275-0.765-0.023-1.047c-0.298-0.283-0.771-0.273-1.058,0.021
			c-0.046,0.047-0.07,0.072-0.098,0.102c-0.078,0.081-0.169,0.177-0.271,0.285c-0.293,0.31-0.622,0.662-0.979,1.051
			c-1.021,1.113-2.071,2.301-3.091,3.514c-1.209,1.438-2.208,1.48-3.394,0.341c-1.189-1.144-2.399-3.396-3.542-6.472
			c-0.965-2.596-1.845-5.682-2.546-8.777c-0.574-2.538-0.972-4.867-1.021-5.846c-0.206-4.077,0.662-6.897,2.411-8.649
			c1.458-1.461,3.536-2.184,6.102-2.275c2.015-0.072,4.194,0.246,6.364,0.823c0.688,0.183,1.324,0.379,1.893,0.575
			c0.197,0.068,0.372,0.131,0.521,0.188c0.052,0.02,0.097,0.037,0.134,0.051c0.423,0.171,0.86-0.011,1.017-0.39
			C-2358.362,5.342-2358.546,4.91-2358.929,4.755z"/>
		<path id="Shape_4_" fill="#FFFFFF" d="M-2348.511,4.715c-0.025,0.008-0.047,0.014-0.072,0.021
			c-0.032,0.008-0.032,0.008-0.152,0.021c-0.056,0.001-0.056,0.001-0.165-0.012c-0.073-0.015-0.073-0.015-0.182-0.059
			c-0.134-0.07-0.134-0.07-0.287-0.236c-0.128-0.229-0.128-0.229-0.141-0.475c0.033-0.201,0.033-0.201,0.093-0.317
			c0.104-0.149,0.104-0.149,0.165-0.201c0.131-0.093,0.131-0.093,0.163-0.107c0.061-0.027,0.079-0.034,0.1-0.042
			c0.072-0.028,0.182-0.065,0.311-0.106c0.352-0.111,0.789-0.231,1.279-0.345c1.428-0.331,2.994-0.539,4.615-0.554
			c2.124-0.02,4.173,0.296,6.076,1.021c2.275,0.865,4.258,2.285,5.867,4.319c2.736,3.46-0.522,15.944-6.713,25.033
			c-0.23,0.339-0.695,0.429-1.038,0.2s-0.434-0.688-0.203-1.027c2.962-4.35,5.282-9.522,6.522-14.274
			c1.139-4.362,1.193-7.83,0.253-9.019c-2.68-3.388-6.421-4.811-10.75-4.771c-1.504,0.014-2.963,0.208-4.29,0.515
			c-0.45,0.104-0.848,0.213-1.162,0.313c-0.067,0.021-0.127,0.041-0.172,0.057C-2348.431,4.687-2348.47,4.703-2348.511,4.715z
			 M-2348.454,4.69c0.006-0.003,0.006-0.003,0.026-0.013c0.027-0.011,0.027-0.011,0.155-0.102c0.061-0.052,0.061-0.052,0.165-0.201
			c0.06-0.116,0.06-0.116,0.093-0.317c-0.014-0.247-0.014-0.247-0.141-0.475c-0.154-0.166-0.154-0.166-0.287-0.236
			c-0.108-0.043-0.108-0.043-0.182-0.059c-0.108-0.014-0.108-0.014-0.164-0.012c-0.117,0.012-0.117,0.012-0.143,0.019
			c-0.016,0.004-0.022,0.006-0.027,0.007c0.395-0.123,0.814,0.095,0.938,0.485c0.11,0.35-0.054,0.72-0.374,0.881
			C-2348.418,4.677-2348.438,4.685-2348.454,4.69z"/>
		<path id="Shape_5_" fill="#FFFFFF" d="M-2337.259,32.256c0.284,0.203,0.758,0.361,1.472,0.425
			c0.972,0.087,2.267-0.017,3.919-0.354c0.83-0.17,1.427-0.149,1.844,0.164c0.302,0.229,0.443,0.574,0.407,0.939
			c-0.024,0.254-0.128,0.497-0.292,0.742c-0.515,0.767-1.729,1.662-3.123,2.303c-1.178,0.541-3.05,0.892-4.715,0.91
			c-0.86,0.009-1.615-0.071-2.193-0.249c-0.8-0.246-1.336-0.701-1.378-1.417c-0.106-1.85,0.489-2.929,1.639-3.439
			c0.15-0.067,0.302-0.121,0.475-0.174c0.026-0.008,0.067-0.02,0.112-0.033c-0.059-0.082-0.133-0.18-0.225-0.295
			c-0.032-0.042-0.344-0.428-0.447-0.559c-0.195-0.249-0.363-0.477-0.525-0.717c-0.33-0.488-0.609-0.998-0.845-1.563
			c-0.064-0.155-1.421-2.563-1.931-3.568c-0.543-1.069-0.989-2.068-1.333-3.019c-0.865-2.393-1.033-4.33-0.231-5.742
			c0.893-1.573,2.829-2.217,5.833-1.913c-0.075-0.222-0.17-0.469-0.279-0.73c-0.53-1.261-1.321-2.625-2.32-3.889
			c-2.767-3.5-6.572-5.65-11.46-5.729c-2.58-0.042-4.632,0.66-6.239,1.996c-1.367,1.137-2.394,2.717-3.115,4.636
			c-0.531,1.413-0.87,2.934-1.053,4.468c-0.067,0.56-0.108,1.089-0.13,1.577c-0.014,0.324-0.018,0.582-0.015,0.764
			c0.012,0.439-0.314,0.78-0.728,0.791c-0.414,0.011-0.758-0.312-0.769-0.721c-0.004-0.258,0-0.544,0.016-0.897
			c0.022-0.523,0.067-1.088,0.138-1.687c0.195-1.644,0.561-3.277,1.137-4.812c0.807-2.143,1.971-3.936,3.556-5.254
			c1.888-1.569,4.29-2.391,7.227-2.343c5.374,0.087,9.587,2.467,12.614,6.298c1.084,1.371,1.942,2.852,2.523,4.232
			c0.232,0.552,0.406,1.06,0.504,1.458c0.049,0.202,0.079,0.375,0.088,0.521c0.006,0.111,0,0.212-0.025,0.319
			c-0.066,0.273-0.246,0.52-0.607,0.594l-0.27,0.006c-3.044-0.482-4.705-0.043-5.32,1.041c-0.53,0.936-0.396,2.493,0.336,4.518
			c0.321,0.888,0.744,1.833,1.262,2.853c0.475,0.937,1.872,3.417,1.977,3.667c0.197,0.473,0.43,0.896,0.707,1.308
			c0.139,0.207,0.285,0.405,0.461,0.629c0.096,0.121,0.403,0.503,0.442,0.552c0.391,0.49,0.585,0.802,0.685,1.187
			C-2337.417,32.121-2337.357,32.186-2337.259,32.256z M-2338.425,33.425c-0.025,0.007-0.271,0.075-0.343,0.097
			c-0.117,0.036-0.212,0.07-0.298,0.108c-0.549,0.243-0.822,0.728-0.762,1.943c0.062,0.046,0.174,0.099,0.331,0.147
			c0.407,0.125,1.016,0.189,1.732,0.182c1.468-0.016,3.135-0.327,4.101-0.771c0.873-0.401,1.654-0.917,2.134-1.362
			c-0.012,0.002-0.024,0.005-0.036,0.008c-3.338,0.682-5.431,0.494-6.571-0.321c-0.039-0.028-0.077-0.058-0.113-0.086
			C-2338.304,33.389-2338.362,33.406-2338.425,33.425z M-2337.456,32.055c0.006,0.017,0.014,0.043,0.021,0.08
			c-0.006-0.025-0.012-0.051-0.019-0.074C-2337.456,32.056-2337.456,32.054-2337.456,32.055z"/>
		<path id="Shape_6_" fill="#FFFFFF" d="M-2357.907,33.001c0.5-0.556,1.034-0.853,1.605-0.901c0.425-0.037,0.729,0.042,1.203,0.236
			c1.5,0.615,2.313,2.787,1.329,4.15c-1.2,1.664-2.76,2.588-4.545,2.89c-1.27,0.215-2.497,0.106-3.724-0.198
			c-0.913-0.225-1.805-0.708-2.14-1.322c-0.299-0.549-0.158-1.152,0.36-1.571c0.393-0.316,1.016-0.55,1.906-0.731
			c0.611-0.125,1.07-0.234,1.43-0.338c0.732-0.214,1.027-0.389,1.356-0.756C-2359.066,34.394-2358.296,33.43-2357.907,33.001z
			 M-2362.479,37.432c0.241,0.131,0.537,0.244,0.805,0.31c1.042,0.259,2.074,0.35,3.107,0.175c1.406-0.238,2.615-0.954,3.58-2.291
			c0.39-0.539-0.026-1.65-0.685-1.92c-0.265-0.109-0.384-0.141-0.5-0.13c-0.163,0.014-0.357,0.122-0.62,0.413
			c-0.348,0.385-1.116,1.346-1.214,1.455c-0.524,0.584-1.063,0.903-2.053,1.191c-0.405,0.119-0.902,0.236-1.551,0.368
			c-0.485,0.099-0.841,0.209-1.063,0.313C-2362.617,37.352-2362.553,37.392-2362.479,37.432z"/>
		<path id="Shape_7_" fill="#FFFFFF" d="M-2365.025,24.694c0.267-1.886,0.292-3.628,0.183-5.627c-0.01-0.182-0.041-0.7-0.043-0.723
			c-0.014-0.245-0.02-0.392-0.019-0.509c0.004-0.59,0.581-1.055,1.604-1.618c0.887-0.489,1.941-0.905,2.959-1.137
			c1.273-0.291,2.44-0.29,3.415,0.082c1.191,0.456,2.001,1.435,2.321,2.901c0.557,2.547,0.707,4.635,0.515,6.424
			c-0.15,1.413-0.48,2.516-1.053,3.82c-0.092,0.21-0.419,0.93-0.387,0.859c-0.142,0.314-0.238,0.541-0.32,0.76
			c-0.817,2.18-0.974,2.736-0.866,3.426c0.063,0.404-0.218,0.781-0.626,0.844c-0.409,0.063-0.791-0.215-0.854-0.619
			c-0.016-0.098-0.026-0.196-0.033-0.297C-2362.377,33.18-2365.661,29.197-2365.025,24.694z M-2357.994,31.523
			c0.15-0.537,0.177-0.61,0.741-2.113c0.095-0.254,0.201-0.507,0.354-0.847c-0.028,0.063,0.294-0.647,0.382-0.847
			c0.516-1.178,0.805-2.141,0.938-3.387c0.174-1.622,0.035-3.554-0.489-5.955c-0.399-1.825-1.768-2.348-3.937-1.853
			c-0.875,0.2-1.799,0.564-2.568,0.988c-0.324,0.179-0.596,0.356-0.777,0.501c-0.019,0.015-0.035,0.029-0.051,0.042
			c0.003,0.058,0.006,0.125,0.011,0.206c0.001,0.019,0.032,0.54,0.042,0.726c0.115,2.086,0.088,3.916-0.194,5.914
			c-0.521,3.684,2.174,6.897,5.476,6.901C-2358.046,31.709-2358.021,31.617-2357.994,31.523z"/>
		<path id="Shape_8_" fill="#FFFFFF" d="M-2358.047,17.208c0.756,0.104,1.353,0.434,1.29,0.875
			c-0.064,0.463-0.812,0.963-1.481,0.871c-0.675-0.093-1.355-0.8-1.291-1.254l0.03-0.212h0.061
			C-2359.222,17.211-2358.664,17.122-2358.047,17.208z"/>
		<path id="Shape_9_" fill="#FFFFFF" d="M-2340.013,17.222c0.053,0.38-0.572,1.031-1.185,1.115
			c-0.604,0.083-1.286-0.373-1.343-0.766c-0.047-0.341,0.493-0.64,1.186-0.735C-2340.663,16.74-2340.062,16.881-2340.013,17.222z"/>
		<path id="Shape_10_" fill="#FFFFFF" d="M-2338.634,15.603c0.038,0.698-0.007,1.315-0.136,2.192
			c-0.014,0.09-0.028,0.186-0.046,0.299c-0.006,0.045-0.014,0.091-0.023,0.152c-0.012,0.077-0.018,0.118-0.023,0.154
			c-0.158,1.022-0.227,1.604-0.251,2.358c-0.026,0.778,0.024,1.36,0.204,2.843c0.193,1.591,0.244,2.36,0.167,3.266
			c-0.099,1.165-0.44,2.192-1.108,3.18c-0.23,0.34-0.139,0.8,0.205,1.028c0.344,0.227,0.809,0.136,1.038-0.204
			c0.815-1.204,1.237-2.474,1.357-3.879c0.088-1.039,0.032-1.879-0.173-3.568c-0.17-1.404-0.217-1.943-0.194-2.618
			c0.021-0.681,0.084-1.213,0.234-2.181c0.006-0.035,0.012-0.077,0.024-0.153c0.01-0.062,0.017-0.108,0.023-0.154
			c0.018-0.117,0.033-0.215,0.047-0.309c0.142-0.966,0.193-1.673,0.148-2.486c-0.021-0.408-0.375-0.722-0.787-0.7
			C-2338.34,14.845-2338.656,15.194-2338.634,15.603z"/>
	</g>
	<path id="Postgre-SQL" fill="#FFFFFF" d="M-2315.015,47.439h3.193c1.6,0,2.707,1.125,2.707,2.736c0,1.582-1.131,2.701-2.719,2.701
		h-2.127v3.018h-1.055V47.439z M-2313.96,48.377v3.563h1.863c1.201,0,1.898-0.645,1.898-1.764c0-1.16-0.674-1.799-1.898-1.799
		H-2313.96z M-2305.701,56.006c-1.799,0-2.912-1.242-2.912-3.27c0-2.033,1.113-3.27,2.912-3.27s2.912,1.236,2.912,3.27
		C-2302.789,54.764-2303.902,56.006-2305.701,56.006z M-2305.701,55.098c1.195,0,1.869-0.867,1.869-2.361
		c0-1.5-0.674-2.361-1.869-2.361s-1.869,0.861-1.869,2.361C-2307.57,54.23-2306.896,55.098-2305.701,55.098z M-2301.954,51.307
		c0,0.914,0.539,1.424,1.723,1.711l1.084,0.264c0.674,0.164,1.002,0.457,1.002,0.891c0,0.58-0.609,0.984-1.459,0.984
		c-0.809,0-1.313-0.34-1.482-0.873h-1.037c0.111,1.049,1.078,1.723,2.484,1.723c1.436,0,2.531-0.779,2.531-1.91
		c0-0.908-0.574-1.424-1.764-1.711l-0.973-0.234c-0.744-0.182-1.096-0.451-1.096-0.885c0-0.563,0.586-0.943,1.336-0.943
		c0.762,0,1.254,0.334,1.389,0.838h0.996c-0.135-1.037-1.055-1.693-2.379-1.693C-2300.94,49.467-2301.954,50.258-2301.954,51.307z
		 M-2295.763,47.943v1.635h-1.02v0.844h1.02v3.832c0,1.207,0.521,1.688,1.822,1.688c0.199,0,0.393-0.023,0.592-0.059v-0.85
		c-0.188,0.018-0.287,0.023-0.469,0.023c-0.656,0-0.938-0.316-0.938-1.061v-3.574h1.406v-0.844h-1.406v-1.635H-2295.763z
		 M-2289.958,54.91c1.172,0,1.875-0.891,1.875-2.268s-0.709-2.268-1.875-2.268c-1.172,0-1.828,0.891-1.828,2.268
		S-2291.13,54.91-2289.958,54.91z M-2289.911,58.32c-1.523,0-2.496-0.686-2.648-1.729h1.066c0.111,0.516,0.674,0.85,1.582,0.85
		c1.131,0,1.805-0.557,1.805-1.488v-1.242h-0.094c-0.398,0.697-1.113,1.09-1.98,1.09c-1.635,0-2.648-1.266-2.648-3.158
		s1.025-3.176,2.648-3.176c0.885,0,1.664,0.434,2.027,1.113h0.094v-1.002h0.961v6.428
		C-2287.099,57.418-2288.188,58.32-2289.911,58.32z M-2285.8,55.895h1.008V51.98c0-0.891,0.697-1.535,1.658-1.535
		c0.199,0,0.563,0.035,0.645,0.059v-1.008c-0.129-0.018-0.34-0.029-0.504-0.029c-0.838,0-1.564,0.434-1.752,1.049h-0.094v-0.938
		h-0.961V55.895z M-2279.486,50.357c-1.008,0-1.711,0.738-1.787,1.857h3.48C-2277.816,51.096-2278.484,50.357-2279.486,50.357z
		 M-2277.822,54.26h1.008c-0.305,1.084-1.277,1.746-2.66,1.746c-1.752,0-2.848-1.266-2.848-3.264c0-1.986,1.113-3.275,2.848-3.275
		c1.705,0,2.742,1.213,2.742,3.176v0.387h-4.541v0.047c0.053,1.248,0.75,2.039,1.822,2.039
		C-2278.637,55.115-2278.086,54.816-2277.822,54.26z M-2273.239,53.686c0.111,1.459,1.348,2.408,3.141,2.408
		c1.934,0,3.158-0.99,3.158-2.543c0-1.242-0.703-1.922-2.455-2.361l-0.885-0.234c-1.166-0.299-1.629-0.68-1.629-1.342
		c0-0.855,0.744-1.418,1.869-1.418c1.055,0,1.77,0.516,1.916,1.383h1.061c-0.088-1.365-1.307-2.338-2.941-2.338
		c-1.787,0-2.988,0.973-2.988,2.408c0,1.201,0.662,1.893,2.191,2.279l1.084,0.281c1.166,0.293,1.693,0.75,1.693,1.471
		c0,0.838-0.838,1.453-1.975,1.453c-1.201,0-2.045-0.563-2.174-1.447H-2273.239z M-2262.231,56.094
		c-2.408,0-3.885-1.682-3.885-4.424c0-2.73,1.494-4.43,3.885-4.43c2.379,0,3.867,1.705,3.867,4.43c0,1.682-0.539,3-1.5,3.691
		l1.072,1.488h-1.184l-0.744-1.014C-2261.171,56.006-2261.687,56.094-2262.231,56.094z M-2262.226,55.121
		c0.311,0,0.609-0.041,0.902-0.129l-1.119-1.518h1.195l0.768,1.02c0.662-0.527,1.031-1.535,1.031-2.824
		c0-2.121-1.072-3.457-2.783-3.457c-1.723,0-2.801,1.33-2.801,3.457C-2265.032,53.803-2263.96,55.121-2262.226,55.121z
		 M-2252.003,54.945h-4.078v-7.506h-1.055v8.455h5.133V54.945z"/>
</g>
</svg>
