<?xml version="1.0" encoding="utf-8"?>
<!-- Generator: Adobe Illustrator 16.0.0, SVG Export Plug-In . SVG Version: 6.00 Build 0)  -->
<!DOCTYPE svg PUBLIC "-//W3C//DTD SVG 1.1//EN" "http://www.w3.org/Graphics/SVG/1.1/DTD/svg11.dtd">
<svg version="1.1" id="图层_1" xmlns="http://www.w3.org/2000/svg" xmlns:xlink="http://www.w3.org/1999/xlink" x="0px" y="0px"
	 width="140px" height="100px" viewBox="0 0 140 100" enable-background="new 0 0 140 100" xml:space="preserve">
<g id="data10" transform="translate(1260.000000, 0.000000)">
	<g id="Group-5">
		<rect id="Path_13_" x="-1260" y="1.496" fill="#FF4E4B" width="140" height="100"/>
		<path id="path2830" fill="#FFFFFF" d="M-1218.345,65.836c-1.719-0.025-2.834,0.537-3.355,1.686
			c-0.77,1.691-0.084,2.969,2.361,4.396c1.373,0.801,1.981,1.49,1.981,2.248c0,1.559-1.889,2.113-3.837,1.125
			c-0.396-0.199-0.735-0.365-0.756-0.365c-0.069,0.441-0.038,1.502-0.038,1.502s0.596,0.248,1.494,0.428
			c2.228,0.443,4.251-0.602,4.442-2.293c0.178-1.576-0.401-2.412-2.575-3.719c-1.456-0.875-2.098-1.51-2.015-2.262
			c0.226-2.072,2.785-1.781,4.195-1l0.005-1.393C-1216.441,66.189-1217.226,65.852-1218.345,65.836z M-1209.779,65.842
			c-0.104,0.002-0.21,0.006-0.315,0.012c-2.112,0.113-3.537,1.045-4.377,2.859c-0.712,1.643-0.633,3.791,0.013,5.438
			c0.746,1.613,1.958,2.465,3.972,2.791c0.424,0.068,0.715,0.309,1.537,1.271l1.016,1.189h1.848l-1.229-1.234
			c-0.676-0.68-1.229-1.273-1.229-1.32s0.26-0.162,0.575-0.256c1.039-0.313,1.894-1.111,2.499-2.336
			c0.484-0.979,0.56-1.281,0.623-2.506C-1204.657,68.098-1206.579,65.814-1209.779,65.842L-1209.779,65.842z M-1190.89,65.855
			c-1.719-0.023-2.837,0.539-3.358,1.686c-0.769,1.691-0.081,2.971,2.363,4.396c1.374,0.801,1.979,1.49,1.979,2.246
			c0,1.559-1.887,2.115-3.834,1.129c-0.396-0.201-0.738-0.367-0.759-0.367c-0.068,0.441-0.035,1.504-0.035,1.504
			s0.593,0.246,1.491,0.424c2.229,0.443,4.252-0.602,4.442-2.293c0.178-1.574-0.4-2.412-2.575-3.719
			c-1.455-0.875-2.097-1.508-2.015-2.26c0.226-2.072,2.785-1.779,4.195-1l0.005-1.393
			C-1188.989,66.209-1189.771,65.871-1190.89,65.855z M-1203.169,65.971v5.371v5.373h2.837h2.838v-0.521v-0.75h-4.331v-4.621v-4.852
			h-0.672H-1203.169z M-1209.879,66.984c2.245,0,3.523,1.373,3.685,3.953c0.134,2.143-0.586,3.762-1.967,4.43
			c-0.894,0.434-2.2,0.523-3.054,0.209c-0.876-0.32-1.728-1.232-2.117-2.266c-0.425-1.129-0.364-3.213,0.122-4.15
			C-1212.431,67.662-1211.394,66.984-1209.879,66.984z M-1164.443,68.863c-0.263,0.004-0.538,0.035-0.822,0.098
			c-1.79,0.469-2.801,2.18-2.732,3.943c0.001,1.479,0.288,2.211,1,2.982c1.457,1.201,2.782,1.291,4.569,0.654
			c0.309-0.133,0.637-0.281,0.637-0.281l-0.003-1.197l-0.634,0.334c-1.442,0.625-2.531,0.625-3.401-0.115
			c-0.559-0.568-0.797-1.236-0.916-2.014h2.699h2.7v-1.029C-1161.347,70.15-1162.607,68.834-1164.443,68.863L-1164.443,68.863z
			 M-1184.164,68.881c-0.262,0.004-0.535,0.037-0.819,0.098c-1.789,0.469-2.803,2.178-2.735,3.941
			c0.001,1.479,0.291,2.213,1.003,2.984c1.457,1.201,2.779,1.291,4.567,0.654c0.309-0.133,0.636-0.283,0.636-0.283V75.08
			l-0.636,0.334c-1.442,0.625-2.531,0.627-3.402-0.115c-0.558-0.568-0.797-1.238-0.916-2.016h2.702h2.7v-1.027
			C-1181.064,70.168-1182.328,68.852-1184.164,68.881z M-1156.573,68.938c-0.777,0-1.371,0.313-1.766,0.928l-0.313,0.49
			l-0.002-0.633l-0.003-0.635h-0.672h-0.672v3.807v3.807h0.672h0.672V74.27c0-2.225,0.028-2.488,0.336-3.098
			c0.423-0.838,1.164-1.252,1.875-1.047l0.477,0.137v-0.664v-0.66H-1156.573L-1156.573,68.938z M-1176.294,68.955
			c-0.777,0-1.368,0.313-1.763,0.928l-0.315,0.49l-0.003-0.635l-0.003-0.633h-0.671h-0.672v3.807v3.803h0.672h0.671v-2.43
			c0-2.225,0.029-2.488,0.336-3.098c0.424-0.838,1.164-1.252,1.876-1.047l0.479,0.137v-0.662v-0.66H-1176.294L-1176.294,68.955z
			 M-1175.248,69.092c0.899,2.533,1.871,5.119,2.855,7.621c0.426,0.004,0.854,0.004,1.28,0.002l1.504-3.768l1.528-3.854h-1.325
			c0,0-0.585,1.527-1.196,3.24l-1.109,2.891l-1.065-2.91l-1.084-3.223H-1175.248z M-1164.522,70.016
			c0.401,0.002,0.797,0.129,1.133,0.387c0.679,0.521,0.793,1.805,0.793,1.805h-4.032c0,0,0.203-1.305,0.941-1.82
			C-1165.332,70.139-1164.924,70.014-1164.522,70.016z M-1184.242,70.033c0.401,0.002,0.797,0.129,1.132,0.387
			c0.68,0.521,0.794,1.803,0.794,1.803h-4.03c0,0,0.203-1.303,0.941-1.818C-1185.05,70.156-1184.644,70.031-1184.242,70.033z"/>
		<path id="path26" fill="#FFFFFF" d="M-1198.522,62.074c0-0.055-0.016-0.096-0.047-0.119c-0.035-0.029-0.096-0.045-0.18-0.045
			h-0.121v0.332h0.146C-1198.59,62.242-1198.522,62.186-1198.522,62.074L-1198.522,62.074z M-1198.335,62.766h-0.165l-0.106-0.232
			c-0.054-0.117-0.111-0.176-0.174-0.176h-0.09v0.408h-0.136v-0.973h0.274c0.121,0,0.213,0.027,0.275,0.082
			c0.053,0.047,0.079,0.109,0.079,0.184c0,0.066-0.021,0.123-0.064,0.17s-0.104,0.078-0.183,0.096v0.004
			c0.055,0.012,0.108,0.072,0.162,0.178L-1198.335,62.766L-1198.335,62.766z M-1198.032,62.289c0-0.191-0.065-0.352-0.195-0.48
			c-0.131-0.129-0.29-0.191-0.479-0.191c-0.194,0-0.354,0.064-0.482,0.193c-0.129,0.129-0.192,0.289-0.192,0.479
			c0,0.193,0.066,0.357,0.198,0.486c0.131,0.127,0.289,0.191,0.477,0.191s0.346-0.064,0.478-0.193
			C-1198.098,62.643-1198.032,62.482-1198.032,62.289z M-1197.94,62.285c0,0.215-0.074,0.395-0.222,0.541
			c-0.147,0.145-0.33,0.217-0.547,0.217c-0.219,0-0.401-0.07-0.545-0.211c-0.145-0.143-0.217-0.322-0.217-0.541
			c0-0.213,0.073-0.393,0.22-0.539c0.147-0.145,0.329-0.219,0.548-0.219c0.214,0,0.394,0.07,0.539,0.209
			C-1198.015,61.887-1197.94,62.068-1197.94,62.285z"/>
		<path id="path28" fill="#FFFFFF" d="M-1217.722,64.816h-0.445v-2.551c0-0.201,0.013-0.447,0.037-0.736h-0.011
			c-0.042,0.17-0.08,0.293-0.114,0.367l-1.295,2.92h-0.218l-1.3-2.898c-0.037-0.08-0.074-0.211-0.113-0.389h-0.011
			c0.014,0.152,0.021,0.398,0.021,0.742v2.545h-0.43v-3.799h0.589l1.166,2.648c0.088,0.199,0.146,0.352,0.173,0.457h0.018
			c0.076-0.209,0.137-0.363,0.184-0.467l1.19-2.639h0.559"/>
		<path id="path30" fill="#FFFFFF" d="M-1216.349,62.104v2.713h-0.435v-2.713H-1216.349z M-1216.274,61.133
			c0,0.08-0.028,0.146-0.084,0.201c-0.055,0.055-0.123,0.082-0.202,0.082c-0.078,0-0.145-0.027-0.2-0.08s-0.083-0.121-0.083-0.203
			c0-0.08,0.027-0.146,0.083-0.201s0.122-0.08,0.2-0.08c0.079,0,0.147,0.025,0.202,0.08
			C-1216.303,60.986-1216.274,61.053-1216.274,61.133z"/>
		<path id="path32" fill="#FFFFFF" d="M-1213.64,64.691c-0.208,0.127-0.457,0.191-0.744,0.191c-0.389,0-0.703-0.129-0.941-0.387
			c-0.233-0.252-0.351-0.574-0.351-0.969c0-0.445,0.128-0.805,0.384-1.078c0.255-0.273,0.599-0.412,1.029-0.412
			c0.237,0,0.446,0.047,0.628,0.139v0.445c-0.201-0.141-0.417-0.213-0.646-0.213c-0.275,0-0.5,0.098-0.676,0.289
			c-0.183,0.197-0.272,0.461-0.272,0.789c0,0.316,0.083,0.566,0.25,0.75s0.391,0.275,0.672,0.275c0.237,0,0.46-0.078,0.668-0.232"/>
		<path id="path34" fill="#FFFFFF" d="M-1211.566,62.543c-0.076-0.059-0.187-0.086-0.332-0.086c-0.176,0-0.325,0.078-0.444,0.238
			c-0.137,0.178-0.204,0.424-0.204,0.738v1.383h-0.436v-2.713h0.436v0.559h0.011c0.063-0.197,0.161-0.35,0.294-0.457
			c0.124-0.1,0.262-0.148,0.415-0.148c0.115,0,0.203,0.012,0.261,0.037"/>
		<path id="path36" fill="#FFFFFF" d="M-1209.145,63.465c0-0.348-0.079-0.611-0.236-0.795c-0.151-0.174-0.364-0.262-0.639-0.262
			c-0.271,0-0.486,0.09-0.649,0.266c-0.172,0.188-0.257,0.455-0.257,0.803c0,0.324,0.082,0.578,0.246,0.76
			c0.165,0.184,0.385,0.275,0.66,0.275c0.286,0,0.504-0.092,0.654-0.277C-1209.218,64.053-1209.145,63.799-1209.145,63.465
			 M-1208.699,63.449c0,0.434-0.122,0.779-0.366,1.041c-0.243,0.262-0.572,0.393-0.985,0.393c-0.408,0-0.731-0.131-0.971-0.393
			c-0.233-0.252-0.35-0.586-0.35-0.998c0-0.473,0.133-0.836,0.397-1.094c0.246-0.24,0.574-0.361,0.986-0.361
			c0.404,0,0.721,0.125,0.947,0.377C-1208.813,62.664-1208.699,63.01-1208.699,63.449"/>
		<path id="path38" fill="#FFFFFF" d="M-1206.544,64.09c0,0.223-0.083,0.408-0.25,0.555c-0.182,0.158-0.43,0.238-0.744,0.238
			c-0.259,0-0.482-0.055-0.673-0.164v-0.467c0.212,0.174,0.446,0.26,0.704,0.26c0.346,0,0.518-0.127,0.518-0.379
			c0-0.105-0.039-0.193-0.114-0.262c-0.076-0.07-0.224-0.152-0.445-0.25c-0.228-0.098-0.39-0.201-0.485-0.307
			c-0.115-0.125-0.172-0.289-0.172-0.49c0-0.227,0.089-0.414,0.268-0.563c0.178-0.15,0.408-0.225,0.689-0.225
			c0.215,0,0.408,0.043,0.58,0.127v0.438c-0.179-0.129-0.383-0.193-0.614-0.193c-0.146,0-0.261,0.035-0.348,0.105
			c-0.087,0.072-0.13,0.162-0.13,0.273c0,0.119,0.036,0.215,0.108,0.281c0.065,0.061,0.201,0.137,0.408,0.225
			c0.231,0.098,0.398,0.197,0.501,0.299C-1206.61,63.725-1206.544,63.889-1206.544,64.09"/>
		<path id="path40" fill="#FFFFFF" d="M-1203.888,63.465c0-0.348-0.079-0.611-0.236-0.795c-0.152-0.174-0.365-0.262-0.639-0.262
			c-0.271,0-0.486,0.09-0.65,0.266c-0.171,0.188-0.256,0.455-0.256,0.803c0,0.324,0.082,0.578,0.246,0.76
			c0.165,0.184,0.385,0.275,0.66,0.275c0.286,0,0.504-0.092,0.654-0.277C-1203.962,64.053-1203.888,63.799-1203.888,63.465
			 M-1203.442,63.449c0,0.434-0.123,0.779-0.366,1.041s-0.573,0.393-0.986,0.393c-0.408,0-0.73-0.131-0.97-0.393
			c-0.233-0.252-0.351-0.586-0.351-0.998c0-0.473,0.134-0.836,0.398-1.094c0.245-0.24,0.573-0.361,0.985-0.361
			c0.405,0,0.721,0.125,0.948,0.377C-1203.557,62.664-1203.442,63.01-1203.442,63.449"/>
		<path id="path42" fill="#FFFFFF" d="M-1201.526,61.182c-0.085-0.047-0.182-0.07-0.29-0.07c-0.303,0-0.455,0.191-0.455,0.574v0.418
			h0.636v0.369h-0.636v2.344h-0.435v-2.344h-0.462v-0.369h0.462v-0.438c0-0.299,0.093-0.533,0.277-0.703
			c0.16-0.146,0.355-0.219,0.587-0.219c0.134,0,0.239,0.014,0.315,0.047"/>
		<path id="path44" fill="#FFFFFF" d="M-1199.812,64.789c-0.103,0.059-0.238,0.088-0.408,0.088c-0.474,0-0.71-0.266-0.71-0.799
			v-1.605h-0.467v-0.369h0.467v-0.662c0.138-0.043,0.282-0.09,0.435-0.141v0.803h0.684v0.369h-0.684v1.531
			c0,0.182,0.031,0.311,0.093,0.387s0.165,0.115,0.311,0.115c0.106,0,0.201-0.029,0.28-0.088"/>
		<path id="path3151" fill="#FFFFFF" d="M-1154.621,69.406c0-0.057-0.016-0.096-0.047-0.121c-0.035-0.029-0.096-0.043-0.18-0.043
			h-0.121v0.332h0.146C-1154.688,69.574-1154.621,69.518-1154.621,69.406L-1154.621,69.406z M-1154.434,70.096h-0.165l-0.106-0.232
			c-0.054-0.117-0.111-0.176-0.174-0.176h-0.09v0.408h-0.136v-0.971h0.274c0.121,0,0.212,0.027,0.275,0.082
			c0.053,0.047,0.079,0.107,0.079,0.184c0,0.066-0.021,0.123-0.064,0.17s-0.104,0.078-0.182,0.094v0.004
			c0.054,0.012,0.107,0.072,0.161,0.18L-1154.434,70.096L-1154.434,70.096z M-1154.131,69.621c0-0.193-0.065-0.352-0.196-0.48
			c-0.13-0.129-0.289-0.193-0.477-0.193c-0.195,0-0.355,0.064-0.483,0.195c-0.129,0.129-0.192,0.289-0.192,0.479
			c0,0.193,0.066,0.355,0.198,0.484c0.131,0.129,0.29,0.191,0.478,0.191c0.186,0,0.345-0.064,0.477-0.193
			C-1154.196,69.975-1154.131,69.814-1154.131,69.621z M-1154.039,69.617c0,0.213-0.074,0.393-0.222,0.539
			c-0.148,0.146-0.33,0.219-0.547,0.219c-0.219,0-0.4-0.07-0.545-0.213s-0.217-0.322-0.217-0.539c0-0.213,0.073-0.393,0.22-0.539
			c0.147-0.146,0.329-0.221,0.548-0.221c0.215,0,0.394,0.07,0.539,0.211C-1154.113,69.217-1154.039,69.398-1154.039,69.617z"/>
		<path id="path3639" fill="#FFFFFF" d="M-1175.91,41.992l-7.512,2.447l-6.531,2.883l-1.829,0.483
			c-0.464,0.44-0.957,0.888-1.48,1.344c-0.576,0.501-1.118,0.955-1.53,1.284c-0.459,0.366-1.142,1.042-1.49,1.475
			c-0.519,0.646-0.925,1.334-1.099,1.863c-0.314,0.951-0.161,1.916,0.444,2.807c0.772,1.137,2.313,2.293,4.103,3.078
			c0.913,0.402,2.454,0.918,3.609,1.211c1.926,0.484,5.646,1.014,7.696,1.092c0.415,0.016,0.969,0.014,0.994-0.002
			c0.045-0.031,0.364-0.635,0.734-1.391c1.26-2.57,2.171-4.98,2.661-7.039c0.297-1.248,0.528-2.91,0.679-4.88
			c0.042-0.552,0.058-2.394,0.024-3.02c-0.052-1.019-0.142-1.849-0.286-2.663c-0.021-0.119-0.028-0.225-0.018-0.233
			c0.021-0.019,0.092-0.041,1.015-0.31L-1175.91,41.992L-1175.91,41.992z M-1177.627,42.998c0.068,0,0.25,1.74,0.298,2.844
			c0.01,0.234,0.008,0.385-0.006,0.385c-0.045,0-0.963-0.538-1.613-0.946c-0.567-0.356-1.645-1.071-1.816-1.206
			c-0.054-0.043-0.048-0.045,0.416-0.205C-1179.559,43.597-1177.687,42.998-1177.627,42.998z M-1181.453,44.253
			c0.048-0.001,0.181,0.072,0.493,0.268c1.172,0.733,2.758,1.616,3.438,1.912c0.211,0.093,0.235,0.057-0.25,0.387
			c-1.035,0.702-2.322,1.393-3.902,2.094c-0.275,0.123-0.508,0.223-0.518,0.223s0.021-0.14,0.067-0.312
			c0.383-1.415,0.599-2.843,0.605-3.987c0.003-0.566,0.003-0.57,0.057-0.584C-1181.46,44.253-1181.457,44.253-1181.453,44.253
			L-1181.453,44.253z M-1182.241,44.553c0.034,0.034,0.01,1.304-0.032,1.649c-0.099,0.829-0.262,1.597-0.521,2.469
			c-0.062,0.209-0.12,0.389-0.129,0.399c-0.022,0.026-0.8-0.729-1.058-1.029c-0.441-0.512-0.79-1.02-1.045-1.521
			c-0.129-0.254-0.335-0.756-0.315-0.77C-1185.255,45.688-1182.263,44.532-1182.241,44.553z M-1185.951,46.015
			c0.007,0,0.012,0.002,0.015,0.006c0.012,0.012,0.051,0.104,0.088,0.205c0.182,0.491,0.588,1.221,0.941,1.688
			c0.386,0.509,0.889,1.052,1.31,1.412c0.135,0.116,0.261,0.225,0.279,0.24c0.036,0.031,0.048,0.026-0.878,0.377
			c-1.074,0.407-2.242,0.815-3.585,1.249c-0.512,0.166-0.944,0.305-0.961,0.311c-0.052,0.02-0.035-0.012,0.114-0.246
			c0.667-1.04,1.677-3.075,2.241-4.514c0.099-0.25,0.191-0.5,0.208-0.557c0.025-0.082,0.049-0.109,0.126-0.145
			C-1186.01,46.021-1185.973,46.013-1185.951,46.015z M-1187.089,46.484c0.016,0.014-0.272,0.621-0.556,1.173
			c-0.55,1.071-1.155,2.124-1.959,3.412c-0.139,0.221-0.267,0.424-0.284,0.449c-0.028,0.041-0.04,0.027-0.128-0.146
			c-0.192-0.383-0.354-0.865-0.438-1.315c-0.083-0.444-0.068-1.214,0.031-1.69c0.073-0.354,0.07-0.347,0.237-0.433
			C-1189.463,47.564-1187.112,46.462-1187.089,46.484z M-1177.295,46.881v0.241c-0.001,1.266-0.137,2.999-0.333,4.264
			c-0.034,0.221-0.064,0.404-0.066,0.406s-0.162-0.045-0.355-0.104c-0.852-0.266-1.776-0.66-2.61-1.117
			c-0.552-0.302-1.351-0.792-1.328-0.814c0.007-0.007,0.241-0.131,0.523-0.276c1.114-0.578,2.18-1.202,3.105-1.82
			c0.347-0.232,0.867-0.607,0.982-0.709L-1177.295,46.881z M-1191.376,48.559c0.022-0.001,0.017,0.042-0.02,0.251
			c-0.025,0.146-0.054,0.42-0.064,0.609c-0.045,0.83,0.09,1.442,0.502,2.28c0.114,0.232,0.204,0.428,0.199,0.432
			c-0.041,0.033-3.796,1.133-4.977,1.455c-0.35,0.096-0.656,0.18-0.681,0.188c-0.041,0.012-0.045,0.004-0.03-0.092
			c0.13-0.834,0.766-1.926,1.653-2.844c0.59-0.609,1.063-0.97,1.866-1.428c0.577-0.33,1.473-0.823,1.539-0.848
			C-1191.384,48.56-1191.38,48.559-1191.376,48.559L-1191.376,48.559z M-1182.519,50.144c0.003-0.004,0.143,0.07,0.309,0.166
			c1.213,0.702,2.905,1.358,4.348,1.688l0.131,0.031l-0.179,0.1c-0.754,0.418-3.236,1.449-5.772,2.4
			c-0.37,0.139-0.73,0.273-0.802,0.303c-0.07,0.027-0.128,0.047-0.128,0.041s0.104-0.207,0.232-0.447
			c0.712-1.33,1.423-2.945,1.787-4.067C-1182.556,50.245-1182.522,50.148-1182.519,50.144z M-1183.422,50.439
			c0.004,0.004-0.041,0.124-0.099,0.264c-0.495,1.195-1.144,2.5-1.97,3.965c-0.211,0.373-0.388,0.678-0.395,0.678
			s-0.178-0.102-0.38-0.227c-1.205-0.736-2.27-1.643-2.97-2.525l-0.1-0.123l0.52-0.143c1.852-0.508,3.422-1.049,4.983-1.723
			C-1183.609,50.512-1183.426,50.435-1183.422,50.439z M-1177.813,52.396c0.003,0,0.004,0.002,0.004,0.004
			c0,0.127-0.286,1.295-0.525,2.139c-0.2,0.709-0.368,1.264-0.68,2.246c-0.137,0.434-0.255,0.787-0.262,0.785
			c-0.008-0.002-0.04-0.008-0.074-0.014c-1.687-0.305-3.197-0.73-4.613-1.299c-0.396-0.16-0.968-0.412-0.998-0.441
			c-0.01-0.01,0.332-0.172,0.76-0.357c2.585-1.127,5.263-2.412,6.179-2.961C-1177.913,52.432-1177.832,52.393-1177.813,52.396
			L-1177.813,52.396z M-1190.761,52.84c0.014,0.012-0.709,1.047-1.719,2.459c-0.352,0.492-0.764,1.07-0.916,1.287
			c-0.153,0.215-0.384,0.559-0.515,0.76l-0.239,0.369l-0.254-0.215c-0.299-0.25-0.82-0.781-1.058-1.076
			c-0.487-0.607-0.817-1.246-0.948-1.834c-0.061-0.27-0.062-0.408-0.005-0.426c0.083-0.025,1.6-0.381,3.021-0.711
			c0.79-0.184,1.703-0.396,2.03-0.477C-1191.035,52.898-1190.764,52.836-1190.761,52.84L-1190.761,52.84z M-1190.034,53.117
			l0.184,0.205c0.817,0.91,1.649,1.59,2.665,2.176c0.179,0.104,0.315,0.193,0.304,0.199c-0.042,0.027-3.51,1.26-5.113,1.818
			c-0.904,0.314-1.647,0.57-1.651,0.57s-0.056-0.035-0.113-0.074l-0.104-0.076l0.164-0.236c0.532-0.77,1.201-1.617,2.664-3.375
			L-1190.034,53.117z M-1185.503,56.354c0.005-0.006,0.258,0.084,0.564,0.199c0.74,0.277,1.32,0.457,2.105,0.652
			c0.965,0.242,2.359,0.484,3.185,0.553c0.126,0.012,0.191,0.025,0.171,0.039c-0.038,0.023-0.874,0.303-1.488,0.496
			c-0.976,0.307-3.957,1.186-6.388,1.885c-0.451,0.129-0.836,0.238-0.856,0.244c-0.055,0.01-0.245-0.039-0.245-0.064
			c0-0.012,0.137-0.186,0.302-0.383c0.817-0.977,1.629-2.066,2.307-3.1C-1185.661,56.594-1185.507,56.359-1185.503,56.354z
			 M-1186.507,56.383c0.008,0.006-0.395,0.65-1.104,1.766c-0.299,0.471-0.638,1.008-0.754,1.191s-0.287,0.463-0.378,0.623
			l-0.166,0.289l-0.085-0.021c-0.203-0.055-1.639-0.563-2.019-0.713c-0.47-0.186-0.96-0.412-1.321-0.607
			c-0.451-0.242-1.023-0.605-0.979-0.619c0.013-0.004,0.789-0.217,1.725-0.471c2.488-0.678,3.865-1.068,4.769-1.35
			C-1186.65,56.418-1186.51,56.379-1186.507,56.383z M-1179.438,58.039c0.006-0.002,0.008-0.002,0.009,0
			c0.023,0.059-0.898,2.607-1.235,3.416c-0.075,0.182-0.103,0.225-0.142,0.223c-0.096-0.004-1.432-0.189-2.24-0.313
			c-1.415-0.215-3.785-0.629-4.384-0.766l-0.139-0.029l0.848-0.191c1.818-0.41,2.691-0.629,3.578-0.9
			c1.117-0.342,2.223-0.768,3.341-1.287C-1179.626,58.109-1179.476,58.047-1179.438,58.039z"/>
		<path id="path3667" fill="#FFFFFF" d="M-1183.651,24.496c-0.126-0.015-2.143,0.711-3.438,1.237
			c-1.755,0.713-3.118,1.396-3.959,1.985c-0.313,0.219-0.706,0.614-0.764,0.766c-0.021,0.057-0.031,0.123-0.032,0.191l0.763,0.72
			l1.81,0.577l4.311,0.769l4.927,0.847l0.05-0.423c-0.015-0.002-0.028-0.005-0.044-0.007l-0.648-0.102l-0.132-0.232
			c-0.67-1.181-1.41-2.642-1.839-3.63c-0.333-0.766-0.652-1.648-0.83-2.287C-1183.582,24.527-1183.594,24.502-1183.651,24.496z
			 M-1183.747,24.788c0.005-0.001,0.008-0.001,0.009,0c0.004,0.004,0.026,0.163,0.05,0.351c0.097,0.793,0.274,1.563,0.553,2.39
			c0.209,0.624,0.212,0.587-0.037,0.518c-0.579-0.162-3.176-0.607-5.053-0.867c-0.303-0.042-0.555-0.079-0.559-0.083
			c-0.024-0.024,1.354-0.745,1.965-1.029C-1186.036,25.704-1183.902,24.816-1183.747,24.788z M-1189.218,27.328l0.22,0.075
			c1.205,0.41,4.228,0.987,5.897,1.125c0.188,0.016,0.347,0.032,0.352,0.037s-0.155,0.09-0.355,0.19
			c-0.806,0.403-1.692,0.895-2.306,1.279c-0.181,0.113-0.346,0.204-0.367,0.202c-0.021-0.001-0.141-0.021-0.265-0.042l-0.228-0.037
			l-0.57-0.553c-1.001-0.968-1.782-1.717-2.085-2L-1189.218,27.328z M-1189.441,27.505l0.799,0.996
			c0.439,0.548,0.88,1.092,0.978,1.209c0.098,0.117,0.174,0.216,0.169,0.22c-0.023,0.016-1.157-0.205-1.759-0.342
			c-0.617-0.141-0.872-0.209-1.255-0.331l-0.311-0.1l0.001-0.078c0.004-0.382,0.486-0.947,1.306-1.524L-1189.441,27.505
			L-1189.441,27.505z M-1182.642,28.863c0.023,0.001,0.049,0.05,0.119,0.205c0.194,0.424,0.797,1.573,0.942,1.795
			c0.048,0.073,0.124,0.078-0.676-0.051c-1.923-0.311-2.545-0.414-2.545-0.426c0-0.007,0.058-0.045,0.128-0.084
			c0.596-0.331,1.197-0.747,1.731-1.198c0.128-0.108,0.251-0.21,0.273-0.229C-1182.659,28.867-1182.649,28.862-1182.642,28.863z"/>
		<path id="path2851" fill="#FFFFFF" d="M-1191.777,28.407c0,0-0.125,0.198-0.007,0.492c0.072,0.182,0.291,0.4,0.532,0.631
			c0,0,2.522,2.459,2.832,2.816c1.397,1.612,2.005,3.2,2.062,5.391c0.036,1.406-0.235,2.643-0.895,4.08
			c-1.182,2.574-3.671,5.414-7.516,8.572l0.563-0.186c0.363-0.271,0.855-0.563,2.018-1.197c2.677-1.463,5.682-2.809,9.373-4.194
			c5.312-1.995,14.048-4.335,19.019-5.096l0.519-0.08l-0.08-0.125c-0.454-0.706-0.765-1.141-1.138-1.603
			c-1.091-1.348-2.41-2.447-4.028-3.352c-2.222-1.244-5.104-2.21-8.749-2.934c-0.688-0.137-2.197-0.395-3.425-0.586
			c-2.601-0.405-4.278-0.678-6.131-1c-0.664-0.115-1.655-0.282-2.314-0.424c-0.343-0.074-0.995-0.228-1.501-0.402
			C-1191.063,29.046-1191.651,28.887-1191.777,28.407z M-1190.315,29.826c0.004-0.003,0.099,0.026,0.215,0.065
			c0.213,0.072,0.493,0.157,0.82,0.248c0.229,0.064,0.481,0.131,0.749,0.2c0.341,0.087,0.623,0.162,0.627,0.167
			c0.038,0.042,0.611,1.871,0.807,2.572c0.075,0.268,0.132,0.491,0.126,0.497s-0.069-0.093-0.141-0.218
			c-0.663-1.166-1.713-2.352-2.928-3.306C-1190.192,29.932-1190.315,29.831-1190.315,29.826z M-1187.52,30.598
			c0.029-0.002,0.155,0.019,0.306,0.052c0.967,0.214,2.694,0.547,3.806,0.734c0.185,0.031,0.337,0.064,0.337,0.075
			s-0.069,0.054-0.153,0.096c-0.187,0.094-0.94,0.545-1.192,0.713c-0.63,0.421-1.196,0.873-1.609,1.282
			c-0.165,0.165-0.304,0.299-0.309,0.299c-0.004,0-0.033-0.096-0.064-0.214c-0.206-0.79-0.632-1.956-1.015-2.777
			c-0.062-0.132-0.111-0.249-0.111-0.259C-1187.525,30.599-1187.523,30.598-1187.52,30.598L-1187.52,30.598z M-1182.602,31.532
			c0.032,0.011,0.093,0.202,0.202,0.63c0.207,0.821,0.304,1.743,0.271,2.597c-0.009,0.237-0.023,0.458-0.033,0.49l-0.018,0.059
			l-0.294-0.095c-0.604-0.193-1.593-0.484-2.44-0.718c-0.48-0.133-0.875-0.252-0.875-0.264c0-0.035,0.702-0.737,1.004-1.003
			C-1184.208,32.719-1182.657,31.514-1182.602,31.532z M-1182.211,31.588c0.018-0.016,2.35,0.387,3.409,0.59
			c0.791,0.151,1.934,0.39,2.002,0.419c0.034,0.014-0.084,0.078-0.464,0.249c-1.501,0.677-2.613,1.28-3.719,2.02
			c-0.291,0.195-0.533,0.354-0.538,0.354s-0.01-0.163-0.01-0.361c-0.001-1.077-0.216-2.165-0.61-3.083
			C-1182.184,31.677-1182.216,31.592-1182.211,31.588z M-1176.181,32.78c0.019,0.018-0.059,0.478-0.124,0.749
			c-0.207,0.845-0.754,2.1-1.429,3.278c-0.119,0.208-0.225,0.381-0.237,0.385s-0.166-0.077-0.341-0.179
			c-0.66-0.386-1.407-0.751-2.228-1.089c-0.229-0.094-0.424-0.178-0.434-0.188c-0.038-0.035,1.786-1.242,2.753-1.821
			C-1177.447,33.451-1176.202,32.758-1176.181,32.78z M-1175.749,32.848c0.053,0,1.087,0.282,1.622,0.441
			c1.332,0.398,2.869,0.959,3.866,1.412l0.414,0.188l-0.292,0.067c-2.439,0.56-4.53,1.207-6.544,2.023
			c-0.168,0.068-0.313,0.124-0.323,0.124c-0.011,0,0.043-0.129,0.117-0.287c0.605-1.285,0.997-2.634,1.098-3.779
			C-1175.781,32.932-1175.763,32.848-1175.749,32.848z M-1186.03,35.209c0.016-0.016,0.804,0.168,1.232,0.289
			c0.646,0.181,2.02,0.64,2.021,0.676c0,0.007-0.151,0.139-0.337,0.293c-0.742,0.621-1.459,1.27-2.316,2.098
			c-0.254,0.245-0.471,0.445-0.481,0.445s-0.016-0.036-0.009-0.079c0.129-0.953,0.101-2.177-0.079-3.423
			C-1186.022,35.349-1186.036,35.215-1186.03,35.209z M-1169.452,35.225c0.012,0.012-0.365,0.601-0.6,0.937
			c-0.343,0.49-0.839,1.134-1.971,2.555c-0.594,0.747-1.264,1.591-1.489,1.877s-0.415,0.52-0.421,0.52
			c-0.005,0-0.078-0.102-0.161-0.226c-0.638-0.952-1.395-1.788-2.297-2.539c-0.168-0.14-0.358-0.293-0.422-0.341
			c-0.063-0.047-0.115-0.09-0.115-0.097c-0.001-0.016,0.964-0.429,1.699-0.728c1.28-0.521,3.031-1.145,4.341-1.546
			C-1170.196,35.425-1169.463,35.214-1169.452,35.225z M-1169.018,35.338c0.021-0.004,0.158,0.063,0.323,0.157
			c1.38,0.79,2.731,1.804,3.795,2.847c0.303,0.297,1.042,1.065,1.031,1.072c-0.003,0.001-0.258,0.021-0.568,0.045
			c-2.391,0.18-5.447,0.688-8.39,1.395c-0.2,0.048-0.373,0.088-0.384,0.088c-0.012,0,0.207-0.219,0.486-0.487
			c1.728-1.66,2.516-2.708,3.443-4.582c0.139-0.279,0.256-0.52,0.261-0.534C-1169.02,35.339-1169.019,35.339-1169.018,35.338
			L-1169.018,35.338z M-1181.653,36.632c0.078,0.018,0.815,0.361,1.372,0.639c0.509,0.254,1.278,0.665,1.317,0.7
			c0.005,0.004-0.267,0.146-0.604,0.315c-1.066,0.533-1.98,1.037-2.935,1.619c-0.272,0.166-0.5,0.303-0.508,0.303
			c-0.023,0-0.014-0.021,0.138-0.299c0.509-0.93,0.918-2.04,1.154-3.125C-1181.697,36.688-1181.672,36.628-1181.653,36.632z
			 M-1182.396,36.766c0.016,0.015-0.176,0.717-0.297,1.092c-0.232,0.719-0.625,1.623-1.003,2.303
			c-0.089,0.16-0.225,0.394-0.302,0.52l-0.14,0.229l-0.318-0.307c-0.37-0.359-0.672-0.581-1.057-0.779
			c-0.151-0.078-0.274-0.149-0.274-0.16c-0.001-0.047,0.968-0.927,1.716-1.559C-1183.536,37.652-1182.41,36.752-1182.396,36.766z
			 M-1177.884,38.62l0.276,0.179c0.636,0.412,1.388,0.966,1.961,1.444c0.321,0.268,0.945,0.827,1.073,0.961l0.069,0.072l-0.46,0.129
			c-2.601,0.721-4.609,1.362-6.954,2.223c-0.26,0.096-0.484,0.176-0.5,0.176c-0.032,0-0.064,0.029,0.521-0.509
			c1.5-1.379,2.824-2.898,3.813-4.376L-1177.884,38.62z M-1179.069,38.917c0.014,0.013-0.769,1.108-1.233,1.726
			c-0.557,0.739-1.547,1.976-2.228,2.78c-0.285,0.336-0.529,0.615-0.542,0.62c-0.015,0.005-0.023-0.077-0.024-0.208
			c-0.001-0.687-0.175-1.42-0.481-2.042c-0.13-0.263-0.151-0.325-0.125-0.351c0.106-0.096,1.761-1.039,2.804-1.598
			C-1180.183,39.461-1179.083,38.903-1179.069,38.917z M-1186.241,40.673c0.015,0,0.147,0.066,0.295,0.148
			c0.362,0.2,0.688,0.42,0.975,0.661c0.011,0.009-0.138,0.13-0.331,0.27c-0.538,0.387-1.357,1.006-1.832,1.383
			c-0.5,0.398-0.517,0.41-0.461,0.324c0.375-0.573,0.563-0.898,0.761-1.313c0.175-0.368,0.35-0.806,0.474-1.186
			C-1186.31,40.802-1186.255,40.673-1186.241,40.673z M-1184.331,42.171c0.026-0.004,0.063,0.045,0.217,0.273
			c0.323,0.484,0.571,1.129,0.636,1.653l0.013,0.112l-0.775,0.301c-1.393,0.54-2.675,1.072-3.541,1.469
			c-0.242,0.111-0.67,0.314-0.949,0.455c-0.279,0.139-0.507,0.249-0.507,0.243c0-0.007,0.175-0.138,0.39-0.294
			c1.699-1.232,3.165-2.582,4.269-3.932c0.118-0.145,0.226-0.27,0.239-0.277C-1184.338,42.172-1184.334,42.171-1184.331,42.171
			L-1184.331,42.171z M-1185.212,42.39c0.022,0.021-0.627,0.756-1.064,1.202c-1.096,1.116-2.181,1.992-3.525,2.845
			c-0.168,0.106-0.322,0.203-0.342,0.215c-0.037,0.021,0.012-0.033,0.602-0.677c0.373-0.405,0.657-0.741,0.98-1.161
			c0.213-0.276,0.254-0.315,0.565-0.54C-1187.155,43.667-1185.234,42.367-1185.212,42.39z"/>
		<polyline id="path168" fill="#FFFFFF" points="-1178.637,61.018 -1178.952,61.018 -1178.952,61.996 -1179.08,61.996 
			-1179.08,61.018 -1179.396,61.018 -1179.396,60.902 -1178.637,60.902 		"/>
		<path id="path170" fill="#FFFFFF" d="M-1177.349,61.996h-0.128v-0.734c0-0.059,0.004-0.129,0.011-0.213h-0.004
			c-0.012,0.049-0.021,0.084-0.032,0.107l-0.373,0.84h-0.063l-0.374-0.834c-0.011-0.023-0.021-0.063-0.033-0.113h-0.002
			c0.004,0.045,0.005,0.115,0.005,0.215v0.732h-0.124v-1.094h0.171l0.335,0.764c0.025,0.057,0.043,0.1,0.05,0.131h0.006
			c0.021-0.061,0.039-0.105,0.053-0.135l0.343-0.76h0.16"/>
	</g>
</g>
</svg>
